<svg width="688" height="1032" xmlns="http://www.w3.org/2000/svg" xmlns:undefined="http://www.inkscape.org/namespaces/inkscape">
 <defs>
  <filter id="imagebot_56" x="-0.24643" width="1.49285" y="-0.08566" height="1.17132" color-interpolation-filters="sRGB">
   <feGaussianBlur  stdDeviation="2.68098" id="imagebot_62"/>
  </filter>
  <filter id="imagebot_54" color-interpolation-filters="sRGB">
   <feGaussianBlur  stdDeviation="2.68098" id="imagebot_61"/>
  </filter>
  <filter id="imagebot_52" x="-0.38402" width="1.76804" y="-0.18893" height="1.37785" color-interpolation-filters="sRGB">
   <feGaussianBlur  stdDeviation="3.31744" id="imagebot_60"/>
  </filter>
  <filter id="imagebot_50" x="-0.22601" width="1.45202" y="-0.11123" height="1.22246" color-interpolation-filters="sRGB">
   <feGaussianBlur  stdDeviation="3.31744" id="imagebot_59"/>
  </filter>
 </defs>
 <metadata id="imagebot_58">image/svg+xml</metadata>
 <g id="imagebot_2" label="Layer 1">
  <g label="Layer 1" transform="translate(-41.1177 -13.888) matrix(4.45378 0 0 4.45378 -1059.59 -2416.53)" id="imagebot_3">
   <path fill="#bc5fd3" fill-rule="evenodd" stroke="#ab37c8" stroke-width="3.1959" stroke-miterlimit="4" d="M327.06229,546.03601C307.02283,546.37482 269.97836,558.98132 266.17374,595.50586C262.36908,632.03046 290.50916,638.11792 290.50916,638.11792C290.50916,638.11792 247.14101,647.24426 248.66286,706.59668C250.18471,765.94916 279.06378,776.69891 317.14169,775.84125C363.17606,774.7832 387.92706,757.55994 394.77542,708.86047C401.62378,660.16101 352.92435,636.58655 357.48993,636.58655C362.05548,636.58655 383.35675,617.54907 378.03024,586.35095C372.70374,555.15289 347.10175,545.6972 327.06229,546.03601zM338.14807,584.75299C345.17477,584.82428 347.59784,587.6969 352.16342,593.97449C358.25085,602.34473 355.94904,607.65216 349.10068,617.54425C342.25232,627.43634 320.94632,626.69922 317.14169,610.71973C313.33704,594.74017 329.32605,585.58527 329.32605,585.58527C332.94046,585.01459 335.80585,584.72925 338.14807,584.75299zM324.88889,680.49689C350.61441,674.13019 349.86063,691.94727 355.77637,706.59668C361.38272,720.47998 356.53143,728.74561 347.9805,739.1059C338.71017,750.33789 303.4545,755.28662 302.69354,726.37134C297.72214,693.59698 299.16339,686.86359 324.88889,680.49689z" id="imagebot_57"/>
   <path fill="#cd87de" fill-rule="evenodd" filter="url(#imagebot_56)" d="M290.71429,633.79077C288.57144,630.93365 264.28571,621.64795 272.85715,591.64795C281.42856,561.64795 297.14285,558.79077 297.14285,558.79077C297.14285,558.79077 276.42856,583.07648 278.57144,603.07648C280.71429,623.07648 292.14285,635.21936 290.71429,633.79077z" id="imagebot_55"/>
   <path fill="#cd87de" fill-rule="evenodd" filter="url(#imagebot_54)" d="M289.28571,648.07648C287.85715,650.93359 266.42856,675.93359 269.28571,708.07648C273.41989,750.82123 294.16223,761.55023 329.28571,769.50507C329.28571,769.50507 294.28571,777.36218 276.42856,760.21936C258.57144,743.07648 255.71429,715.93359 258.57144,691.64789C261.42856,667.36218 272.14285,656.64789 289.28571,648.07648z" id="imagebot_53"/>
   <path fill="#ab37c8" fill-rule="evenodd" filter="url(#imagebot_52)" d="M345.71429,580.93359C345.71429,580.93359 361.42856,590.93359 361.42856,601.64789C361.42856,612.36218 351.42856,623.07648 351.42856,623.07648C351.42856,623.07648 365.71429,618.07648 366.42856,600.93359C367.14285,583.79071 347.14288,580.93359 345.71429,580.93359z" id="imagebot_51"/>
   <path fill="#ab37c8" fill-rule="evenodd" filter="url(#imagebot_50)" d="M335.71429,673.79077C335.71429,673.79077 347.14285,673.07648 355.71429,690.93365C364.28571,708.79077 364.28571,724.50507 362.14285,728.79077C360,733.07648 348.57144,745.21936 348.57144,745.21936C348.57144,745.21936 373.57144,733.79077 370.71429,707.36218C367.85715,680.93365 350.71429,672.36218 335.71429,673.79077z" id="imagebot_49"/>
   <path fill="#f6d5ff" stroke="#672178" stroke-width="3" stroke-miterlimit="4" stroke-dashoffset="0" id="imagebot_48" d="M327.14285,662.00555C327.14255,670.48706 320.26672,677.36249 311.78519,677.36218C303.30368,677.36188 296.42828,670.48602 296.42856,662.00452C296.42886,653.52301 303.30469,646.64758 311.78622,646.64789C320.26773,646.64819 327.14313,653.52405 327.14285,662.00555"/>
   <path fill="#f6d5ff" stroke="#672178" stroke-width="2.12109" stroke-miterlimit="4" stroke-dashoffset="0" id="imagebot_47" d="M365,655.93396C364.99979,662.24579 359.88287,667.36237 353.57104,667.36212C347.25922,667.36194 342.14264,662.245 342.14285,655.93317C342.14307,649.6214 347.25998,644.50476 353.57181,644.505C359.88364,644.50519 365.00021,649.62213 365,655.93396" transform="matrix(1.4143646,0,0,1.4143646,-150.43607,-270.72425)"/>
   <path fill="#672178" id="imagebot_46" d="M361.78571,656.4696C361.78555,661.10486 358.02783,664.8623 353.39258,664.86218C348.75732,664.862 344.99985,661.10431 345,656.46906C345.00015,651.8338 348.7579,648.07629 353.39313,648.07648C358.02838,648.0766 361.78586,651.83435 361.78571,656.4696"/>
   <path fill="#672178" id="imagebot_45" d="M323.57141,662.7196C323.57126,667.6507 319.57367,671.64801 314.64255,671.64789C309.71143,671.64771 305.71411,667.65015 305.71426,662.71899C305.71445,657.7879 309.71204,653.79059 314.64313,653.79071C319.57425,653.79089 323.57159,657.78845 323.57141,662.7196"/>
   <path fill="#441650" id="imagebot_44" d="M357.85715,655.5766C357.85706,657.94354 355.93823,659.86224 353.57129,659.86218C351.20435,659.86206 349.28564,657.94324 349.28571,655.57629C349.2858,653.20935 351.20465,651.29065 353.57156,651.29071C355.93851,651.29083 357.85721,653.20966 357.85715,655.5766"/>
   <path fill="#441650" id="imagebot_43" d="M320,663.25525C319.99991,665.91803 317.84122,668.0766 315.17841,668.07654C312.51563,668.07642 310.35706,665.91772 310.35715,663.25494C310.35724,660.5921 312.51593,658.43359 315.17874,658.43365C317.84152,658.43378 320.00009,660.59247 320,663.25525"/>
   <path fill="#ddafe9" id="imagebot_42" d="M357.85715,653.43365C357.85712,654.61713 356.89771,655.57648 355.71423,655.57642C354.53076,655.57642 353.57141,654.61694 353.57144,653.43347C353.57147,652.25 354.53091,651.29071 355.71436,651.29071C356.89783,651.29077 357.85718,652.25018 357.85715,653.43365"/>
   <path fill="#ddafe9" id="imagebot_41" d="M319.28571,659.32654C319.28568,660.60864 318.24631,661.64795 316.9642,661.64789C315.68213,661.64783 314.64282,660.60846 314.64285,659.32642C314.64291,658.04431 315.68228,657.005 316.96436,657.00507C318.24646,657.00507 319.28577,658.04443 319.28571,659.32654"/>
   <path fill="#ddafe9" id="imagebot_40" d="M300.71426,575.9339C300.71414,580.66779 297.67596,584.50519 293.92831,584.50507C290.18069,584.50488 287.1427,580.66718 287.14282,575.93335C287.14297,571.19946 290.18112,567.36206 293.92877,567.36218C297.67642,567.36237 300.71439,571.20001 300.71426,575.9339"/>
   <path fill="#ddafe9" id="imagebot_39" d="M298.57144,605.93396C298.5712,612.24579 292.97458,617.36237 286.07101,617.36212C279.16748,617.36194 273.5712,612.245 273.57144,605.93317C273.57166,599.6214 279.1683,594.50476 286.07187,594.505C292.97543,594.50519 298.57166,599.62213 298.57144,605.93396"/>
   <path fill="#ddafe9" id="imagebot_38" d="M312.14285,590.93378C312.14276,593.69519 310.064,595.93372 307.49985,595.93359C304.93567,595.93353 302.85706,593.69489 302.85712,590.93347C302.85721,588.172 304.93597,585.93353 307.50015,585.93359C310.06433,585.93372 312.14294,588.17236 312.14285,590.93378"/>
   <path fill="#ddafe9" id="imagebot_37" d="M315,623.07672C314.99985,627.02161 311.64188,630.21948 307.49976,630.21936C303.3576,630.21918 299.99985,627.02112 300,623.07623C300.00015,619.13135 303.35812,615.93347 307.50024,615.93359C311.6424,615.93378 315.00015,619.13184 315,623.07672"/>
   <path fill="#ddafe9" id="imagebot_36" d="M310,560.21936C309.99994,561.7973 308.241,563.07648 306.07129,563.07642C303.90161,563.07635 302.14279,561.79712 302.14285,560.21918C302.14294,558.64124 303.90186,557.36206 306.07156,557.36212C308.24124,557.36218 310.00009,558.64142 310,560.21936"/>
   <path fill="#ddafe9" id="imagebot_35" d="M342.85715,562.00543C342.85693,568.12 337.26028,573.07666 330.35672,573.07648C323.45316,573.07629 317.85693,568.11926 317.85715,562.0047C317.85739,555.89014 323.45401,550.93341 330.35757,550.93365C337.26111,550.93384 342.85739,555.89087 342.85715,562.00543"/>
   <path fill="#ddafe9" id="imagebot_34" d="M317.14285,571.64807C317.14276,574.40948 314.90411,576.64801 312.1427,576.64789C309.38126,576.64783 307.14276,574.40918 307.14285,571.64771C307.14294,568.88629 309.38159,566.64783 312.14301,566.64789C314.90445,566.64801 317.14294,568.88666 317.14285,571.64807"/>
   <path fill="#ddafe9" id="imagebot_33" d="M329.28571,579.14801C329.28564,580.92322 327.68661,582.36224 325.71417,582.36218C323.74173,582.36212 322.14279,580.92297 322.14285,579.14777C322.14291,577.37262 323.74197,575.93353 325.71439,575.93359C327.68686,575.93365 329.28577,577.3728 329.28571,579.14801"/>
   <path fill="#ddafe9" id="imagebot_32" d="M347.14285,576.64801C347.14276,579.01495 345.22394,580.93365 342.85699,580.93359C340.49005,580.93347 338.57135,579.01465 338.57141,576.64771C338.5715,574.28076 340.49036,572.36206 342.85727,572.36212C345.22421,572.36224 347.14294,574.28107 347.14285,576.64801"/>
   <path fill="#ddafe9" id="imagebot_31" d="M365,565.93384C364.99985,569.87872 361.32208,573.0766 356.78543,573.07648C352.24881,573.07635 348.57129,569.87823 348.57144,565.93335C348.57159,561.98846 352.24936,558.79065 356.78598,558.79077C361.3226,558.79089 365.00015,561.98895 365,565.93384"/>
   <path fill="#ddafe9" id="imagebot_30" d="M360.71429,580.21936C360.71426,581.7973 359.59491,583.07648 358.2142,583.07642C356.8335,583.07635 355.71426,581.79712 355.71429,580.21918C355.71432,578.64124 356.83368,577.36206 358.21439,577.36212C359.59509,577.36218 360.71432,578.64142 360.71429,580.21936"/>
   <path fill="#ddafe9" id="imagebot_29" d="M374.28571,593.07666C374.28558,596.23254 371.08752,598.79083 367.14261,598.79077C363.19772,598.79065 359.99985,596.23218 360,593.07629C360.00012,589.92035 363.19821,587.36206 367.1431,587.36218C371.08798,587.3623 374.28583,589.92072 374.28571,593.07666"/>
   <path fill="#ddafe9" id="imagebot_28" d="M367.85715,605.93365C367.85709,607.11713 366.57788,608.07648 364.99991,608.07642C363.42197,608.07642 362.14282,607.11694 362.14288,605.93347C362.14291,604.75 363.42215,603.79071 365.00012,603.79071C366.57806,603.79077 367.85721,604.75018 367.85715,605.93365"/>
   <path fill="#ddafe9" id="imagebot_27" d="M364.28574,618.07666C364.28564,620.83807 361.72717,623.0766 358.57126,623.07648C355.41534,623.07642 352.85706,620.83777 352.85718,618.07635C352.85727,615.31488 355.41574,613.07642 358.57162,613.07648C361.72757,613.0766 364.28583,615.31525 364.28574,618.07666"/>
   <path fill="#ddafe9" id="imagebot_26" d="M355,628.0766C354.99994,630.04901 353.40088,631.64795 351.42844,631.64789C349.45599,631.64783 347.85706,630.04883 347.85715,628.07635C347.85721,626.10388 349.45624,624.505 351.42868,624.50507C353.40112,624.50513 355.00006,626.10413 355,628.0766"/>
   <path fill="#ddafe9" id="imagebot_25" d="M295,625.93372C294.99991,627.90619 293.08109,629.50513 290.71414,629.505C288.3472,629.50494 286.4285,627.90594 286.42856,625.93347C286.42865,623.96106 288.3475,622.36212 290.71442,622.36218C293.08136,622.36224 295.00009,623.9613 295,625.93372"/>
   <path fill="#ddafe9" id="imagebot_24" d="M312.85712,605.21942C312.85706,607.19183 311.09811,608.79077 308.92841,608.79071C306.75873,608.79065 304.99991,607.19165 304.99997,605.21918C305.00006,603.2467 306.759,601.64783 308.92868,601.64789C311.09836,601.64795 312.85718,603.24695 312.85712,605.21942"/>
   <path fill="#ddafe9" id="imagebot_23" d="M285.71429,584.14801C285.71423,585.92322 284.435,587.36224 282.85706,587.36218C281.27911,587.36212 279.99994,585.92297 280,584.14777C280.00006,582.37262 281.2793,580.93353 282.85724,580.93359C284.43521,580.93365 285.71432,582.3728 285.71429,584.14801"/>
   <path fill="#ddafe9" id="imagebot_22" d="M336.42856,634.14813C336.42844,637.89575 333.23035,640.93378 329.28546,640.93359C325.34058,640.93347 322.14273,637.89532 322.14285,634.14771C322.14297,630.40002 325.34106,627.36206 329.28595,627.36218C333.23083,627.3623 336.42868,630.40051 336.42856,634.14813"/>
   <path fill="#ddafe9" id="imagebot_21" d="M277.85715,663.43378C277.85706,666.39246 275.77832,668.79083 273.21414,668.79077C270.64996,668.79065 268.57135,666.39209 268.57144,663.43341C268.57153,660.47473 270.65027,658.07635 273.21445,658.07648C275.77863,658.07654 277.85724,660.4751 277.85715,663.43378"/>
   <path fill="#ddafe9" id="imagebot_20" d="M301.42859,683.79108C301.42838,688.91943 296.63129,693.07666 290.71396,693.07648C284.7966,693.07629 279.99982,688.91882 280.00003,683.79047C280.00021,678.66211 284.79733,674.50488 290.71466,674.50507C296.63199,674.50525 301.4288,678.66272 301.42859,683.79108"/>
   <path fill="#ddafe9" id="imagebot_19" d="M279.28571,697.3623C279.28561,699.72925 276.56723,701.64795 273.21408,701.64789C269.86093,701.64777 267.14273,699.72894 267.14285,697.362C267.14297,694.99506 269.86133,693.07635 273.21448,693.07642C276.56763,693.07654 279.28583,694.99536 279.28571,697.3623"/>
   <path fill="#ddafe9" id="imagebot_18" d="M291.42859,715.57672C291.42844,720.11334 287.75067,723.79089 283.21402,723.79071C278.6774,723.79059 274.99988,720.11279 275.00003,715.57617C275.00018,711.03955 278.67795,707.362 283.21457,707.36218C287.75119,707.3623 291.42874,711.0401 291.42859,715.57672"/>
   <path fill="#ddafe9" id="imagebot_17" d="M264.28574,725.5766C264.28568,727.35181 262.84656,728.79083 261.07135,728.79077C259.29614,728.79071 257.85712,727.35156 257.85718,725.57642C257.85724,723.80121 259.29636,722.36212 261.07156,722.36218C262.84677,722.36224 264.2858,723.80139 264.28574,725.5766"/>
   <path fill="#ddafe9" id="imagebot_16" d="M297.85712,737.7196C297.8569,743.04523 292.73999,747.3623 286.42816,747.36212C280.11633,747.36194 274.99976,743.04456 274.99997,737.71893C275.00018,732.39337 280.1171,728.07623 286.42892,728.07642C292.74075,728.0766 297.85733,732.39398 297.85712,737.7196"/>
   <path fill="#ddafe9" id="imagebot_15" d="M365.71429,682.3623C365.71423,683.94025 364.27509,685.21942 362.49988,685.21936C360.7247,685.2193 359.28568,683.94006 359.28571,682.36212C359.28577,680.78418 360.72491,679.505 362.50012,679.50507C364.2753,679.50513 365.71432,680.78436 365.71429,682.3623"/>
   <path fill="#ddafe9" id="imagebot_14" d="M382.85715,675.21954C382.85699,679.5589 379.1792,683.0766 374.64258,683.07642C370.10596,683.07629 366.42844,679.55841 366.42859,675.21899C366.42874,670.87964 370.10651,667.362 374.64313,667.36212C379.17975,667.3623 382.8573,670.88019 382.85715,675.21954"/>
   <path fill="#ddafe9" id="imagebot_13" d="M385,698.79114C384.99982,704.31396 380.84232,708.79102 375.71396,708.79077C370.58563,708.79065 366.42841,704.31329 366.42856,698.79047C366.42874,693.26764 370.58624,688.79065 375.7146,688.79077C380.84296,688.79102 385.00018,693.26831 385,698.79114"/>
   <path fill="#ddafe9" id="imagebot_12" d="M388.57141,685.5766C388.57132,687.74628 386.6525,689.50513 384.28555,689.50507C381.91861,689.50494 379.99991,687.74603 379.99997,685.57635C380.00006,683.40668 381.91891,681.64783 384.28583,681.64789C386.65277,681.64795 388.5715,683.40692 388.57141,685.5766"/>
   <path fill="#ddafe9" id="imagebot_11" d="M368.57144,715.93372C368.57138,717.51166 367.29214,718.79083 365.7142,718.79077C364.13623,718.79071 362.85709,717.51147 362.85715,715.93353C362.85721,714.35559 364.13644,713.07642 365.71439,713.07648C367.29236,713.07654 368.5715,714.35577 368.57144,715.93372"/>
   <path fill="#ddafe9" id="imagebot_10" d="M390,719.14813C389.99985,722.89575 386.48196,725.93378 382.14258,725.93359C377.80322,725.93347 374.28558,722.89532 374.28571,719.14771C374.28586,715.40002 377.80374,712.36206 382.1431,712.36218C386.48248,712.3623 390.00015,715.40051 390,719.14813"/>
   <path fill="#ddafe9" id="imagebot_9" d="M369.28571,728.79089C369.28564,730.76337 367.36679,732.36224 364.99985,732.36218C362.63293,732.36212 360.7142,730.76312 360.71429,728.79065C360.71436,726.81824 362.63321,725.2193 365.00015,725.21936C367.36707,725.21942 369.2858,726.81842 369.28571,728.79089"/>
   <path fill="#ddafe9" id="imagebot_8" d="M374.28571,744.86249C374.28552,749.79358 369.80823,753.79095 364.28537,753.79077C358.76251,753.79059 354.28552,749.79303 354.28571,744.86188C354.28589,739.93079 358.76318,735.93347 364.28604,735.93359C369.80887,735.93378 374.28589,739.9314 374.28571,744.86249"/>
   <path fill="#ddafe9" id="imagebot_7" d="M380.71429,732.00525C380.7142,734.96393 378.63547,737.3623 376.07129,737.36224C373.50711,737.36212 371.4285,734.96356 371.42856,732.00488C371.42865,729.0462 373.50742,726.64783 376.07159,726.64795C378.63577,726.64801 380.71436,729.04657 380.71429,732.00525"/>
   <path fill="#ddafe9" id="imagebot_6" d="M355,757.36249C354.99985,762.09637 351.00226,765.93378 346.07114,765.93365C341.14001,765.93347 337.1427,762.09576 337.14285,757.36194C337.14301,752.62805 341.14063,748.79065 346.07172,748.79077C351.00284,748.79095 355.00018,752.6286 355,757.36249"/>
   <path fill="#ddafe9" id="imagebot_5" d="M328.57141,758.79089C328.57132,760.76337 326.6525,762.36224 324.28555,762.36218C321.91861,762.36212 319.99991,760.76312 319.99997,758.79065C320.00006,756.81824 321.91891,755.2193 324.28583,755.21936C326.65277,755.21942 328.5715,756.81842 328.57141,758.79089"/>
   <path fill="#ddafe9" id="imagebot_4" d="M307.85715,753.07666C307.85703,755.83807 305.29858,758.0766 302.14267,758.07648C298.98676,758.07642 296.42847,755.83777 296.42859,753.07635C296.42868,750.31488 298.98715,748.07642 302.14304,748.07648C305.29898,748.0766 307.85724,750.31525 307.85715,753.07666"/>
  </g>
  <title>Layer 1</title>
 </g>
</svg>