<svg width="717" height="983" xmlns="http://www.w3.org/2000/svg">

 <metadata id="imagebot_30">image/svg+xml</metadata>
 <g id="imagebot_2" label="Layer 1">
  <g label="Layer 1" transform="translate(-14.7304 -37.5285) matrix(4.66032 0 0 4.66032 -1075.27 -1317.17)" id="imagebot_3">
   <g id="imagebot_24" transform="translate(-0.5357143,6.25)">
    <path fill="#ffccaa" stroke="#aa4400" stroke-width="3" stroke-miterlimit="4" stroke-dashoffset="0" id="imagebot_29" d="M 388.214 314.327 C 388.214 322.019 381.978 328.255 374.285 328.255 C 366.593 328.255 360.357 322.019 360.357 314.326 C 360.357 306.633 366.594 300.398 374.286 300.398 C 381.979 300.398 388.215 306.634 388.214 314.327"/>
    <g transform="matrix(0.7444444,0,0,0.7444444,119.13095,79.004459)" id="imagebot_25">
     <path fill="#aa4400" transform="matrix(1.2162162,0,0,1.2162162,-79.546329,-69.448963)" d="M359.64285,317.8981C359.64273,321.54712 356.68451,324.50513 353.03549,324.505C349.38647,324.50491 346.42844,321.54669 346.42856,317.89767C346.42868,314.24863 349.3869,311.29062 353.03592,311.29074C356.68494,311.29086 359.64297,314.24908 359.64285,317.8981" id="imagebot_28"/>
     <path fill="#552200" id="imagebot_27" d="M359.64285,317.8981C359.64273,321.54712 356.68451,324.50513 353.03549,324.505C349.38647,324.50491 346.42844,321.54669 346.42856,317.89767C346.42868,314.24863 349.3869,311.29062 353.03592,311.29074C356.68494,311.29086 359.64297,314.24908 359.64285,317.8981" transform="matrix(0.7027027,0,0,0.7027027,101.92085,93.617326)"/>
     <path fill="#ffb380" transform="matrix(0.3243243,0,0,0.3243243,238.00193,211.40301)" d="M359.64285,317.8981C359.64273,321.54712 356.68451,324.50513 353.03549,324.505C349.38647,324.50491 346.42844,321.54669 346.42856,317.89767C346.42868,314.24863 349.3869,311.29062 353.03592,311.29074C356.68494,311.29086 359.64297,314.24908 359.64285,317.8981" id="imagebot_26"/>
    </g>
   </g>
   <path fill="#ff6600" fill-rule="evenodd" stroke="#aa4400" stroke-width="3.63545" stroke-miterlimit="4" d="M369.7858,290.68835L371.21436,352.95065L271.97482,329.85779L264.18457,376.59933C264.18457,376.59933 301.40469,348.03506 337.75922,364.48114C374.11371,380.92725 378.44162,419.01291 370.65137,451.03952C362.86115,483.0661 314.87262,501.67563 289.28653,496.91544C252.06644,489.99078 235.62033,460.56094 235.62033,460.56094L272.34433,423.12265C272.34433,423.12265 265.41476,464.19928 311.79169,451.90509C343.65799,443.45755 340.37183,420.25412 327.0849,403.79291C308.46561,380.72546 264.1846,413.8194 264.1846,413.8194L233.88918,392.17981L251.20084,296.96561L369.7858,290.68835z" id="imagebot_23"/>
   <g id="imagebot_17">
    <path fill="#ffccaa" stroke="#aa4400" stroke-width="3" stroke-miterlimit="4" stroke-dashoffset="0" transform="matrix(1.1157407,0,0,1.1157407,-42.005621,-34.656667)" d="M361.42856,314.86264C361.42831,322.55518 355.19205,328.79099 347.49954,328.79074C339.80698,328.7905 333.57117,322.55426 333.57141,314.86172C333.57166,307.16916 339.80792,300.93335 347.50046,300.93359C355.19299,300.93387 361.42883,307.1701 361.42856,314.86264" id="imagebot_22"/>
    <g id="imagebot_18">
     <path fill="#aa4400" id="imagebot_21" d="M359.64285,317.8981C359.64273,321.54712 356.68451,324.50513 353.03549,324.505C349.38647,324.50491 346.42844,321.54669 346.42856,317.89767C346.42868,314.24863 349.3869,311.29062 353.03592,311.29074C356.68494,311.29086 359.64297,314.24908 359.64285,317.8981" transform="matrix(1.2162162,0,0,1.2162162,-79.546329,-69.448963)"/>
     <path fill="#552200" transform="matrix(0.7027027,0,0,0.7027027,101.92085,93.617326)" d="M359.64285,317.8981C359.64273,321.54712 356.68451,324.50513 353.03549,324.505C349.38647,324.50491 346.42844,321.54669 346.42856,317.89767C346.42868,314.24863 349.3869,311.29062 353.03592,311.29074C356.68494,311.29086 359.64297,314.24908 359.64285,317.8981" id="imagebot_20"/>
     <path fill="#ffb380" id="imagebot_19" d="M359.64285,317.8981C359.64273,321.54712 356.68451,324.50513 353.03549,324.505C349.38647,324.50491 346.42844,321.54669 346.42856,317.89767C346.42868,314.24863 349.3869,311.29062 353.03592,311.29074C356.68494,311.29086 359.64297,314.24908 359.64285,317.8981" transform="matrix(0.3243243,0,0,0.3243243,238.00193,211.40301)"/>
    </g>
   </g>
   <path fill="none" stroke="#aa4400" stroke-width="2" stroke-miterlimit="4" d="M276.7818,381.11581C276.7818,381.11581 268.1955,389.19702 273.75134,392.73257C279.30719,396.2681 287.3884,387.68179 289.40869,390.71225C291.42902,393.74271 290.41885,399.80362 290.41885,399.80362" id="imagebot_16"/>
   <path fill="none" stroke="#aa4400" stroke-width="2" stroke-miterlimit="4" d="M302.54068,372.02444C302.54068,372.02444 294.96454,378.08536 299.00513,383.13611C303.04575,388.18689 305.57114,382.12598 309.10666,386.16656C312.64221,390.20718 310.11682,394.75287 310.11682,394.75287" id="imagebot_15"/>
   <path fill="none" stroke="#aa4400" stroke-width="2" stroke-miterlimit="4" d="M330.31989,374.04474C330.31989,374.04474 321.22852,374.5498 321.73358,381.62088C322.23865,388.69196 330.82495,384.65134 330.31989,390.20718C329.81482,395.76303 322.23868,397.27826 322.23868,397.27826" id="imagebot_14"/>
   <path fill="none" stroke="#aa4400" stroke-width="2" stroke-miterlimit="4" d="M330.82495,407.37979C330.82495,407.37979 341.93661,407.37979 343.95694,403.33917C345.97723,399.29858 340.42139,396.77319 342.44171,391.72244C344.46201,386.67166 354.05847,389.70212 354.05847,389.70212" id="imagebot_13"/>
   <path fill="none" stroke="#aa4400" stroke-width="2" stroke-miterlimit="4" d="M336.3808,422.02698C336.3808,422.02698 343.95694,424.55237 347.99756,422.02698C352.03815,419.50159 350.52292,409.90515 356.58386,409.90515C362.64474,409.90515 364.16,417.98636 364.16,417.98636" id="imagebot_12"/>
   <path fill="none" stroke="#aa4400" stroke-width="2" stroke-miterlimit="4" d="M333.85541,435.15897C333.85541,435.15897 336.88586,443.74527 342.44171,441.72495C347.99753,439.70465 351.53308,435.15897 357.0889,437.17926C362.64474,439.19958 361.12952,447.78586 361.12952,447.78586" id="imagebot_11"/>
   <path fill="none" stroke="#aa4400" stroke-width="2" stroke-miterlimit="4" d="M325.26913,445.76559C325.26913,445.76559 317.69299,455.8671 326.27927,458.89758C334.86557,461.92804 332.84528,453.34174 340.92648,456.37219C349.00772,459.40265 343.95694,467.98895 343.95694,467.98895" id="imagebot_10"/>
   <path fill="none" stroke="#aa4400" stroke-width="2" stroke-miterlimit="4" d="M305.57114,452.33157C305.57114,452.33157 295.4696,459.90771 304.05591,464.95847C312.64221,470.00925 315.67267,470.00925 315.67267,474.55493C315.67267,479.10062 303.55084,480.61584 303.55084,480.61584" id="imagebot_9"/>
   <path fill="none" stroke="#aa4400" stroke-width="2" stroke-miterlimit="4" d="M286.88333,451.82648C286.88333,451.82648 276.7818,456.87726 280.31735,462.43307C283.85287,467.98892 288.90363,466.97876 286.88333,471.52448C284.86304,476.07016 271.73105,474.04984 271.73105,474.04984" id="imagebot_8"/>
   <path fill="none" stroke="#aa4400" stroke-width="2" stroke-miterlimit="4" d="M275.26657,441.21988C275.26657,441.21988 260.11429,443.2402 261.12442,449.30109C262.13458,455.36203 266.1752,460.91785 263.64981,462.93817C261.12442,464.95847 251.52798,460.41278 251.52798,460.41278" id="imagebot_7"/>
   <path fill="none" stroke="#aa4400" stroke-width="3" stroke-miterlimit="4" d="M274.76151,312.93051L279.30719,331.61832" id="imagebot_6"/>
   <path fill="none" stroke="#aa4400" stroke-width="3" stroke-miterlimit="4" d="M265.16504,318.99142C267.69043,322.52695 273.24625,329.09296 273.24625,329.09296" id="imagebot_5"/>
   <path fill="none" stroke="#aa4400" stroke-width="3" stroke-miterlimit="4" d="M287.3884,312.42545C286.37823,315.4559 284.35794,332.12344 284.35794,332.12344" id="imagebot_4"/>
  </g>
  <title>Layer 1</title>
 </g>
</svg>