<svg width="688" height="1023" xmlns="http://www.w3.org/2000/svg">

 <metadata id="imagebot_21">image/svg+xml</metadata>
 <g id="imagebot_2" label="Layer 1">
  <g label="Layer 1" transform="translate(-22.0397 -15.5063) matrix(4.80569 0 0 4.80569 -217.726 -1376.41)" id="imagebot_3">
   <g id="imagebot_5" transform="matrix(1.0302015,0,0,1.0302015,-58.857086,-41.078618)">
    <path fill="#0088aa" fill-rule="evenodd" stroke="#006680" stroke-width="3" stroke-miterlimit="4" id="imagebot_20" d="M124.24604,321.02173L112.12104,477.58423L179.37103,479.11548C178.12079,500.2356 167.28664,522.14551 165.46033,527.62439L205.59872,527.62439L196.93353,479.52173L244.46478,480.61548L241.43353,429.08423L200.24603,436.02173L214.08978,390.99493L173.55408,392.91458C173.55408,392.91458 182.3074,415.39932 181.33978,439.20923L139.40228,446.27173L177.77728,322.02173L124.24604,321.02173z"/>
    <path fill="#d5f6ff" stroke="#006680" stroke-width="3" stroke-miterlimit="4" stroke-dashoffset="0" d="M185.86807,351.31689C185.86777,360.80106 178.17908,368.48923 168.69492,368.48892C159.21075,368.48859 151.52257,360.7999 151.52289,351.31573C151.52319,341.83157 159.21188,334.1434 168.69604,334.14371C178.18021,334.14404 185.86839,341.83273 185.86807,351.31689" id="imagebot_19"/>
    <path fill="#d5f6ff" stroke="#006680" stroke-width="3" stroke-miterlimit="4" stroke-dashoffset="0" transform="matrix(0.8377056,0,0,0.8377056,-9.9973108,56.511598)" id="imagebot_18" d="M185.86807,351.31689C185.86777,360.80106 178.17908,368.48923 168.69492,368.48892C159.21075,368.48859 151.52257,360.7999 151.52289,351.31573C151.52319,341.83157 159.21188,334.1434 168.69604,334.14371C178.18021,334.14404 185.86839,341.83273 185.86807,351.31689"/>
    <path fill="#d5f6ff" fill-rule="evenodd" stroke="#004455" stroke-width="3" stroke-miterlimit="4" id="imagebot_17" d="M105.56094,375.0549L150.51273,375.0549C150.51273,375.0549 135.86552,394.2478 123.23861,394.2478C110.6117,394.2478 106.06602,376.06506 105.56094,375.0549z"/>
    <path fill="#004455" d="M178.797,351.56912C178.79684,356.17172 175.06557,359.90274 170.46297,359.90259C165.86037,359.90244 162.12933,356.17117 162.12949,351.56857C162.12964,346.96594 165.86092,343.23492 170.46352,343.23508C175.06613,343.23523 178.79715,346.96652 178.797,351.56912" id="imagebot_16"/>
    <path fill="#004455" transform="matrix(0.8030303,0,0,0.8030303,-8.2189677,68.364527)" id="imagebot_15" d="M178.797,351.56912C178.79684,356.17172 175.06557,359.90274 170.46297,359.90259C165.86037,359.90244 162.12933,356.17117 162.12949,351.56857C162.12964,346.96594 165.86092,343.23492 170.46352,343.23508C175.06613,343.23523 178.79715,346.96652 178.797,351.56912"/>
    <g id="imagebot_12">
     <path fill="#00222b" id="imagebot_14" d="M174.25133,350.93762C174.25125,353.09946 172.49869,354.8519 170.33685,354.85184C168.17502,354.85175 166.42258,353.09918 166.42264,350.93735C166.42271,348.77554 168.17528,347.02307 170.33711,347.02316C172.49895,347.02322 174.2514,348.77579 174.25133,350.93762"/>
     <path fill="#aaeeff" id="imagebot_13" d="M174.50385,348.66473C174.50381,349.57129 173.76888,350.30621 172.8623,350.30618C171.95572,350.30615 171.22083,349.5712 171.22086,348.66461C171.22089,347.75803 171.95583,347.02313 172.86241,347.02319C173.76898,347.02322 174.50388,347.75815 174.50385,348.66473"/>
    </g>
    <g transform="matrix(0.7096774,0,0,0.7096774,7.6576075,101.50627)" id="imagebot_9">
     <path fill="#00222b" d="M174.25133,350.93762C174.25125,353.09946 172.49869,354.8519 170.33685,354.85184C168.17502,354.85175 166.42258,353.09918 166.42264,350.93735C166.42271,348.77554 168.17528,347.02307 170.33711,347.02316C172.49895,347.02322 174.2514,348.77579 174.25133,350.93762" id="imagebot_11"/>
     <path fill="#aaeeff" d="M174.50385,348.66473C174.50381,349.57129 173.76888,350.30621 172.8623,350.30618C171.95572,350.30615 171.22083,349.5712 171.22086,348.66461C171.22089,347.75803 171.95583,347.02313 172.86241,347.02319C173.76898,347.02322 174.50388,347.75815 174.50385,348.66473" id="imagebot_10"/>
    </g>
    <path fill="none" stroke="#0088aa" stroke-width="3" stroke-miterlimit="4" id="imagebot_8" d="M117.5,375.21933L117.5,382.36218"/>
    <path fill="none" stroke="#0088aa" stroke-width="3" stroke-miterlimit="4" d="M133.39285,375.39789L133.39285,382.54074" id="imagebot_7"/>
    <path fill="none" stroke="#0088aa" stroke-width="3" stroke-miterlimit="4" id="imagebot_6" d="M123.39286,382.29013L123.39286,393.50568"/>
   </g>
   <path fill="none" stroke="#006680" stroke-width="2" stroke-miterlimit="4" d="M100,450.93362C100,450.93362 132.85715,450.93362 143.57143,439.50504C154.28571,428.07648 137.14285,416.64792 128.57143,419.50504C120,422.36218 117.85714,433.79077 123.57143,436.64792C129.28571,439.50504 137.14285,436.64792 136.42857,430.93362C135.71429,425.21933 127.85714,429.50504 127.85714,429.50504" id="imagebot_4"/>
  </g>
  <title>Layer 1</title>
 </g>
</svg>