<svg width="662" height="1032" xmlns="http://www.w3.org/2000/svg">

 <metadata id="imagebot_35">image/svg+xml</metadata>
 <g id="imagebot_2" label="Layer 1">
  <g label="Layer 1" transform="translate(-32.0283 -13.57) matrix(3.67588 0 0 3.67588 -461.589 -690.904)" id="imagebot_3">
   <path fill="#ff2a2a" fill-rule="evenodd" d="M154.28571,277.36218C154.28571,277.36218 144.28571,284.50504 147.14285,295.21933C150,305.93362 157.85715,304.50504 157.85715,308.79074C157.85715,313.07648 152.14285,317.36218 152.14285,317.36218C152.14285,317.36218 162.14285,315.21933 162.14285,309.50504C162.14285,303.79074 170.71429,308.79074 170.71429,308.79074C170.71429,308.79074 165,303.07648 159.28571,301.64789C153.57143,300.21933 151.42857,294.50504 152.14285,288.79074C152.85715,283.07648 158.57143,283.07648 158.57143,283.07648L154.28571,277.36218z" id="imagebot_34"/>
   <path fill="#88aa00" fill-rule="evenodd" stroke="#668000" stroke-width="3" stroke-miterlimit="4" d="M134.28571,250.93361L174.28571,303.79074L214.28571,270.21933L207.14285,416.64789L152.85713,410.93359L152.85713,472.36218L314.28571,472.36218L304.28571,403.79074L260,409.50504L287.14285,213.79076L231.42857,195.21933L134.28571,250.93361z" id="imagebot_33"/>
   <path fill="#e6e6e6" stroke="#668000" stroke-width="3" stroke-miterlimit="4" stroke-dashoffset="0" id="imagebot_32" d="M 227.143 210.22 C 227.143 220.477 218.828 228.791 208.571 228.791 C 198.314 228.79 190 220.475 190 210.219 C 190 199.962 198.315 191.648 208.572 191.648 C 218.829 191.648 227.143 199.963 227.143 210.22"/>
   <path fill="#e6e6e6" stroke="#668000" stroke-width="3" stroke-miterlimit="4" stroke-dashoffset="0" id="imagebot_31" d="M235,223.07709C234.99966,233.33382 226.68468,241.64824 216.42795,241.6479C206.17123,241.64755 197.8568,233.33257 197.85715,223.07585C197.85748,212.81914 206.17249,204.5047 216.42918,204.50504C226.68591,204.50539 235.00034,212.82037 235,223.07709" transform="matrix(1.1779359,0,0,1.1779359,-7.7961385,-28.264744)"/>
   <path fill="none" stroke="#668000" stroke-width="2" stroke-miterlimit="4" d="M145.71429,243.79076L173.57143,278.07648" id="imagebot_30"/>
   <path fill="none" stroke="#668000" stroke-width="2" stroke-miterlimit="4" d="M160.71429,234.50504L182.85715,265.2193" id="imagebot_29"/>
   <path fill="none" stroke="#668000" stroke-width="2" stroke-miterlimit="4" d="M175.71429,226.6479L198.57143,255.21931" id="imagebot_28"/>
   <path fill="none" stroke="#668000" stroke-width="2" stroke-miterlimit="4" d="M242.85715,287.36218C245.71429,287.36218 278.57144,287.36218 278.57144,287.36218" id="imagebot_27"/>
   <path fill="none" stroke="#668000" stroke-width="2" stroke-miterlimit="4" d="M249.28571,303.79074L274.28571,303.07645L274.28571,303.07645L274.28571,303.07645" id="imagebot_26"/>
   <path fill="none" stroke="#668000" stroke-width="2" stroke-miterlimit="4" d="M236.42857,319.50504L273.57144,319.50504" id="imagebot_25"/>
   <path fill="none" stroke="#668000" stroke-width="2" stroke-miterlimit="4" d="M241.42857,335.21933L270.71429,336.64792" id="imagebot_24"/>
   <path fill="none" stroke="#668000" stroke-width="2" stroke-miterlimit="4" d="M235,350.93362C238.57143,350.93362 269.28571,351.64792 269.28571,351.64792L269.28571,351.64792L269.28571,351.64792" id="imagebot_23"/>
   <path fill="none" stroke="#668000" stroke-width="2" stroke-miterlimit="4" d="M243.57143,363.79074L267.85715,363.79074" id="imagebot_22"/>
   <path fill="none" stroke="#668000" stroke-width="2" stroke-miterlimit="4" d="M232.14285,380.93362L264.28571,378.79077" id="imagebot_21"/>
   <path fill="none" stroke="#668000" stroke-width="2" stroke-miterlimit="4" d="M238.57143,393.07648L260.71429,392.36218" id="imagebot_20"/>
   <g id="imagebot_16" transform="matrix(0.8514851,0,0,0.8514851,3.178926,9.3041433)">
    <path fill="#445500" stroke="#222b00" stroke-width="2" stroke-miterlimit="4" stroke-dashoffset="0" d="M256.07144,232.18394C256.07126,237.60815 251.6739,242.00522 246.24968,242.00504C240.82545,242.00487 236.42841,237.60751 236.42857,232.18327C236.42876,226.75906 240.82611,222.36201 246.25034,222.36218C251.67456,222.36237 256.07162,226.7597 256.07144,232.18394" id="imagebot_19"/>
    <path fill="#222b00" d="M250.35715,232.18375C250.35709,234.45206 248.51819,236.29083 246.24986,236.29076C243.98157,236.29068 242.14279,234.45178 242.14287,232.18347C242.14294,229.91516 243.98183,228.07639 246.25015,228.07648C248.51846,228.07654 250.35722,229.91544 250.35715,232.18375" id="imagebot_18"/>
    <path fill="#cdde87" d="M 251.429 229.862 C 251.429 230.848 250.629 231.648 249.643 231.648 C 248.657 231.648 247.857 230.848 247.857 229.862 C 247.857 228.876 248.657 228.076 249.643 228.076 C 250.629 228.076 251.429 228.876 251.429 229.862" id="imagebot_17"/>
   </g>
   <g id="imagebot_12" transform="matrix(1.1485149,0,0,1.1485149,-31.21464,-31.268429)">
    <path fill="#445500" stroke="#222b00" stroke-width="2" stroke-miterlimit="4" stroke-dashoffset="0" d="M256.07144,232.18394C256.07126,237.60815 251.6739,242.00522 246.24968,242.00504C240.82545,242.00487 236.42841,237.60751 236.42857,232.18327C236.42876,226.75906 240.82611,222.36201 246.25034,222.36218C251.67456,222.36237 256.07162,226.7597 256.07144,232.18394" id="imagebot_15"/>
    <path fill="#222b00" d="M250.35715,232.18375C250.35709,234.45206 248.51819,236.29083 246.24986,236.29076C243.98157,236.29068 242.14279,234.45178 242.14287,232.18347C242.14294,229.91516 243.98183,228.07639 246.25015,228.07648C248.51846,228.07654 250.35722,229.91544 250.35715,232.18375" id="imagebot_14"/>
    <path fill="#cdde87" d="M 251.429 229.862 C 251.429 230.848 250.629 231.648 249.643 231.648 C 248.657 231.648 247.857 230.848 247.857 229.862 C 247.857 228.876 248.657 228.076 249.643 228.076 C 250.629 228.076 251.429 228.876 251.429 229.862" id="imagebot_13"/>
   </g>
   <path fill="none" stroke="#668000" stroke-width="2" stroke-miterlimit="4" d="M297.64261,435.76636C297.69,438.62311 298.2356,471.47574 298.2356,471.47574" id="imagebot_11"/>
   <path fill="none" stroke="#668000" stroke-width="2" stroke-miterlimit="4" d="M281.32303,445.49728L282.4523,470.48196L282.4523,470.48196L282.4523,470.48196" id="imagebot_10"/>
   <path fill="none" stroke="#668000" stroke-width="2" stroke-miterlimit="4" d="M265.64999,435.17566L266.26669,472.31339" id="imagebot_9"/>
   <path fill="none" stroke="#668000" stroke-width="2" stroke-miterlimit="4" d="M249.76834,441.69855L248.8262,471.00394" id="imagebot_8"/>
   <path fill="none" stroke="#668000" stroke-width="2" stroke-miterlimit="4" id="imagebot_7" d="M221.88116,434.7562C221.92856,437.61295 222.47414,470.46555 222.47414,470.46555"/>
   <path fill="none" stroke="#668000" stroke-width="2" stroke-miterlimit="4" id="imagebot_6" d="M205.56158,444.48712L206.69086,469.4718L206.69086,469.4718L206.69086,469.4718"/>
   <path fill="none" stroke="#668000" stroke-width="2" stroke-miterlimit="4" id="imagebot_5" d="M189.88853,434.1655L190.50522,471.30325"/>
   <path fill="none" stroke="#668000" stroke-width="2" stroke-miterlimit="4" id="imagebot_4" d="M174.0069,440.68842L173.06476,469.9938"/>
  </g>
  <title>Layer 1</title>
 </g>
</svg>