<?xml version="1.0" encoding="UTF-8" standalone="no"?>
<svg
   xmlns:dc="http://purl.org/dc/elements/1.1/"
   xmlns:cc="http://creativecommons.org/ns#"
   xmlns:rdf="http://www.w3.org/1999/02/22-rdf-syntax-ns#"
   xmlns:svg="http://www.w3.org/2000/svg"
   xmlns="http://www.w3.org/2000/svg"
   xmlns:sodipodi="http://sodipodi.sourceforge.net/DTD/sodipodi-0.dtd"
   xmlns:inkscape="http://www.inkscape.org/namespaces/inkscape"
   width="567.06738"
   height="505.72144"
   id="svg3145"
   version="1.1"
   inkscape:version="0.48.2 r9819"
   sodipodi:docname="plumber_1.svg"
   inkscape:export-filename="G:\QT\Tec\2012\Proyectos\LCI\KidsPrograming\V1.3\NiPro\svg\icons\set_0\plumber_1.png"
   inkscape:export-xdpi="90"
   inkscape:export-ydpi="90">
  <defs
     id="defs3303" />
  <sodipodi:namedview
     pagecolor="#ffffff"
     bordercolor="#666666"
     borderopacity="1"
     objecttolerance="10"
     gridtolerance="10"
     guidetolerance="10"
     inkscape:pageopacity="0"
     inkscape:pageshadow="2"
     inkscape:window-width="1280"
     inkscape:window-height="948"
     id="namedview3301"
     showgrid="false"
     fit-margin-top="0"
     fit-margin-left="0"
     fit-margin-right="0"
     fit-margin-bottom="0"
     inkscape:zoom="0.4627451"
     inkscape:cx="284.04017"
     inkscape:cy="254.63444"
     inkscape:window-x="-4"
     inkscape:window-y="-4"
     inkscape:window-maximized="1"
     inkscape:current-layer="svg3145" />
  <metadata
     id="imagebot_147">image/svg+xmlplumber2011-09-18tzunghaor (Prim András)openclipart.orgplumberplumbingpipewrenchhumanworkprofessiontradesmantradespersonjobcartoonman<rdf:RDF>
  <cc:Work
     rdf:about="">
    <dc:format>image/svg+xml</dc:format>
    <dc:type
       rdf:resource="http://purl.org/dc/dcmitype/StillImage" />
    <dc:title></dc:title>
  </cc:Work>
</rdf:RDF>
</metadata>
  <g
     display="inline"
     label="color"
     id="imagebot_113"
     style="display:inline"
     transform="translate(-3.4598328,-3.9129977)">
    <path
       transform="translate(-3.6323,-60.7185)"
       label="color"
       id="imagebot_146"
       d="M 521.216,522.42 C 533.688,498.256 553.175,431.999 546.16,417.189 539.144,402.378 90.9356,339.239 78.4637,336.901 65.9918,334.562 34.812,371.978 34.812,371.978 l 19.4874,10.133 -17.9284,-2.338 c 0,0 -5.4564,23.385 -5.4564,28.841 0,5.457 39.7541,14.031 39.7541,14.031 l -57.6825,-6.236 c 0,0 -7.79491,17.928 -5.45643,24.164 2.33848,6.236 -3.89747,20.267 14.03083,21.826 17.9284,1.559 396.7624,58.462 412.3524,63.139 15.589,4.677 85.744,22.605 90.421,17.928 4.677,-4.677 0,-15.589 0,-15.589 l -21.826,-7.795 18.708,2.338 z"
       inkscape:connector-curvature="0"
       style="fill:#a02c2c" />
    <path
       transform="translate(-3.6323,-60.7185)"
       label="color"
       d="m 546.939,386.788 c 12.472,-24.164 31.959,-90.421 24.944,-105.231 -7.016,-14.811 -455.224,-77.95 -467.696,-80.288 -12.472,-2.339 -43.6517,35.077 -43.6517,35.077 l 19.4873,10.133 -17.9283,-2.338 c 0,0 -5.4565,23.385 -5.4565,28.841 0,5.457 39.7542,14.031 39.7542,14.031 l -57.6825,-6.236 c 0,0 -7.7949,17.929 -5.4565,24.164 2.3385,6.236 -3.8974,20.267 14.0309,21.826 17.9284,1.559 396.7621,58.462 412.3521,63.139 15.59,4.677 85.744,22.606 90.421,17.929 4.677,-4.677 0,-15.59 0,-15.59 l -21.826,-7.795 18.708,2.338 z"
       id="imagebot_145"
       inkscape:connector-curvature="0"
       style="fill:#a02c2c" />
    <path
       transform="translate(-3.6323,-60.7185)"
       label="color"
       id="imagebot_144"
       d="M 58.7805,86.4629 C 46.6847,110.818 28.227,177.369 35.4712,192.069 c 7.2442,14.699 456.3778,70.882 468.8848,73.027 12.506,2.145 43.102,-35.75 43.102,-35.75 l -19.642,-9.83 17.963,2.06 c 0,0 5.093,-23.466 5.008,-28.922 -0.084,-5.456 -39.967,-13.413 -39.967,-13.413 l 57.773,5.341 c 0,0 7.516,-18.047 5.081,-24.246 -2.435,-6.199 3.583,-20.325 -14.368,-21.606 C 541.356,137.449 161.685,86.4265 146.025,81.9918 130.364,77.5571 59.9405,60.7185 55.3366,65.4674 c -4.6039,4.7489 0.2417,15.588 0.2417,15.588 l 21.944,7.4556 -18.7418,-2.0481 z"
       inkscape:connector-curvature="0"
       style="fill:#a02c2c" />
    <path
       transform="translate(-3.6323,-60.7185)"
       label="color"
       d="m 286.25,75.2813 c -3.038,0.0645 -5.581,0.0404 -8.875,1.6875 -1.6,0.8002 -11.157,3.2679 -19.906,5.2812 -4.375,1.0066 -8.74,2.0282 -12.563,3.1563 -3.823,1.128 -6.857,1.8605 -10.156,4.5 -4.666,3.7327 -6.701,8.5579 -8.156,12.4377 -1.455,3.879 -2.125,7.187 -2.125,7.187 a 7.1621,7.1621 0 0 0 0.531,4.438 c -1.581,3.117 -7.163,14.188 -13.656,29.25 -7.479,17.345 -15.313,36.9 -15.656,51.344 -0.255,10.678 0.669,26.632 2.875,42.218 1.517,10.723 3.498,20.913 6.5,29.5 -0.031,0.027 -0.095,0.036 -0.125,0.063 -1.4,1.218 -2.399,2.502 -3.375,3.875 -1.953,2.744 -3.675,5.937 -5.282,9.187 -3.213,6.501 -6.008,13.519 -6.656,15.032 0.697,-1.627 -0.775,0.494 -2.687,1.531 -1.262,0.684 -1.759,0.843 -2.438,1.125 -1.275,-1.977 -2.553,-3.987 -4.062,-5.781 -2.047,-2.433 -3.782,-5.076 -8.719,-6.063 2.003,0.401 -1.276,-0.847 -4.094,-3.25 -1.393,-1.187 -3.207,-2.839 -4.844,-4.312 0.134,-2.494 0.891,-16.861 2.219,-34.188 0.719,-9.384 1.556,-18.889 2.438,-26.187 0.44,-3.65 0.897,-6.785 1.312,-8.907 0.152,-0.779 0.258,-1.212 0.375,-1.656 0.791,-0.708 1.912,-1.342 4.219,-2.781 1.318,-0.822 2.996,-1.953 4.469,-3.938 1.472,-1.984 2.406,-4.843 2.406,-7.531 0,-4.898 -1.487,-9.047 -2.563,-13.156 -0.538,-2.055 -1.012,-3.986 -1.25,-5.344 -0.237,-1.358 0.072,-2.346 -0.312,-1 0.82,-2.872 0.925,-5.026 1.375,-9.125 0.45,-4.099 0.928,-9.192 1.312,-14.375 0.385,-5.183 0.683,-10.435 0.782,-14.906 0.098,-4.471 0.356,-7.361 -0.688,-11.188 -0.856,-3.139 -2.388,-4.509 -3.844,-5.906 -1.456,-1.397 -3.062,-2.637 -4.875,-3.875 -3.625,-2.476 -7.992,-4.917 -12.468,-7.156 -4.477,-2.24 -9.015,-4.243 -12.938,-5.719 -1.961,-0.738 -3.762,-1.3363 -5.437,-1.7812 -1.676,-0.445 -2.877,-0.9583 -5.594,-0.6563 0.794,-0.0882 -0.684,-0.0552 -2.375,-0.4375 -1.692,-0.3823 -3.887,-0.9962 -6.188,-1.6562 -4.601,-1.3202 -9.003,-2.933 -13.843,-3.1563 -1.449,-0.0668 -2.991,-0.1925 -5.375,1 -2.743,1.3711 -5.688,2.375 -5.688,2.375 a 7.1621,7.1621 0 0 0 -4.6562,5.0315 c -4.2426,16.687 -5.8284,28.987 -5.0313,38.656 0.6676,8.099 3.512,14.616 8.0313,19 -3.915,0.544 -6.9681,3.044 -8.6875,5.75 -1.931,3.038 -2.8125,6.541 -2.8125,10.281 0,3.74 0.8815,7.243 2.8125,10.282 1.9309,3.038 5.4864,5.968 10.1247,5.968 4.639,0 8.194,-2.93 10.125,-5.968 1.931,-3.039 2.813,-6.542 2.813,-10.282 0,-3.74 -0.882,-7.243 -2.813,-10.281 -0.117,-0.185 -0.308,-0.348 -0.437,-0.531 4.089,0.379 7.994,-0.345 11,-1.156 5.053,-1.364 8.768,-1.755 8.219,-1.938 0.02,0.007 2.883,2.341 4.5,5.469 1.433,2.773 1.615,5.706 1.843,5.75 -0.641,0.455 -1.944,1.11 -3.531,2 -1.604,0.899 -3.593,1.91 -5.562,4.344 -1.97,2.433 -2.971,7.183 -1.719,10.625 1.323,3.638 2.909,6.088 3.75,7.281 0.681,0.966 0.661,0.996 0.812,1.594 0.033,0.467 0.202,1.724 0.219,3 0.028,2.092 -0.011,4.966 -0.062,8.312 -0.103,6.692 -0.319,15.266 -0.594,23.719 -0.459,14.079 -0.859,23.528 -1.031,27.719 -0.53,-0.008 -1.03,-0.14 -1.563,-0.125 -5.588,0.149 -11.96,1.683 -16.312,6.906 -2.649,3.178 -3.957,6.643 -5.469,10.844 -1.513,4.2 -2.882,8.973 -4.094,13.75 -1.2123,4.776 -2.2601,9.534 -3,13.593 -0.7399,4.06 -1.2187,7.091 -1.2187,9.938 0,3.448 0.7562,6.553 1.7812,11.031 1.025,4.478 2.3855,9.687 3.8755,14.75 1.489,5.063 3.092,9.928 4.625,13.813 0.766,1.942 1.5,3.634 2.375,5.187 0.437,0.777 0.862,1.524 1.625,2.406 0.762,0.882 1.771,2.348 4.937,2.875 0.89,0.149 2.595,0.445 4.688,0.688 -0.33,3.06 -2.021,18.654 -4.094,38.062 -2.268,21.225 -4.54,42.731 -4.875,46.75 -0.209,2.503 0.848,5.782 2.781,7.657 1.933,1.874 3.984,2.506 5.688,2.843 3.407,0.676 6.298,0.308 9.25,-0.125 2.951,-0.433 5.836,-1.093 8.187,-1.656 2.351,-0.563 4.598,-1.089 4.438,-1.062 2.382,-0.398 3.681,-1.673 4.375,-2.469 0.693,-0.796 0.958,-1.372 1.187,-1.844 0.458,-0.944 0.637,-1.565 0.813,-2.219 0.351,-1.307 0.589,-2.636 0.843,-4.281 0.509,-3.29 1.003,-7.646 1.5,-12.844 0.995,-10.396 1.978,-24.077 2.875,-37.718 0.778,-11.825 0.832,-14.013 1.375,-23.594 0.047,-0.009 0.111,0.01 0.157,0 4.915,-1.135 9.424,-3.458 13.593,-5.688 4.17,-2.229 8.05,-4.476 9.719,-5.218 0.583,-0.26 2.675,-0.961 4.031,-1.407 0.213,0.23 0.4,0.397 0.625,0.594 0.023,0.364 0.077,0.675 0.063,0.938 -0.038,0.699 -0.001,1.226 0.031,1.781 0.064,1.11 0.186,2.316 0.375,3.781 0.377,2.93 0.98,6.799 1.75,11.375 1.54,9.153 3.726,21.09 5.969,33.094 2.243,12.003 4.554,24.065 6.281,33.375 0.863,4.654 1.564,8.633 2.062,11.531 0.223,1.292 0.409,2.289 0.532,3.094 -0.226,0.209 -0.185,0.145 -0.594,0.531 -0.954,0.901 -3.083,2.68 -3.375,6.469 -0.292,3.789 1.956,6.66 3.844,8.312 -0.286,-0.25 3.377,5.004 5.281,9.907 0.952,2.451 1.727,4.942 2.125,6.906 0.398,1.963 0.186,3.514 0.344,2.937 -0.077,0.28 -0.073,0.367 -0.031,0.407 0.003,0.002 -0.004,0.029 0,0.031 -0.024,-0.07 -0.045,-0.195 -0.719,0.281 -0.857,0.604 -2.815,2.135 -3.844,4.625 -0.896,2.167 -0.871,4.281 -0.594,6.281 -1.939,-0.7 -3.656,-1.219 -3.656,-1.219 a 7.1621,7.1621 0 0 0 -7.437,2.375 c -0.202,-0.077 -1.25,-0.5 -1.25,-0.5 a 7.1621,7.1621 0 0 0 -9.313,4.282 c -1.599,-0.204 -3.094,-0.313 -3.094,-0.313 a 7.1621,7.1621 0 0 0 -7.656,5.688 c -3.164,-0.224 -6.661,-0.446 -10.281,-0.625 -8.475,-0.421 -16.625,-0.688 -16.625,-0.688 a 7.1621,7.1621 0 0 0 -7.25,5.688 7.1621,7.1621 0 0 0 0,0.031 7.1621,7.1621 0 0 0 -1.781,5.594 c 0.447,3.805 0.197,8.759 0.593,13.843 0.198,2.543 0.557,5.167 1.657,7.907 1.099,2.739 3.226,5.689 6.375,7.406 5.157,2.813 11.217,3.684 18.031,4.281 6.813,0.597 13.78,0.602 19.687,-0.875 5.162,-1.29 11.365,-3.616 17.375,-5.469 6.01,-1.852 12.068,-2.855 13.563,-2.656 2.471,0.33 11.651,2.967 20,4.781 4.174,0.908 8.276,1.663 12.219,1.719 1.971,0.028 3.934,-0.082 6.093,-0.75 2.16,-0.668 4.836,-2.177 6.375,-5 2.226,-4.08 3.418,-8.349 3.625,-12.5 0.104,-2.075 0.059,-4.151 -0.968,-6.625 -0.17,-0.408 -0.485,-0.845 -0.782,-1.281 0.023,-0.215 0.125,-0.453 0.125,-0.656 0,-1.383 0.005,-5.238 -0.468,-9.407 -0.352,-3.09 -0.389,-6.356 -2.25,-9.718 1.235,0.306 2.456,0.454 3.593,0.312 1.615,-0.202 7.561,-0.637 13.094,-1.531 2.766,-0.447 5.465,-0.971 8.063,-1.875 1.298,-0.452 2.578,-0.974 3.968,-1.906 1.391,-0.933 3.213,-2.447 4.032,-5.313 0.133,-0.466 0.396,-1.678 0.562,-2.344 1.857,-0.778 3.205,-1.926 4.688,-3.062 2.479,-1.901 4.89,-4.222 7.156,-6.719 2.266,-2.496 4.364,-5.14 6.031,-7.75 1.57,-2.459 3.102,-4.415 3.281,-8.437 1.282,4.204 2.227,7.21 4.407,14.687 1.676,5.751 3.35,11.631 4.531,16.156 0.59,2.263 1.062,4.193 1.344,5.532 0.091,0.436 0.108,0.663 0.156,0.937 -0.036,-0.125 -0.537,1.818 -1.344,4.313 -0.918,2.838 -2.055,6.341 -3.031,9.75 -0.976,3.409 -1.84,6.511 -2.094,9.687 -0.113,1.406 -0.544,2.894 0.844,5.563 -0.229,0.89 -0.493,1.659 -0.656,2.687 -0.298,1.876 -0.982,3.881 0.687,7.469 0.261,0.56 0.849,1.135 1.344,1.719 -0.036,0.444 -0.111,0.744 -0.125,1.218 -0.049,1.668 -0.014,3.581 0.781,5.907 0.795,2.326 3.12,5.543 6.688,6.562 3.184,0.91 8.2,1.719 14.531,2.438 6.331,0.718 13.236,1.255 19.125,0.562 4.777,-0.562 13.395,-1.673 21.062,-3.187 3.834,-0.757 7.405,-1.577 10.469,-2.688 1.532,-0.555 2.936,-1.107 4.531,-2.25 0.798,-0.571 1.675,-1.308 2.532,-2.625 0.856,-1.317 1.586,-3.487 1.281,-5.625 -0.058,-0.406 -0.024,-4.343 -0.469,-8.125 -0.222,-1.891 -0.452,-3.891 -1.875,-6.375 -1.002,-1.75 -3.495,-3.619 -6.156,-4.437 -0.971,-1.507 -2.062,-2.847 -3.406,-4.063 -2.81,-2.541 -6.559,-4.992 -11.594,-5.125 0.061,-0.352 0.181,-0.738 0.219,-1.062 0.36,-3.094 -0.109,-5.678 -0.719,-8.438 -1.22,-5.519 -3.009,-10.81 -5.781,-14.969 0.346,0.52 -1.84,-3.734 -3.782,-8.406 -1.941,-4.672 -4.269,-10.545 -6.531,-16.344 -2.262,-5.798 -4.45,-11.511 -6.156,-15.937 -0.854,-2.213 -1.596,-4.104 -2.156,-5.531 -0.079,-0.199 -0.126,-0.274 -0.188,-0.438 1.158,-0.632 2.677,-1.29 3.719,-1.906 0.491,-0.291 0.82,-0.59 1.281,-0.875 0.435,0.42 0.856,0.846 1.469,1.25 1.675,1.104 4.617,1.88 7.156,1.187 3.033,-0.827 15.298,-4.16 27.094,-8.187 5.897,-2.014 11.666,-4.195 16.375,-6.469 2.354,-1.137 4.45,-2.244 6.344,-3.656 1.893,-1.412 4.246,-2.916 4.968,-7.25 0.438,-2.626 0.71,-6.739 0.875,-11.438 0.275,-0.078 0.649,-0.138 0.875,-0.218 0.941,-0.333 1.674,-0.698 2.532,-1.125 1.714,-0.855 3.75,-2.001 6.093,-3.375 4.686,-2.75 10.617,-6.427 16.688,-10.219 6.07,-3.792 12.267,-7.688 17.281,-10.719 5.014,-3.03 9.946,-5.471 9.281,-5.25 3.184,-1.061 6.011,-3.425 7.407,-6.219 1.395,-2.793 1.529,-5.665 1.125,-8.093 -0.405,-2.429 -1.301,-4.56 -2.813,-6.5 -0.226,-0.291 -0.636,-0.549 -0.906,-0.844 0.067,-0.018 0.352,-0.146 0.406,-0.156 2.123,-0.425 3.04,0.054 5.781,0.875 1.371,0.41 4.188,1.712 8.094,-0.594 1.953,-1.153 3.161,-3.045 3.719,-4.5 0.558,-1.455 0.71,-2.654 0.812,-3.875 0.261,-3.124 -1.052,-6.304 -2.812,-8.313 -1.76,-2.008 -3.765,-3.192 -5.813,-4.062 -4.096,-1.741 -8.562,-2.316 -13.093,-2.219 -4.144,0.089 -8.29,0.758 -12.157,2.563 -7.968,3.718 -37.083,16.602 -40.562,18.093 -3,1.286 -7.926,3.543 -11.625,5.219 -2.188,-4.458 -3.802,-7.708 -6.375,-12.812 -2.195,-4.354 -4.39,-8.43 -6.438,-11.907 2.813,-2.992 2.462,-5.506 2.407,-7.375 -0.058,-1.929 -0.376,-3.695 -0.813,-5.625 -0.874,-3.859 -2.281,-8.244 -3.844,-12.656 -3.126,-8.823 -6.94,-17.881 -7.937,-20.375 -1.517,-3.793 -4.916,-10.322 -9.219,-16.844 -2.152,-3.26 -4.481,-6.418 -7.062,-9.062 -0.856,-0.877 -1.867,-1.674 -2.844,-2.5 2.999,-2.206 5.544,-4.736 7.281,-8.094 -0.928,1.794 1.346,-1.176 4.594,-3.437 3.248,-2.262 7.524,-4.98 11.687,-7.875 4.163,-2.896 8.214,-5.881 11.438,-9.407 1.612,-1.762 3.089,-3.673 4.062,-6.25 0.973,-2.576 1.175,-6.244 -0.343,-9.281 -2.309,-4.617 -5.423,-8.473 -9.75,-10.437 2.137,-3.349 4.602,-7.333 7.156,-11.438 2.716,-4.366 5.462,-8.765 7.75,-12.219 1.973,-2.978 3.528,-4.776 3.625,-5.031 0.345,0.07 0.467,0.076 1.25,0.25 0.657,0.146 1.435,0.421 3.187,0.313 0.876,-0.055 2.099,-0.228 3.5,-1.032 1.402,-0.804 2.73,-2.376 3.313,-3.843 1.165,-2.935 0.504,-4.569 0.156,-5.813 -0.348,-1.244 -0.772,-2.275 -1.344,-3.5 -0.215,-0.462 -0.284,-0.556 -0.5,-1 0.644,0.173 1.158,0.334 1.813,0.5 2.908,0.737 5.786,1.41 8.812,1.563 1.514,0.076 3.07,0.087 5.063,-0.532 1.993,-0.618 4.86,-2.512 5.969,-5.468 1.635,-4.361 -0.37,-7.124 -1.532,-8.782 -1.161,-1.657 -2.423,-2.898 -3.875,-4.218 -2.903,-2.641 -6.546,-5.384 -10.343,-8.125 -3.798,-2.742 -7.725,-5.457 -10.938,-7.782 -3.213,-2.324 -5.944,-4.611 -6.125,-4.812 -2.536,-2.818 -9.624,-10.622 -17.281,-18.063 -3.829,-3.72 -7.798,-7.362 -11.531,-10.312 -3.734,-2.95 -6.612,-5.4286 -11.5,-6.4063 -2.664,-0.5327 -9.881,-3.2058 -16.407,-6.0313 -6.525,-2.8255 -12.852,-5.8324 -15.437,-7.125 -2.749,-1.3743 -5.217,-1.9188 -9.125,-2.9062 -3.909,-0.9875 -8.701,-2.0519 -13.813,-3.0313 -10.223,-1.9589 -21.388,-3.6444 -29.656,-3.4687 l 0,1e-4 z M 242.469,286.344 c 0.035,0.011 0.175,0.168 0.219,0.187 -0.092,-0.016 -0.357,-0.051 -0.407,-0.062 -0.115,-0.026 -0.092,-0.212 0.188,-0.125 z m 15.469,137.594 c 7.877,0.033 15.842,0.279 21.937,0.656 0.553,0.034 0.823,0.088 1.344,0.125 -0.57,0.511 -1.16,0.982 -1.938,2.344 -0.489,0.856 -1.9,2.462 -2.937,3.125 -1.037,0.662 -0.835,0.424 -0.594,0.531 -4.815,-2.14 -21.362,-8.99 -38.75,2.156 -1.803,1.156 -3.31,2.489 -4.844,3.813 -0.125,-1.675 -0.257,-2.028 -0.312,-3.688 -0.099,-2.981 -0.124,-5.883 -0.031,-8.125 1.366,-0.158 2.656,-0.314 4.656,-0.437 5.77,-0.357 13.591,-0.534 21.469,-0.5 z m -28.25,1.125 c -0.622,0.371 -0.99,0.205 -1.032,0.218 -0.073,0.024 0.387,-0.109 1.032,-0.218 z M 388.5,545.25 c 0.01,0.01 -0.115,0.198 -0.187,0.281 0.063,-0.093 0.12,-0.173 0.187,-0.281 z"
       id="imagebot_143"
       inkscape:connector-curvature="0"
       style="fill:#ffffff" />
    <path
       transform="translate(-3.6323,-60.7185)"
       label="color"
       id="imagebot_142"
       d="m 232.594,114.781 c 0,0 -29.199,56.788 -29.75,79.938 -0.551,23.15 4.947,76.604 17.625,83.219 12.677,6.614 11.566,14.892 39.125,12.687 27.559,-2.205 98.138,-17.652 106.406,-33.637 3.223,-6.231 35.804,-20.94 31.394,-29.758 -4.409,-8.819 -8.814,-9.35 -17.081,-6.042 -8.268,3.307 -7.724,28.664 -17.094,27.562 -9.37,-1.102 -2.19,-18.752 -3.844,-26.469 -1.654,-7.716 11.017,-1.666 14.875,-14.343 3.858,-12.678 8.288,-43.531 -0.531,-55.657 -8.819,-12.126 -64.516,-39.148 -74.438,-34.187 -9.921,4.96 -66.687,-3.313 -66.687,-3.313 z"
       inkscape:connector-curvature="0"
       style="fill:#ffe6d5" />
    <path
       transform="translate(-3.6323,-60.7185)"
       label="color"
       id="imagebot_141"
       d="m 230.406,182.031 c 0,0 18.727,1.117 23.688,2.219 4.96,1.102 -0.537,15.42 -3.844,17.625 -3.307,2.205 -17.642,2.213 -21.5,-1.094 -3.858,-3.307 0.003,-7.175 1.656,-18.75 z"
       inkscape:connector-curvature="0"
       style="fill:#ffffff" />
    <path
       transform="translate(-3.6323,-60.7185)"
       label="color"
       id="imagebot_140"
       d="m 278.344,184.25 c 0,0 12.687,4.4 18.75,7.156 6.063,2.756 3.312,19.282 3.312,19.282 l -25.906,-3.844 3.844,-22.594 z"
       inkscape:connector-curvature="0"
       style="fill:#ffffff" />
    <path
       transform="translate(-3.6323,-60.7185)"
       label="color"
       id="imagebot_139"
       d="m 231.498,110.938 c 21.496,15.433 22.047,19.292 33.071,19.843 11.023,0.551 42.992,-6.063 55.669,-6.063 12.678,0 44.095,14.882 48.505,23.15 4.409,8.267 12.677,54.567 7.165,61.181 -5.512,6.614 -23.15,12.677 -22.047,18.74 1.102,6.063 -8.819,17.087 -3.307,18.19 5.512,1.102 13.228,4.409 15.433,-1.654 2.205,-6.063 14.331,-25.355 17.087,-27.559 2.755,-2.205 20.945,-34.174 25.354,-38.032 4.41,-3.858 11.575,3.858 7.717,-4.41 -3.859,-8.267 -8.268,-13.779 -3.859,-13.779 4.41,0 23.15,7.716 24.804,3.307 1.653,-4.41 -26.457,-20.945 -31.418,-26.457 -4.96,-5.512 -28.11,-30.866 -36.378,-32.52 -8.268,-1.653 -28.11,-11.0236 -33.622,-13.7795 -5.512,-2.7559 -47.402,-11.5749 -55.119,-7.7166 -7.716,3.8583 -35.827,7.7166 -41.339,12.1261 -5.512,4.4095 -7.716,15.433 -7.716,15.433 z"
       inkscape:connector-curvature="0"
       style="fill:#784421" />
    <path
       transform="translate(-3.6323,-60.7185)"
       label="color"
       id="imagebot_138"
       d="m 282.207,156.135 c -6.615,1.654 -7.717,12.678 -1.103,12.126 6.615,-0.551 15.985,-0.551 18.189,0.552 2.205,1.102 7.717,12.677 10.473,8.267 2.756,-4.409 1.654,-12.677 -5.512,-16.535 -7.165,-3.858 -17.559,-5.532 -22.047,-4.41 z"
       inkscape:connector-curvature="0"
       style="fill:#784421" />
    <path
       transform="translate(-3.6323,-60.7185)"
       label="color"
       id="imagebot_137"
       d="m 225.435,159.442 c 1.653,5.512 0.551,11.024 5.512,8.819 4.96,-2.204 22.598,1.103 23.149,-2.756 0.551,-3.858 -1.653,-10.472 -7.165,-10.472 -5.512,0 -22.492,1.089 -21.496,4.409 z"
       inkscape:connector-curvature="0"
       style="fill:#784421" />
    <path
       transform="translate(-3.6323,-60.7185)"
       label="color"
       id="imagebot_136"
       d="m 185.749,304.404 c 4.41,7.166 8.819,46.3 6.063,47.953 -2.756,1.654 -8.819,6.614 -1.653,4.41 7.165,-2.205 27.008,-27.008 28.11,-35.276 1.103,-8.268 2.205,-27.008 3.859,-32.52 1.653,-5.512 -5.512,-18.189 -10.473,-18.189 -4.961,0 -13.78,22.598 -15.433,26.457 -1.654,3.858 -10.473,7.165 -10.473,7.165 z"
       inkscape:connector-curvature="0"
       style="fill:#ff9955" />
    <path
       transform="translate(-3.6323,-60.7185)"
       label="color"
       id="imagebot_135"
       d="m 235.907,284.561 c -1.102,2.205 -12.126,37.481 -8.268,39.686 3.859,2.205 38.032,8.268 38.583,4.409 0.552,-3.858 9.371,-38.031 4.961,-36.378 -4.409,1.654 -29.764,2.756 -31.969,0.551 -2.204,-2.204 -3.307,-8.268 -3.307,-8.268 z"
       inkscape:connector-curvature="0"
       style="fill:#ff9955" />
    <path
       transform="translate(-3.6323,-60.7185)"
       label="color"
       id="imagebot_134"
       d="m 286.065,291.176 c -2.756,13.228 -8.268,36.378 -4.409,40.787 3.858,4.41 39.685,38.583 47.401,40.788 7.717,2.205 11.024,-15.433 10.473,-18.189 -0.551,-2.756 -4.409,-9.37 1.654,-12.677 6.063,-3.307 44.094,-8.268 44.094,-8.268 0,0 0.552,7.716 3.859,4.409 3.307,-3.307 -9.371,-33.071 -11.575,-38.583 -2.205,-5.511 -13.78,-27.008 -20.394,-27.008 -6.614,0 -33.071,8.819 -37.481,10.473 -4.409,1.653 -33.622,8.268 -33.622,8.268 z"
       inkscape:connector-curvature="0"
       style="fill:#ff9955" />
    <path
       transform="translate(-3.6323,-60.7185)"
       label="color"
       id="imagebot_133"
       d="m 185.198,312.672 c 0,0 -9.37,-19.292 -14.882,-20.394 -5.512,-1.102 -20.394,-18.74 -28.661,-21.496 -8.268,-2.756 -20.945,-4.961 -26.457,1.653 -5.512,6.615 -12.126,36.93 -12.126,43.544 0,6.614 9.921,42.441 13.228,42.992 3.307,0.552 17.087,2.756 20.945,-1.653 3.858,-4.41 2.756,-11.024 0,-14.331 -2.756,-3.307 6.063,-2.756 6.614,-8.819 0.551,-6.063 -11.575,-13.78 -6.614,-17.087 4.961,-3.307 11.575,2.756 10.473,-4.409 -1.103,-7.166 -4.41,-14.882 -1.103,-18.189 3.307,-3.307 15.985,0 13.78,5.512 -2.205,5.511 -15.985,24.803 -10.473,32.52 5.512,7.716 -4.409,36.378 2.756,34.724 7.166,-1.653 17.087,-8.268 22.048,-10.472 4.96,-2.205 16.535,-4.41 15.984,-8.268 -0.551,-3.858 -5.512,-35.827 -5.512,-35.827 z"
       inkscape:connector-curvature="0"
       style="fill:#ffe6d5" />
    <path
       transform="translate(-3.6323,-60.7185)"
       label="color"
       id="imagebot_132"
       d="m 342.837,348.499 c -1.102,2.205 -20.394,53.465 -15.984,57.323 4.409,3.858 18.189,-2.756 19.842,1.103 1.654,3.858 6.615,41.89 12.678,40.236 6.063,-1.654 48.504,-13.228 49.606,-19.843 1.103,-6.614 2.205,-36.929 -2.756,-45.748 -4.96,-8.819 -18.74,-40.237 -23.149,-41.89 -4.41,-1.654 -40.237,8.819 -40.237,8.819 z"
       inkscape:connector-curvature="0"
       style="fill:#ffe6d5" />
    <path
       transform="translate(-3.6323,-60.7185)"
       label="color"
       id="imagebot_131"
       d="m 102.52,103.222 c -8.2674,32.52 -5.5114,46.85 2.756,52.362 8.268,5.512 19.292,-3.307 25.906,-1.102 6.614,2.205 12.677,14.882 11.024,20.394 -1.654,5.511 -13.229,6.063 -11.024,12.126 2.205,6.063 3.858,5.512 4.961,9.921 1.102,4.41 -1.654,70.001 -1.654,70.001 l 20.945,13.228 c 0,0 3.858,-73.308 7.717,-77.717 3.858,-4.41 9.921,-4.41 9.921,-9.921 0,-5.512 -4.961,-17.638 -3.858,-21.497 1.102,-3.858 4.409,-39.685 2.756,-45.748 -1.654,-6.063 -32.52,-20.394 -37.481,-19.843 -4.961,0.552 -22.047,-6.6139 -25.354,-4.96 -3.307,1.653 -6.615,2.756 -6.615,2.756 l 0,0 z"
       inkscape:connector-curvature="0"
       style="fill:#cccccc" />
    <path
       transform="translate(-3.6323,-60.7185)"
       label="color"
       id="imagebot_130"
       d="m 148.82,342.987 c 0,0 -5.512,108.583 -8.819,109.135 -3.307,0.551 -22.599,6.614 -22.047,0 0.551,-6.615 9.37,-88.19 9.37,-88.19 0,0 14.331,-5.512 15.984,-8.819 1.654,-3.307 5.512,-12.126 5.512,-12.126 z"
       inkscape:connector-curvature="0"
       style="fill:#cccccc" />
    <path
       transform="translate(-3.6323,-60.7185)"
       label="color"
       id="imagebot_129"
       d="m 103.072,120.308 21.496,10.473 c 0,0 -4.41,-17.087 -9.922,-19.292 -5.511,-2.204 -11.574,8.819 -11.574,8.819 z"
       inkscape:connector-curvature="0"
       style="fill:#4d4d4d" />
    <path
       label="color"
       transform="matrix(0.84,0,0,1,12.83711,-60.7185)"
       d="m 106.379,175.151 c 0,5.023 -3.085,9.095 -6.8901,9.095 -3.8051,0 -6.8898,-4.072 -6.8898,-9.095 0,-5.023 3.0847,-9.094 6.8898,-9.094 3.8051,0 6.8901,4.071 6.8901,9.094 z"
       id="imagebot_128"
       inkscape:connector-curvature="0"
       style="fill:#aaeeff" />
    <path
       transform="translate(-3.6323,-60.7185)"
       label="color"
       id="imagebot_127"
       d="m 225.438,280.719 c 0,0 -1.724,7.51 -3.563,16.094 -4.115,0.197 -7.75,0.437 -7.75,0.437 0,0 -1.918,15.707 -2.469,18.188 -0.224,1.011 2.621,1.432 6.313,1.625 -0.089,0.605 -0.191,1.185 -0.25,1.687 -1.103,9.37 -26.472,42.42 -28.125,44.625 -1.654,2.205 17.094,94.809 17.094,99.219 0,4.409 -7.16,4.954 -2.75,8.812 4.409,3.859 11.591,20.937 9.937,27 -1.654,6.063 -6.071,3.312 -4.969,9.375 1.103,6.063 -2.196,14.335 4.969,15.438 7.165,1.102 36.375,12.131 36.375,9.375 0,-2.756 -0.005,-14.318 -3.312,-17.625 -3.308,-3.307 -6.063,-13.25 -6.063,-13.25 0,0 -13.221,-17.622 -14.875,-22.031 -1.654,-4.41 1.102,-27.029 0,-31.438 -1.102,-4.409 -2.216,-25.88 -0.562,-29.187 1.653,-3.308 62.829,-2.756 66.687,0 3.858,2.755 5.514,4.394 7.719,3.843 2.204,-0.551 28.122,-4.957 26.469,-10.468 -1.654,-5.512 3.846,-22.602 5.5,-27.563 1.653,-4.961 1.668,-6.053 -9.907,-13.219 -11.575,-7.165 -46.852,-36.925 -45.75,-42.437 0.28,-1.401 0.959,-4.266 1.813,-7.781 1.872,0.053 3.342,-0.155 3.969,-0.782 2.48,-2.48 7.423,-17.366 5.218,-18.468 -0.548,-0.275 -2.429,-0.513 -4.968,-0.719 0.707,-4.768 0.915,-8.69 0.031,-10.281 -1.561,-2.81 -11.776,-1.53 -14.344,2.75 -0.735,1.224 -1.189,3.701 -1.5,6.781 -3.032,-0.098 -5.375,-0.188 -5.375,-0.188 0,0 -3.032,17.387 0,17.938 0.792,0.144 2.435,0.517 4.469,0.969 -0.267,6.106 -0.711,11.007 -2,11.437 -3.307,1.102 -31.983,-1.116 -34.188,-2.219 -0.877,-0.438 -1.05,-5.459 -0.844,-11.5 1.94,-0.036 3.74,-0.062 4.719,-0.062 4.41,0 3.585,-7.173 4.688,-11.031 1.102,-3.859 -0.284,-7.992 -1.938,-9.094 -0.497,-0.332 -2.741,-0.45 -5.531,-0.438 0.192,-0.953 0.378,-1.693 0.562,-2.062 1.654,-3.307 7.174,-7.148 4.969,-8.25 -2.205,-1.103 -10.469,-5.5 -10.469,-5.5 l 10e-4,0 z"
       inkscape:connector-curvature="0"
       style="fill:#2c5aa0" />
    <path
       transform="translate(-3.6323,-60.7185)"
       label="color"
       id="imagebot_126"
       d="m 313.624,464.799 c 0,0 13.78,44.646 13.229,47.953 -0.551,3.307 -10.473,29.213 -4.961,25.906 5.512,-3.307 36.929,-13.229 41.89,-12.678 4.961,0.552 0,-15.984 -3.307,-20.945 -3.307,-4.96 -19.291,-47.953 -20.394,-50.157 -1.102,-2.205 -26.457,9.921 -26.457,9.921 z"
       inkscape:connector-curvature="0"
       style="fill:#2c5aa0" />
    <path
       transform="translate(-3.6323,-60.7185)"
       label="color"
       id="imagebot_125"
       d="m 345.593,407.476 c -4.961,1.102 -57.874,19.291 -60.079,23.149 -2.205,3.859 -7.717,8.819 -12.677,6.615 -4.961,-2.205 -17.171,-7.833 -31.969,1.653 -21.496,13.78 -18.189,41.339 -9.37,47.953 8.819,6.615 17.086,19.843 20.394,18.189 3.307,-1.653 3.858,-28.661 3.858,-33.622 0,-4.96 6.614,-10.472 12.677,-11.575 6.063,-1.102 13.229,3.859 13.229,3.859 0,0 -3.308,30.866 1.653,30.866 4.961,0 18.74,-15.433 18.74,-20.394 0,-4.961 0.552,-8.819 4.41,-9.37 3.858,-0.551 48.504,-19.292 47.953,-24.252 -0.551,-4.961 -8.819,-33.071 -8.819,-33.071 z"
       inkscape:connector-curvature="0"
       style="fill:#c83737" />
    <path
       transform="translate(-3.6323,-60.7185)"
       label="color"
       id="imagebot_124"
       d="m 405.672,376.058 4.41,12.126 c 0,0 25.905,-12.677 30.315,-14.331 4.409,-1.653 24.803,-14.882 33.071,-16.535 8.268,-1.654 12.126,4.961 12.677,-1.654 0.551,-6.614 -15.433,-8.819 -23.701,-4.96 -8.268,3.858 -36.929,16.535 -40.787,18.189 -3.859,1.653 -15.985,7.165 -15.985,7.165 z"
       inkscape:connector-curvature="0"
       style="fill:#c83737" />
    <path
       transform="translate(-3.6323,-60.7185)"
       label="color"
       id="imagebot_123"
       d="m 411.735,395.35 c 2.205,-0.552 52.363,-27.008 55.67,-27.008 3.307,0 6.614,8.819 0,11.023 -6.614,2.205 -50.709,31.969 -52.914,30.867 -2.205,-1.103 -2.756,-14.882 -2.756,-14.882 z"
       inkscape:connector-curvature="0"
       style="fill:#c83737" />
    <path
       transform="translate(-3.6323,-60.7185)"
       label="color"
       id="imagebot_122"
       d="m 262.364,465.35 c -5.512,2.205 -8.268,28.662 -8.819,32.52 -0.551,3.858 -0.551,9.37 3.858,8.819 4.41,-0.551 22.048,-1.654 23.15,-5.512 1.103,-3.858 7.717,-31.417 1.654,-33.071 -6.063,-1.653 -11.575,-7.717 -14.331,-4.961 -2.756,2.756 1.102,17.638 -0.551,20.945 -1.654,3.308 -3.859,9.371 -4.41,4.961 -0.551,-4.409 -0.551,-23.701 -0.551,-23.701 z"
       inkscape:connector-curvature="0"
       style="fill:#cccccc" />
    <path
       transform="translate(-3.6323,-60.7185)"
       label="color"
       d="m 302.601,456.256 c 0,2.891 -1.975,5.236 -4.41,5.236 -2.435,0 -4.409,-2.345 -4.409,-5.236 0,-2.892 1.974,-5.237 4.409,-5.237 2.435,0 4.41,2.345 4.41,5.237 z"
       id="imagebot_121"
       inkscape:connector-curvature="0"
       style="fill:#cccccc" />
    <path
       transform="translate(-3.6323,-60.7185)"
       label="color"
       id="imagebot_120"
       d="m 140.552,527.634 c 1.103,9.37 -1.102,20.394 4.961,23.701 6.063,3.307 23.701,4.961 32.52,2.756 8.819,-2.205 25.354,-9.37 33.622,-8.268 8.268,1.103 34.174,10.473 37.481,4.41 3.307,-6.063 3.858,-14.331 0.551,-14.331 -3.307,0 -46.851,-0.551 -54.567,1.653 -7.717,2.205 -43.544,1.103 -47.954,-2.204 -4.409,-3.307 -6.614,-7.717 -6.614,-7.717 z"
       inkscape:connector-curvature="0"
       style="fill:#cccccc" />
    <path
       transform="translate(-3.6323,-60.7185)"
       label="color"
       id="imagebot_119"
       d="m 322.994,550.233 c 0,0 -2.204,8.819 1.654,9.921 3.858,1.102 21.496,3.858 30.866,2.756 9.37,-1.103 34.174,-4.41 33.623,-8.268 -0.552,-3.858 0.551,-13.78 -3.859,-13.228 -4.409,0.551 -23.149,-2.756 -28.661,-2.205 -5.512,0.551 -14.882,2.205 -20.394,4.961 -5.512,2.755 -13.229,6.063 -13.229,6.063 z"
       inkscape:connector-curvature="0"
       style="fill:#cccccc" />
    <path
       transform="translate(-3.6323,-60.7185)"
       label="color"
       id="imagebot_118"
       d="m 176.379,519.917 c 0,0 3.859,12.678 7.717,12.678 3.858,0 4.96,-8.819 1.653,-10.473 -3.307,-1.653 -9.37,-2.205 -9.37,-2.205 z"
       inkscape:connector-curvature="0"
       style="fill:#cccccc" />
    <path
       transform="translate(-3.6323,-60.7185)"
       label="color"
       id="imagebot_117"
       d="m 186.852,515.508 c 2.204,2.756 6.614,13.228 8.819,13.228 2.204,0 3.858,-8.267 1.102,-9.37 -2.756,-1.102 -9.921,-3.858 -9.921,-3.858 z"
       inkscape:connector-curvature="0"
       style="fill:#cccccc" />
    <path
       transform="translate(-3.6323,-60.7185)"
       label="color"
       id="imagebot_116"
       d="m 196.222,513.854 c 2.205,1.654 1.653,12.678 6.063,12.678 4.409,0 5.512,-6.615 2.756,-8.819 -2.756,-2.205 -8.819,-3.859 -8.819,-3.859 z"
       inkscape:connector-curvature="0"
       style="fill:#cccccc" />
    <path
       transform="translate(-3.6323,-60.7185)"
       label="color"
       id="imagebot_115"
       d="m 142.206,524.327 c 0,0 14.331,12.126 23.701,13.228 9.37,1.103 60.079,-3.858 65.591,-3.858 5.512,0 18.74,1.102 15.984,0 -2.756,-1.102 -24.803,-3.307 -31.417,-5.512 -6.615,-2.205 -19.843,3.859 -24.804,3.859 -4.96,0 -12.126,-4.41 -14.331,-5.512 -2.204,-1.103 -34.724,-2.205 -34.724,-2.205 z"
       inkscape:connector-curvature="0"
       style="fill:#c83737" />
    <path
       transform="translate(-3.6323,-60.7185)"
       label="color"
       id="imagebot_114"
       d="m 321.892,539.76 c 0,0 -4.409,11.575 1.102,9.37 5.512,-2.204 23.15,-13.228 27.56,-12.677 4.409,0.551 30.866,7.165 31.968,4.961 1.103,-2.205 -5.511,-9.37 -11.023,-8.819 -5.512,0.551 -19.292,-0.551 -25.355,1.102 -6.063,1.654 -24.252,6.063 -24.252,6.063 z"
       inkscape:connector-curvature="0"
       style="fill:#c83737" />
    <title
       id="title3184">color</title>
  </g>
  <g
     display="inline"
     label="shade_highlight"
     id="imagebot_91"
     style="display:inline"
     transform="translate(-3.4598328,-3.9129977)">
    <path
       transform="translate(-3.6323,-60.7185)"
       label="shade_highlight"
       id="imagebot_112"
       d="m 131.182,269.128 -2.756,17.087 -3.307,7.717 c 0,0 -0.551,63.386 1.654,63.937 2.204,0.551 15.433,2.205 15.433,2.205 l -11.024,89.843 8.819,0 7.165,-88.19 c 0,0 9.371,2.205 13.78,-1.653 4.41,-3.858 24.803,-12.677 24.803,-12.677 l -1.102,-34.725 -25.906,-14.882 1.654,-97.56 c 0,0 12.126,-1.653 12.677,-5.512 0.551,-3.858 -3.858,-18.189 -3.858,-18.189 0,0 7.165,-39.685 1.653,-45.748 -5.511,-6.063 -11.599,-20.911 -19.291,-17.087 -8.58,4.266 12.288,20.256 2.205,28.662 -7.813,6.513 -23.15,-1.654 -27.008,1.653 -3.859,3.307 -15.985,15.985 -11.575,14.882 4.409,-1.102 21.496,-1.102 27.008,4.41 5.512,5.512 2.756,20.945 2.756,20.945 0,0 5.512,12.677 0.551,13.228 -4.961,0.551 -5.512,6.614 -5.512,6.614 l 8.268,4.961 c 0,0 -2.756,58.426 -5.512,58.977 -2.756,0.551 -11.575,1.102 -11.575,1.102 z"
       inkscape:connector-curvature="0"
       style="opacity:0.15;fill:#214478" />
    <path
       transform="translate(-3.6323,-60.7185)"
       label="shade_highlight"
       id="imagebot_111"
       d="m 309.781,111.5 c 0,6.614 -3.858,17.642 0,21.5 3.859,3.858 4.946,36.9 3.844,39.656 -1.102,2.756 -33.63,-8.796 -36.937,-4.937 -3.308,3.858 -13.227,40.764 -18.188,42.969 -4.961,2.204 8.813,7.187 8.813,7.187 0,0 17.099,8.247 14.343,6.594 -2.756,-1.654 -10.463,-28.111 -7.156,-31.969 3.307,-3.858 4.96,-13.227 12.125,-12.125 7.165,1.102 22.031,8.821 22.031,13.781 0,4.961 14.878,37.486 10.469,41.344 -4.409,3.858 -30.313,-8.27 -24.25,-1.656 6.063,6.614 16.549,32.519 8.281,38.031 -7.274,4.849 -17.521,13.973 -12,15.344 -17.318,2.377 -53.12,0.739 -58.875,-0.656 2.253,1.064 30.892,14.565 37.25,15.625 6.001,1 49.637,-8.437 70.032,-16.782 11.113,12.802 37.001,43.207 37.437,49.313 0.551,7.716 13.787,73.872 11.031,78.281 -2.756,4.409 -36.364,31.969 -29.75,31.969 6.614,0 39.665,-13.796 44.625,-16 4.961,-2.205 6.083,-24.25 5.532,-30.313 -0.552,-6.063 -24.808,-56.769 -21.5,-62.281 3.307,-5.512 -19.307,-48.502 -22.063,-56.219 -2.756,-7.716 -3.287,-31.971 -0.531,-33.625 2.756,-1.653 21.485,1.103 25.344,-6.062 3.858,-7.166 -2.75,-19.832 -2.75,-25.344 0,-5.512 19.297,-29.787 23.156,-33.094 3.858,-3.307 -0.566,-18.721 3.844,-20.375 4.409,-1.653 19.304,-2.204 8.281,-6.062 -11.024,-3.859 -36.377,-28.119 -44.094,-30.875 -7.717,-2.756 -3.329,-9.938 -7.187,-9.938 -3.859,0 -61.157,-3.281 -61.157,-3.281 z M 231.5,286.219 c 0.016,0.098 0.254,0.178 0.625,0.281 -0.059,-0.028 -0.625,-0.281 -0.625,-0.281 z"
       inkscape:connector-curvature="0"
       style="opacity:0.15;fill:#214478" />
    <path
       transform="translate(-3.6323,-60.7185)"
       label="shade_highlight"
       id="imagebot_110"
       d="m 226.537,211.805 c 0,0 31.418,6.614 35.827,7.717 4.41,1.102 24.252,5.511 18.74,6.614 -5.512,1.102 -35.275,7.165 -39.134,6.063 -3.858,-1.103 -18.189,-20.945 -18.189,-20.945 l 2.756,0.551 z"
       inkscape:connector-curvature="0"
       style="opacity:0.15;fill:#214478" />
    <path
       transform="translate(-3.6323,-60.7185)"
       label="shade_highlight"
       id="imagebot_109"
       d="m 224.883,169.915 c -3.214,4.312 -8.328,13.659 -1.653,15.984 5.894,2.054 7.165,-7.165 14.882,-7.716 7.717,-0.551 19.843,7.716 20.394,2.204 0.551,-5.511 -8.819,-14.882 -15.985,-13.779 -7.165,1.102 -13.305,-2.506 -17.638,3.307 z"
       inkscape:connector-curvature="0"
       style="opacity:0.15;fill:#214478" />
    <path
       transform="translate(-3.6323,-60.7185)"
       label="shade_highlight"
       id="imagebot_108"
       d="m 313.073,465.901 6.614,8.819 c 0,0 10.473,-6.614 15.433,-4.96 4.961,1.653 15.434,55.118 20.946,55.669 5.511,0.551 16.535,3.307 14.33,-2.756 -2.204,-6.063 -29.212,-71.654 -29.212,-71.654 l -28.111,14.882 z"
       inkscape:connector-curvature="0"
       style="opacity:0.5;fill:#214478" />
    <path
       transform="translate(-3.6323,-60.7185)"
       label="shade_highlight"
       id="imagebot_107"
       d="m 230.947,482.988 c 0,0 9.37,2.756 12.677,1.102 3.307,-1.653 12.126,-22.598 18.189,-22.598 6.063,0 35.276,3.858 46.299,-1.103 11.024,-4.96 44.646,-30.315 46.3,-25.905 1.654,4.409 -39.685,31.417 -44.646,32.52 -4.961,1.102 -12.126,14.882 -14.331,19.291 -2.205,4.41 -18.74,19.292 -22.598,15.433 -3.859,-3.858 -11.575,-4.96 -11.575,-4.96 0,0 -1.654,7.716 -8.268,7.165 -6.614,-0.551 -22.047,-20.945 -22.047,-20.945 z"
       inkscape:connector-curvature="0"
       style="opacity:0.15;fill:#214478" />
    <path
       transform="translate(-3.6323,-60.7185)"
       label="shade_highlight"
       id="imagebot_106"
       d="m 299.845,443.854 c 0,0 7.165,-7.717 17.638,-11.575 10.472,-3.858 33.071,-13.78 33.071,-13.78 l 1.102,5.512 c 0,0 -33.622,18.741 -39.685,19.843 -6.063,1.102 -12.126,0 -12.126,0 z"
       inkscape:connector-curvature="0"
       style="opacity:0.15;fill:#214478" />
    <path
       transform="translate(-3.6323,-60.7185)"
       label="shade_highlight"
       id="imagebot_105"
       d="m 412.286,402.515 c 2.205,-1.102 54.017,-32.52 55.67,-30.866 1.654,1.653 4.961,4.409 0.551,7.165 -4.409,2.756 -54.567,31.418 -54.567,31.418 l -1.654,-7.717 z"
       inkscape:connector-curvature="0"
       style="opacity:0.15;fill:#214478" />
    <path
       transform="translate(-3.6323,-60.7185)"
       label="shade_highlight"
       id="imagebot_104"
       d="m 407.877,381.019 c 0,0 22.047,-8.268 27.559,-10.473 5.512,-2.204 31.418,-17.638 39.134,-18.189 7.717,-0.551 22.048,-0.551 18.189,2.205 -3.858,2.756 -20.393,0.551 -25.354,4.409 -4.961,3.859 -29.764,18.19 -33.622,18.741 -3.859,0.551 -24.804,11.023 -24.804,11.023 l -1.102,-7.716 z"
       inkscape:connector-curvature="0"
       style="opacity:0.15;fill:#214478" />
    <path
       transform="translate(-3.6323,-60.7185)"
       label="shade_highlight"
       id="imagebot_103"
       d="m 352.758,528.736 c 0,0 13.78,9.371 16.536,11.024 2.756,1.654 -5.512,20.394 -2.756,19.843 2.756,-0.551 18.74,0 18.189,-4.41 -0.551,-4.409 -1.102,-14.882 -3.858,-16.535 -2.756,-1.654 -13.78,-11.024 -13.78,-11.024 l -14.331,1.102 z"
       inkscape:connector-curvature="0"
       style="opacity:0.15;fill:#214478" />
    <path
       transform="translate(-3.6323,-60.7185)"
       label="shade_highlight"
       id="imagebot_102"
       d="m 304.254,360.074 c 0,0 30.315,15.984 29.213,20.394 -1.102,4.409 -2.205,29.764 -6.063,30.866 -3.858,1.102 -26.457,14.882 -29.213,12.677 -2.756,-2.204 -61.733,-8.819 -68.347,-8.268 -6.614,0.552 -27.008,-3.858 -14.331,-4.96 12.678,-1.103 78.069,-1.425 84.883,-8.268 7.67,-7.703 3.858,-42.441 3.858,-42.441 z"
       inkscape:connector-curvature="0"
       style="opacity:0.5;fill:#214478" />
    <path
       transform="translate(-3.6323,-60.7185)"
       label="shade_highlight"
       id="imagebot_101"
       d="m 228.742,487.949 c 2.205,12.126 -13.78,33.622 -6.063,36.378 7.716,2.756 25.905,13.78 26.457,7.717 0.551,-6.063 -11.575,-35.276 -11.575,-35.276 l -8.819,-8.819 z"
       inkscape:connector-curvature="0"
       style="opacity:0.5;fill:#214478" />
    <path
       transform="translate(-3.6323,-60.7185)"
       label="shade_highlight"
       id="imagebot_100"
       d="m 325.199,309.365 c 0,0 -24.803,40.236 -18.74,46.299 6.063,6.063 27.559,22.599 28.661,20.394 1.103,-2.205 8.268,-19.291 4.961,-21.496 -3.307,-2.205 -15.984,-24.803 -14.331,-30.866 1.654,-6.063 -0.551,-14.331 -0.551,-14.331 z"
       inkscape:connector-curvature="0"
       style="opacity:0.15;fill:#214478" />
    <path
       transform="translate(-3.6323,-60.7185)"
       label="shade_highlight"
       id="imagebot_99"
       d="m 213.309,527.634 c -2.205,1.102 -46.3,5.512 -47.402,8.268 -1.103,2.756 -6.615,17.638 -3.307,18.189 3.307,0.551 34.724,-6.614 40.236,-7.165 5.512,-0.552 45.748,8.818 47.402,3.858 1.654,-4.961 2.756,-15.985 -0.551,-16.536 -3.307,-0.551 -36.378,-6.614 -36.378,-6.614 z"
       inkscape:connector-curvature="0"
       style="opacity:0.15;fill:#214478" />
    <path
       transform="translate(-3.6323,-60.7185)"
       label="shade_highlight"
       id="imagebot_98"
       d="m 104.725,109.836 c 0,0 9.921,-2.205 18.189,1.102 8.268,3.307 15.433,0.551 8.819,-3.858 -6.614,-4.41 -17.638,-8.8191 -23.15,-4.961 -5.511,3.859 -7.716,8.268 -7.716,8.268 l 3.858,-0.551 z"
       inkscape:connector-curvature="0"
       style="opacity:0.7;fill:#ffffff" />
    <path
       transform="translate(-3.6323,-60.7185)"
       label="shade_highlight"
       id="imagebot_97"
       d="m 136.143,180.387 c -4.41,3.859 -7.166,10.473 -1.103,9.371 6.063,-1.103 11.575,-3.307 11.575,-3.307 l -10.472,-6.064 z"
       inkscape:connector-curvature="0"
       style="opacity:0.7;fill:#ffffff" />
    <path
       transform="translate(-3.6323,-60.7185)"
       label="shade_highlight"
       id="imagebot_96"
       d="m 136.694,205.191 -2.756,59.528 6.063,1.102 c 0,0 3.307,-56.221 2.205,-58.425 -1.103,-2.205 -5.512,-2.205 -5.512,-2.205 z"
       inkscape:connector-curvature="0"
       style="opacity:0.7;fill:#ffffff" />
    <path
       transform="translate(-3.6323,-60.7185)"
       label="shade_highlight"
       id="imagebot_95"
       d="m 124.568,371.649 c 0,0 -7.166,60.63 -4.41,61.181 2.756,0.551 6.063,-4.409 6.615,-10.472 0.551,-6.063 6.063,-50.709 3.858,-52.363 -2.205,-1.653 -6.063,1.654 -6.063,1.654 z"
       inkscape:connector-curvature="0"
       style="opacity:0.7;fill:#ffffff" />
    <path
       transform="translate(-3.6323,-60.7185)"
       label="shade_highlight"
       id="imagebot_94"
       d="m 253.545,438.342 c -8.268,5.512 -15.984,10.473 -15.984,17.087 0,6.614 -12.678,13.228 -11.024,8.819 1.654,-4.41 2.756,-20.945 10.473,-23.701 7.716,-2.756 7.716,-7.166 12.677,-5.512 4.96,1.654 4.96,6.063 4.96,6.063 l -1.102,-2.756 z"
       inkscape:connector-curvature="0"
       style="opacity:0.7;fill:#ffffff" />
    <path
       transform="translate(-3.6323,-60.7185)"
       label="shade_highlight"
       id="imagebot_93"
       d="m 287.719,435.035 c 2.204,-2.205 59.528,-23.15 55.118,-24.803 -4.409,-1.654 -49.607,17.086 -54.016,19.291 -4.41,2.205 -1.102,5.512 -1.102,5.512 z"
       inkscape:connector-curvature="0"
       style="opacity:0.7;fill:#ffffff" />
    <path
       transform="translate(-3.6323,-60.7185)"
       label="shade_highlight"
       id="imagebot_92"
       d="m 97.5598,168.813 c -1.6536,7.165 -3.2536,8.976 -10e-5,9.094 1.5688,0.057 2.7673,-2.315 2.4803,-3.858 -0.4046,-2.175 -2.4802,-5.236 -2.4802,-5.236 z"
       inkscape:connector-curvature="0"
       style="opacity:0.7;fill:#ffffff" />
    <title
       id="title3208">shade_highlight</title>
  </g>
  <g
     display="inline"
     label="line"
     id="imagebot_2"
     style="display:inline"
     transform="translate(-3.4598328,-3.9129977)">
    <path
       transform="translate(-3.6323,-60.7185)"
       label="line"
       stroke-miterlimit="4"
       id="imagebot_90"
       d="m 354.965,441.838 c 0,0 -37.711,20.643 -43.557,23.371 -5.847,2.728 -17.333,3.805 -27.478,-3.508 -3.062,-2.207 -12.581,-4.173 -17.33,0.835 -1.49,1.572 -0.479,3.039 -0.988,4.816 -1.44,5.038 -2.509,7.524 -2.419,16.37 0.046,4.455 1.012,10.389 2.23,14.669 0.561,1.97 0.384,5.013 0.384,5.013 l -7.795,2.144 -10.82,-1.498 -1.718,-3.65 c 0,0 -15.857,-11.215 -18.252,-22.524 -2.394,-11.31 -4.155,-27.414 10.523,-38.975 9.72,-7.655 17.482,-7.001 26.59,-6.484 5.497,0.312 15.503,5.704 15.503,5.704 0,0 26.245,9.707 35.308,5.234 15.999,-7.896 36.227,-18.047 36.227,-18.047"
       inkscape:connector-curvature="0"
       style="fill:none;stroke:#000000;stroke-width:2;stroke-miterlimit:4" />
    <path
       label="line"
       stroke-miterlimit="4"
       transform="matrix(1.77273,0,0,2.21739,-245.52315,-615.274)"
       d="m 306.731,455.368 c 0,1.237 -0.96,2.241 -2.144,2.241 -1.184,0 -2.144,-1.004 -2.144,-2.241 0,-1.238 0.96,-2.241 2.144,-2.241 1.184,0 2.144,1.003 2.144,2.241 z"
       id="imagebot_89"
       inkscape:connector-curvature="0"
       style="fill:none;stroke:#000000;stroke-width:0.50437999;stroke-linejoin:round;stroke-miterlimit:4;stroke-dashoffset:0" />
    <path
       transform="translate(-3.6323,-60.7185)"
       label="line"
       stroke-miterlimit="4"
       id="imagebot_88"
       d="m 348.628,428.183 c 0,0 -21.047,10.797 -33.713,16.759 -5.112,2.406 -18.318,-1.949 -18.318,-1.949"
       inkscape:connector-curvature="0"
       style="fill:none;stroke:#000000;stroke-linejoin:round;stroke-miterlimit:4;stroke-dashoffset:0" />
    <path
       transform="translate(-3.6323,-60.7185)"
       label="line"
       stroke-miterlimit="4"
       id="imagebot_87"
       d="m 275.746,436.368 c -11.888,-5.067 -25.295,-0.981 -31.765,7.795 -14.151,19.194 -4.871,46.769 10.329,55.928"
       inkscape:connector-curvature="0"
       style="fill:none;stroke:#000000;stroke-linejoin:round;stroke-miterlimit:4;stroke-dashoffset:0" />
    <path
       transform="translate(-3.6323,-60.7185)"
       label="line"
       stroke-miterlimit="4"
       id="imagebot_86"
       d="m 265.223,464.624 -7.406,1.949 c -5.298,2.162 -3.608,34.153 -2.338,33.518"
       inkscape:connector-curvature="0"
       style="fill:none;stroke:#000000;stroke-linejoin:round;stroke-miterlimit:4;stroke-dashoffset:0" />
    <path
       transform="translate(-3.6323,-60.7185)"
       label="line"
       stroke-miterlimit="4"
       id="imagebot_85"
       d="m 258.402,467.937 c -2.875,11.159 -1.634,26.187 -0.39,36.831"
       inkscape:connector-curvature="0"
       style="fill:none;stroke:#000000;stroke-linejoin:round;stroke-miterlimit:4;stroke-dashoffset:0" />
    <path
       transform="translate(-3.6323,-60.7185)"
       label="line"
       stroke-miterlimit="4"
       id="imagebot_84"
       d="m 279.448,437.537 c 0,0 1.754,-5.262 5.067,-7.405 1.349,-0.873 8.524,-3.888 12.862,-5.652 l 40.728,-16.564 c 0,0 7.405,-1.169 8.38,-0.585 m 4.51,16.08 c 0,0 -29.454,15.49 -32.377,16.269 -2.923,0.78 -4.918,-0.651 -7.016,0.39 -1.527,0.759 -3.312,3.898 -3.312,3.898"
       inkscape:connector-curvature="0"
       style="fill:none;stroke:#000000;stroke-width:2;stroke-linejoin:round;stroke-miterlimit:4;stroke-dashoffset:0" />
    <path
       transform="translate(-3.6323,-60.7185)"
       label="line"
       stroke-miterlimit="4"
       id="imagebot_83"
       d="m 287.438,439.486 c 0,0 0.707,-3.673 2.533,-5.652 3.228,-3.497 8.031,-4.611 12.278,-6.431 l 42.933,-18.398"
       inkscape:connector-curvature="0"
       style="fill:none;stroke:#000000;stroke-linejoin:round;stroke-miterlimit:4;stroke-dashoffset:0" />
    <path
       transform="translate(-3.6323,-60.7185)"
       label="line"
       stroke-miterlimit="4"
       id="imagebot_82"
       d="m 265.612,502.235 6.041,0 9.159,-3.508 0.585,-2.728 c 0,0 12.026,-5.11 15.785,-12.277 3.758,-7.167 5.456,-16.759 5.456,-16.759"
       inkscape:connector-curvature="0"
       style="fill:none;stroke:#000000;stroke-width:2;stroke-linejoin:round;stroke-miterlimit:4;stroke-dashoffset:0" />
    <path
       transform="translate(-3.6323,-60.7185)"
       label="line"
       stroke-miterlimit="4"
       id="imagebot_81"
       d="m 273.797,458.778 -1.754,4.872 -4.092,1.364 c -0.349,1.766 -1.701,3.92 -1.608,6.036 0.289,6.61 -0.319,13.912 -2.29,21.051"
       inkscape:connector-curvature="0"
       style="fill:none;stroke:#000000;stroke-width:2;stroke-linejoin:round;stroke-miterlimit:4;stroke-dashoffset:0" />
    <path
       transform="translate(-3.6323,-60.7185)"
       label="line"
       stroke-miterlimit="4"
       id="imagebot_80"
       d="m 270.874,465.014 c 0,0 7.324,-0.789 7.015,2.144 l -0.389,3.702 c 0.301,9.087 -2.408,16.521 -5.262,24.554 -0.438,1.232 -0.195,4.677 -0.195,4.677"
       inkscape:connector-curvature="0"
       style="fill:none;stroke:#000000;stroke-linejoin:round;stroke-miterlimit:4;stroke-dashoffset:0" />
    <path
       transform="translate(-3.6323,-60.7185)"
       label="line"
       stroke-miterlimit="4"
       id="imagebot_79"
       d="m 280.033,464.04 c 0,0 4.606,1.737 4.677,2.728 0.195,2.728 -0.195,20.072 -3.118,27.282"
       inkscape:connector-curvature="0"
       style="fill:none;stroke:#000000;stroke-linejoin:round;stroke-miterlimit:4;stroke-dashoffset:0" />
    <path
       transform="translate(-3.6323,-60.7185)"
       label="line"
       stroke-miterlimit="4"
       id="imagebot_78"
       d="m 279.253,464.234 1.754,-5.456"
       inkscape:connector-curvature="0"
       style="fill:none;stroke:#000000;stroke-linejoin:round;stroke-miterlimit:4;stroke-dashoffset:0" />
    <path
       transform="translate(-3.6323,-60.7185)"
       label="line"
       stroke-miterlimit="4"
       id="imagebot_77"
       d="m 228.002,119.309 c -9.354,12.472 -23.151,71.429 -22.995,108.349 0.053,12.64 3.18,27.806 8.184,37.026 7.865,14.49 12.083,20.657 38.585,26.113 26.503,5.457 100.165,-21.436 106.011,-25.333 5.847,-3.898 10.913,-15.59 10.913,-15.59 0,0 19.488,-4.157 24.944,-13.641 7.674,-13.34 -4.111,-23.479 -7.015,-18.708 8.345,-12.929 16.819,-25.604 24.164,-40.534 l 7.795,-0.39 c 1.587,-3.888 -2.472,-9.658 -7.016,-15.589 0,0 27.283,6.236 24.555,2.338 -11.058,-12.633 -23.385,-22.411 -38.585,-25.723 0,0 14.03,-1.559 9.743,-3.898 -5.044,-8.077 -16.125,-10.117 -26.113,-13.251 0,0 27.672,3.897 24.165,1.559 -15.074,-7.541 -25.817,-11.489 -40.534,-13.251 0,0 18.318,-0.39 14.031,-1.949 -30.084,-9.7189 -35.536,-10.8281 -48.329,-10.5234 0,0 18.318,-3.8975 13.252,-5.4564 0,0 -36.03,-5.8094 -53.785,-3.118 -7.683,1.1644 -21.826,8.1847 -21.826,8.1847 0.389,-3.118 11.692,-11.3027 8.574,-10.5232 -7.535,-0.1196 -15.07,4.1544 -22.605,11.3027 0,0 3.118,-8.1847 0.39,-7.0155 0,0 -12.553,6.5214 -17.149,11.6921 -4.478,5.038 -9.354,17.929 -9.354,17.929 z"
       inkscape:connector-curvature="0"
       style="fill:none;stroke:#000000;stroke-width:2;stroke-linejoin:round;stroke-miterlimit:4;stroke-dashoffset:0" />
    <path
       transform="translate(-3.6323,-60.7185)"
       label="line"
       stroke-miterlimit="4"
       id="imagebot_76"
       d="m 231.12,115.801 c 0,0 22.682,13.77 35.467,15.59 13.752,1.958 41.313,-5.457 41.313,-5.457 l -0.39,-3.118 c 17.424,-0.119 26.082,4.769 36.636,8.575 l -5.456,1.169 c 15.684,3.711 24.121,11.77 35.077,18.318 l -5.846,0.78 c 0,0 14.81,31.569 9.354,47.938 -5.457,16.37 -21.436,24.944 -21.436,24.944 l 4.677,3.118 -9.354,8.575 5.066,0.389 -4.287,10.524 12.862,0.389 4.677,-13.641 0.779,2.728 c 0,0 6.95,-13.997 8.413,-14.944 3.764,-2.433 6.142,-3.83 6.142,-3.83"
       inkscape:connector-curvature="0"
       style="fill:none;stroke:#000000;stroke-linejoin:round;stroke-miterlimit:4;stroke-dashoffset:0" />
    <path
       transform="translate(-3.6323,-60.7185)"
       label="line"
       stroke-miterlimit="4"
       id="imagebot_75"
       d="m 374.547,235.843 c 0.217,0.952 12.437,-8.93 14.03,-10.523"
       inkscape:connector-curvature="0"
       style="fill:none;stroke:#000000;stroke-linejoin:round;stroke-miterlimit:4;stroke-dashoffset:0" />
    <path
       transform="translate(-3.6323,-60.7185)"
       label="line"
       stroke-miterlimit="4"
       id="imagebot_74"
       d="m 384.727,228.892 c 0.9,2.726 1.427,5.587 -1.378,9.645"
       inkscape:connector-curvature="0"
       style="fill:none;stroke:#000000;stroke-linejoin:round;stroke-miterlimit:4;stroke-dashoffset:0" />
    <path
       transform="translate(-3.6323,-60.7185)"
       label="line"
       stroke-miterlimit="4"
       id="imagebot_73"
       d="m 227.561,168.806 c 0,0 -0.946,-6.735 0.39,-8.574 6.861,-9.443 25.62,-3.479 24.943,-2.338 3.508,0.779 5.067,8.184 1.17,9.354 -11.44,-3.353 -19.15,-1.163 -26.503,1.558 z"
       inkscape:connector-curvature="0"
       style="fill:none;stroke:#000000;stroke-linejoin:round;stroke-miterlimit:4;stroke-dashoffset:0" />
    <path
       transform="translate(-3.6323,-60.7185)"
       label="line"
       stroke-miterlimit="4"
       id="imagebot_72"
       d="m 281.346,168.417 c -6.626,1.948 -4.938,-6.454 0.779,-11.303 9.781,-8.294 24.25,6.369 29.231,10.913 3.508,7.405 -0.975,11.507 -5.456,7.015 -9.057,-9.079 -15.595,-7.808 -24.554,-6.625 z"
       inkscape:connector-curvature="0"
       style="fill:none;stroke:#000000;stroke-linejoin:round;stroke-miterlimit:4;stroke-dashoffset:0" />
    <path
       transform="translate(-3.6323,-60.7185)"
       label="line"
       stroke-miterlimit="4"
       id="imagebot_71"
       d="m 272.771,187.904 c 16.587,-7.84 26.064,10.233 29.231,17.539 l 0,3.118 c 0,0 -8.871,1.41 -13.251,0.779 -5.328,-0.767 -15.2,-5.456 -15.2,-5.456 0,0 1.303,-0.666 3.508,-0.39 -1.378,-7.165 -1.863,-13.157 1.169,-14.81 -2.205,-0.552 -5.457,-0.78 -5.457,-0.78 z"
       inkscape:connector-curvature="0"
       style="fill:none;stroke:#000000;stroke-linejoin:round;stroke-miterlimit:4;stroke-dashoffset:0" />
    <path
       transform="translate(-3.6323,-60.7185)"
       label="line"
       stroke-miterlimit="4"
       id="imagebot_70"
       d="m 274.33,185.176 c 0,0 5.834,-8.134 17.539,-6.236 11.477,1.861 13.641,17.928 13.641,17.928"
       inkscape:connector-curvature="0"
       style="fill:none;stroke:#000000;stroke-linejoin:round;stroke-miterlimit:4;stroke-dashoffset:0" />
    <path
       transform="translate(-3.6323,-60.7185)"
       label="line"
       stroke-miterlimit="4"
       id="imagebot_69"
       d="m 273.551,204.663 c 2.142,6.303 3.967,12.922 10.133,15.2"
       inkscape:connector-curvature="0"
       style="fill:none;stroke:#000000;stroke-linejoin:round;stroke-miterlimit:4;stroke-dashoffset:0" />
    <path
       label="line"
       transform="matrix(1.5464,0,0,1.05766,-161.93115,-70.9612)"
       d="m 289.582,193.555 c 0,4.413 -1.92,7.99 -4.287,7.99 -2.368,0 -4.288,-3.577 -4.288,-7.99 0,-4.412 1.92,-7.989 4.288,-7.989 2.367,0 4.287,3.577 4.287,7.989 z"
       id="imagebot_68"
       inkscape:connector-curvature="0"
       style="fill:#000000" />
    <path
       label="line"
       id="imagebot_67"
       d="m 289.582,193.555 c 0,4.413 -1.92,7.99 -4.287,7.99 -2.368,0 -4.288,-3.577 -4.288,-7.99 0,-4.412 1.92,-7.989 4.288,-7.989 2.367,0 4.287,3.577 4.287,7.989 z"
       transform="matrix(0.550023,0,0,0.333304,119.98785,65.9342)"
       inkscape:connector-curvature="0"
       style="fill:#ffffff" />
    <path
       transform="translate(-3.6323,-60.7185)"
       label="line"
       stroke-miterlimit="4"
       id="imagebot_66"
       d="m 258.986,175.151 c 2.35,8.686 -7.312,33.545 -20.669,34.725 -5.01,0.442 -12.402,-1.654 -11.3,2.48 1.103,4.134 3.529,16.436 16.26,15.709 19.292,-1.102 19.499,-6.253 23.15,-5.787 5.767,0.735 -0.551,3.582 0.827,5.787 1.378,2.205 11.702,1.619 14.331,-0.551 4.502,-3.716 -4.796,-13.278 -7.717,-12.953"
       inkscape:connector-curvature="0"
       style="fill:none;stroke:#000000;stroke-miterlimit:4" />
    <path
       transform="translate(-3.6323,-60.7185)"
       label="line"
       stroke-miterlimit="4"
       id="imagebot_65"
       d="m 230.679,192.386 c 0.973,-3.488 2.539,-7.682 5.846,-9.159 5.17,-2.308 13.586,-1.932 16.759,2.756 2.866,4.234 -2.481,14.885 -3.313,14.978 -5.651,-0.585 -16.759,1.169 -21.631,2.143 l 2.534,-2.533 c 0,0 -0.929,-5.556 -0.195,-8.185 z"
       inkscape:connector-curvature="0"
       style="fill:none;stroke:#000000;stroke-linejoin:round;stroke-miterlimit:4;stroke-dashoffset:0" />
    <path
       transform="translate(-3.6323,-60.7185)"
       label="line"
       stroke-miterlimit="4"
       id="imagebot_64"
       d="m 255.233,184.591 c 0,0 0.692,-7.209 -7.6,-8.741 -5.469,-1.011 -12.552,0.487 -16.222,5.328 -1.51,1.992 -1.512,6.921 -1.512,6.921"
       inkscape:connector-curvature="0"
       style="fill:none;stroke:#000000;stroke-linejoin:round;stroke-miterlimit:4;stroke-dashoffset:0" />
    <path
       label="line"
       id="imagebot_63"
       d="m 289.582,193.555 c 0,4.413 -1.92,7.99 -4.287,7.99 -2.368,0 -4.288,-3.577 -4.288,-7.99 0,-4.412 1.92,-7.989 4.288,-7.989 2.367,0 4.287,3.577 4.287,7.989 z"
       transform="matrix(1.46652,0,0,0.957359,-184.14315,-56.1129)"
       inkscape:connector-curvature="0"
       style="fill:#000000" />
    <path
       label="line"
       transform="matrix(0.521611,0,0,0.301697,83.21255,67.8005)"
       d="m 289.582,193.555 c 0,4.413 -1.92,7.99 -4.287,7.99 -2.368,0 -4.288,-3.577 -4.288,-7.99 0,-4.412 1.92,-7.989 4.288,-7.989 2.367,0 4.287,3.577 4.287,7.989 z"
       id="imagebot_62"
       inkscape:connector-curvature="0"
       style="fill:#ffffff" />
    <path
       transform="translate(-3.6323,-60.7185)"
       label="line"
       stroke-miterlimit="4"
       id="imagebot_61"
       d="m 237.765,247.081 1.378,-5.512 0,3.583 c 0,0 19.708,4.652 29.764,5.236 9.463,0.549 28.386,-1.654 28.386,-1.654 l -0.826,-3.858 c 3.666,3.407 5.395,8.752 6.889,14.331"
       inkscape:connector-curvature="0"
       style="fill:none;stroke:#000000;stroke-linejoin:round;stroke-miterlimit:4;stroke-dashoffset:0" />
    <path
       transform="translate(-3.6323,-60.7185)"
       label="line"
       stroke-miterlimit="4"
       id="imagebot_60"
       d="m 249.616,248.734 c -4.08,1.708 -6.748,9.513 -4.685,13.229 0.802,1.446 6.339,0 10.472,0.551 4.134,0.551 9.371,3.583 9.371,3.583"
       inkscape:connector-curvature="0"
       style="fill:none;stroke:#000000;stroke-linejoin:round;stroke-miterlimit:4;stroke-dashoffset:0" />
    <path
       transform="translate(-3.6323,-60.7185)"
       label="line"
       stroke-miterlimit="4"
       id="imagebot_59"
       d="m 233.356,225.033 c -9.03,6.231 -13.26,13.528 -15.709,21.221"
       inkscape:connector-curvature="0"
       style="fill:none;stroke:#000000;stroke-linejoin:round;stroke-miterlimit:4;stroke-dashoffset:0" />
    <path
       transform="translate(-3.6323,-60.7185)"
       label="line"
       stroke-miterlimit="4"
       id="imagebot_58"
       d="m 282.963,222.829 c 0,0 1.085,6.283 3.582,7.441 15.8,7.321 23.884,24.755 22.323,25.079"
       inkscape:connector-curvature="0"
       style="fill:none;stroke:#000000;stroke-linejoin:round;stroke-miterlimit:4;stroke-dashoffset:0" />
    <path
       transform="translate(-3.6323,-60.7185)"
       label="line"
       stroke-miterlimit="4"
       id="imagebot_57"
       d="m 108.739,293.915 c 0,0 -0.389,-10.523 3.508,-14.031 3.898,-3.507 12.862,-12.861 18.708,-13.641 5.846,-0.779 9.744,0 14.031,2.728 4.287,2.729 11.692,8.575 11.302,16.37 -0.292,5.852 -9.354,10.523 -9.354,10.523 0,0 6.875,6.644 5.847,10.523 -2.804,10.575 -14.421,10.913 -14.421,10.913 0,0 9.515,1.182 8.574,12.082 -0.809,9.391 -8.574,13.252 -8.574,13.252 0,0 6.767,0.782 6.626,3.897 -0.39,8.574 -3.157,11.21 -7.795,13.641 -6.699,3.512 -21.042,0.859 -22.605,-1.949 -1.994,-3.58 -2.279,-16.944 1.169,-16.369 0,0 -9.744,-1.559 -10.913,-3.897 -1.169,-2.339 -2.339,-16.76 -0.78,-17.539 1.559,-0.78 3.898,-3.508 3.898,-3.508 0,0 -5.846,-3.508 -6.236,-6.625 -0.39,-3.118 2.728,-10.134 2.728,-12.083 0,-1.948 4.287,-4.287 4.287,-4.287 z"
       inkscape:connector-curvature="0"
       style="fill:none;stroke:#000000;stroke-width:2;stroke-linejoin:round;stroke-miterlimit:4;stroke-dashoffset:0" />
    <path
       transform="translate(-3.6323,-60.7185)"
       label="line"
       stroke-miterlimit="4"
       id="imagebot_56"
       d="m 152.001,314.961 c -5.327,8.075 -6.625,23.385 0,26.114 6.626,2.728 15.2,1.559 19.488,-0.78 4.287,-2.338 12.471,-30.79 11.302,-34.687 -1.169,-3.898 -8.184,-16.37 -12.082,-18.708 -3.897,-2.339 -13.251,0 -13.251,0 -0.632,9.721 0.283,19.362 -5.457,28.061 z"
       inkscape:connector-curvature="0"
       style="fill:none;stroke:#000000;stroke-width:2;stroke-linejoin:round;stroke-miterlimit:4;stroke-dashoffset:0" />
    <path
       transform="translate(-3.6323,-60.7185)"
       label="line"
       stroke-miterlimit="4"
       id="imagebot_55"
       d="m 144.986,294.695 c 0,0 -12.866,-5.671 -19.488,-5.847 -7.802,-0.206 -15.2,4.677 -15.2,4.677"
       inkscape:connector-curvature="0"
       style="fill:none;stroke:#000000;stroke-linejoin:round;stroke-miterlimit:4;stroke-dashoffset:0" />
    <path
       transform="translate(-3.6323,-60.7185)"
       label="line"
       stroke-miterlimit="4"
       id="imagebot_54"
       d="m 136.411,316.91 c 0,0 -10.913,-1.559 -13.641,-1.559 -2.728,0 -12.861,1.559 -12.861,1.559"
       inkscape:connector-curvature="0"
       style="fill:none;stroke:#000000;stroke-linejoin:round;stroke-miterlimit:4;stroke-dashoffset:0" />
    <path
       transform="translate(-3.6323,-60.7185)"
       label="line"
       stroke-miterlimit="4"
       id="imagebot_53"
       d="m 136.022,342.634 c 0,0 -6.626,1.169 -9.354,1.169 -2.729,0 -9.354,-0.78 -9.354,-0.78"
       inkscape:connector-curvature="0"
       style="fill:none;stroke:#000000;stroke-linejoin:round;stroke-miterlimit:4;stroke-dashoffset:0" />
    <path
       transform="translate(-3.6323,-60.7185)"
       label="line"
       stroke-miterlimit="4"
       id="imagebot_52"
       d="m 124.518,362.193 -8.354,85.786 c 6.72,6.39 20.11,5.027 26.188,1.949 l 9.134,-109.997 m 5.195,-53.107 9.123,-85.413 c 0,0 2.827,-1.466 4.905,-2.338 3.713,-1.559 5.127,-11.98 4.106,-13.393 -1.559,-2.158 -3.279,-4.772 -3.279,-4.772 0,0 2.291,-25.353 3.46,-33.538 1.169,-8.184 -3.897,-29.62 -18.318,-32.738 -10.257,-2.218 -23.089,-7.13 -23.089,-7.13 0,0 -1.931,-5.312 -15.437,-6.35 -14.348,-1.103 -21.2212,13.198 -22.2743,24.782 -1.1693,12.862 2.2212,32.488 14.2393,33.519 12.247,1.049 16.645,-3.118 16.645,-3.118 0,0 4.193,-2.729 8.09,0.779 3.898,3.508 3.118,13.641 3.118,13.641 l -0.96,7.882 c 0,0 -4.658,2.385 -5.827,3.944 -1.169,1.559 -2.567,11.654 -0.228,13.602 2.338,1.949 5.57,3.118 5.57,3.118 l -4.784,66.134"
       inkscape:connector-curvature="0"
       style="fill:none;stroke:#000000;stroke-width:2;stroke-linejoin:round;stroke-miterlimit:4;stroke-dashoffset:0" />
    <path
       label="line"
       stroke-miterlimit="4"
       transform="matrix(1.10388,0.0553505,-0.0567071,1.13093,-12.70635,-84.2792)"
       d="m 126.773,130.781 c 0,10.35 -4.689,18.74 -10.473,18.74 -5.784,0 -10.472,-8.39 -10.472,-18.74 0,-10.35 4.688,-18.74 10.472,-18.74 5.784,0 10.473,8.39 10.473,18.74 z"
       id="imagebot_51"
       inkscape:connector-curvature="0"
       style="fill:none;stroke:#000000;stroke-width:0.89387;stroke-linejoin:round;stroke-miterlimit:4;stroke-dashoffset:0" />
    <path
       transform="translate(-3.6323,-60.7185)"
       label="line"
       stroke-miterlimit="4"
       id="imagebot_50"
       d="m 120.985,104.048 c 9.37,6.339 9.168,19.461 8.543,29.764"
       inkscape:connector-curvature="0"
       style="fill:none;stroke:#000000;stroke-linejoin:round;stroke-miterlimit:4;stroke-dashoffset:0" />
    <path
       transform="translate(-3.6323,-60.7185)"
       label="line"
       stroke-miterlimit="4"
       id="imagebot_49"
       d="m 133.938,110.663 c 5.131,9.514 4.437,30.486 -3.583,40.787"
       inkscape:connector-curvature="0"
       style="fill:none;stroke:#000000;stroke-linejoin:round;stroke-miterlimit:4;stroke-dashoffset:0" />
    <path
       transform="translate(-3.6323,-60.7185)"
       label="line"
       stroke-miterlimit="4"
       id="imagebot_48"
       d="m 136.418,199.128 c 8.781,2.238 18.236,3.352 29.213,1.929"
       inkscape:connector-curvature="0"
       style="fill:none;stroke:#000000;stroke-linejoin:round;stroke-miterlimit:4;stroke-dashoffset:0" />
    <path
       transform="translate(-3.6323,-60.7185)"
       label="line"
       stroke-miterlimit="4"
       id="imagebot_47"
       d="m 139.45,179.285 c 9.646,5.394 21.496,4.481 28.937,2.205"
       inkscape:connector-curvature="0"
       style="fill:none;stroke:#000000;stroke-linejoin:round;stroke-miterlimit:4;stroke-dashoffset:0" />
    <path
       transform="translate(-3.6323,-60.7185)"
       label="line"
       stroke-miterlimit="4"
       id="imagebot_46"
       d="M 101.334,120.868 123.16,132.56"
       inkscape:connector-curvature="0"
       style="fill:none;stroke:#000000;stroke-linejoin:round;stroke-miterlimit:4;stroke-dashoffset:0" />
    <path
       transform="translate(-3.6323,-60.7185)"
       label="line"
       stroke-miterlimit="4"
       id="imagebot_45"
       d="m 116.576,447.437 c 9.746,4.244 18.775,1.158 25.63,-1.103"
       inkscape:connector-curvature="0"
       style="fill:none;stroke:#000000;stroke-linejoin:round;stroke-miterlimit:4;stroke-dashoffset:0" />
    <path
       transform="translate(-3.6323,-60.7185)"
       label="line"
       stroke-miterlimit="4"
       d="m 117.127,444.681 c 9.746,4.244 18.775,1.158 25.63,-1.103"
       id="imagebot_44"
       inkscape:connector-curvature="0"
       style="fill:none;stroke:#000000;stroke-linejoin:round;stroke-miterlimit:4;stroke-dashoffset:0" />
    <path
       transform="translate(-3.6323,-60.7185)"
       label="line"
       stroke-miterlimit="4"
       id="imagebot_43"
       d="m 117.678,441.374 c 9.746,4.244 18.775,1.158 25.63,-1.103"
       inkscape:connector-curvature="0"
       style="fill:none;stroke:#000000;stroke-linejoin:round;stroke-miterlimit:4;stroke-dashoffset:0" />
    <path
       transform="translate(-3.6323,-60.7185)"
       label="line"
       stroke-miterlimit="4"
       id="imagebot_42"
       d="m 117.678,437.791 c 9.746,4.245 18.775,1.158 25.63,-1.102"
       inkscape:connector-curvature="0"
       style="fill:none;stroke:#000000;stroke-linejoin:round;stroke-miterlimit:4;stroke-dashoffset:0" />
    <path
       transform="translate(-3.6323,-60.7185)"
       label="line"
       stroke-miterlimit="4"
       d="m 118.229,434.484 c 9.746,4.244 18.775,1.158 25.63,-1.103"
       id="imagebot_41"
       inkscape:connector-curvature="0"
       style="fill:none;stroke:#000000;stroke-linejoin:round;stroke-miterlimit:4;stroke-dashoffset:0" />
    <path
       transform="translate(-3.6323,-60.7185)"
       label="line"
       stroke-miterlimit="4"
       id="imagebot_40"
       d="m 100.316,162.198 c 0,0 -8.2681,15.434 -3.8586,20.394 4.4096,4.961 8.2676,-0.551 7.7166,-3.307 -0.551,-2.756 -3.858,-17.087 -3.858,-17.087 z"
       inkscape:connector-curvature="0"
       style="fill:none;stroke:#000000;stroke-width:2;stroke-linejoin:round;stroke-miterlimit:4;stroke-dashoffset:0" />
    <path
       transform="translate(-3.6323,-60.7185)"
       label="line"
       stroke-miterlimit="4"
       id="imagebot_39"
       d="m 214.75,266.633 c 0,0 -18.318,36.246 -21.825,37.805 -3.508,1.559 -9.354,2.729 -9.354,2.729 m 1.46,43.27 c -0.012,1.165 2.257,3.252 3.787,3.255 l 4.725,-0.137 -5.067,6.235 c 0,0 18.869,97.819 18.09,100.547 -0.78,2.728 -4.677,8.185 -2.339,10.523 2.339,2.339 7.016,4.287 7.016,4.287 0,0 1.948,25.724 0.779,28.062 -1.169,2.339 -3.85,2.815 -4.677,5.846 l 5.457,2.339 -4.288,0.39 c -0.275,3.031 3.898,4.677 3.898,4.677 l -6.744,0.275 -2.556,-2.882 -4.685,1.103 -0.276,3.031 -2.205,0.276 -3.031,-3.032 -3.859,1.378 0.276,3.583 -2.756,0.827 -2.48,-1.929 -5.512,1.653 -1.378,3.032 c 0,0 -23.43,2.504 -26.181,2.342 -2.343,-0.138 -9.646,-1.791 -10.473,0.689 -0.827,2.481 2.205,18.741 3.032,20.67 0.826,1.929 13.504,9.37 17.913,9.094 4.41,-0.275 34.449,-6.89 41.615,-7.441 7.165,-0.551 27.559,2.481 32.795,2.205 5.236,-0.276 12.402,-0.276 14.331,-1.102 1.929,-0.827 2.756,-7.441 2.48,-9.922 -0.275,-2.48 -4.134,-9.37 -4.134,-9.37 l 2.756,-1.653 c 0,0 1.378,-6.89 -1.378,-7.993 -2.756,-1.102 0.552,-2.48 0.552,-4.685 -1.378,-2.204 -8.819,-4.96 -8.819,-4.96 l 3.307,-4.134 -2.756,-9.095"
       inkscape:connector-curvature="0"
       style="fill:none;stroke:#000000;stroke-width:2;stroke-linejoin:round;stroke-miterlimit:4;stroke-dashoffset:0" />
    <path
       transform="translate(-3.6323,-60.7185)"
       label="line"
       stroke-miterlimit="4"
       id="imagebot_38"
       d="m 227.639,450.744 c 0,0 -2.48,-28.111 -1.653,-30.315 0.827,-2.205 -0.827,-4.41 2.756,-3.583 3.582,0.827 37.756,3.858 42.441,3.858 4.685,0 20.394,-0.551 22.047,-0.275 1.654,0.275 3.859,3.582 3.859,3.582"
       inkscape:connector-curvature="0"
       style="fill:none;stroke:#000000;stroke-width:2;stroke-linejoin:round;stroke-miterlimit:4;stroke-dashoffset:0" />
    <path
       transform="translate(-3.6323,-60.7185)"
       label="line"
       stroke-miterlimit="4"
       id="imagebot_37"
       d="m 313.073,463.697 c 0,0 0.404,9.289 2.158,10.069 l 2.137,1.962 c 0,0 3.697,29.032 5.075,30.961 1.378,1.929 3.583,5.236 3.583,5.236 0,0 -5.512,5.512 -4.685,7.166 0.827,1.653 5.787,0.826 5.787,0.826 l 0,2.205 c 0,0 -5.236,1.103 -4.685,2.756 0.551,1.654 -4.134,14.882 -4.134,14.882 l 3.307,0.276 -1.102,1.102 -0.827,6.89 1.103,0.827 c 0,0 0.275,8.819 3.031,10.197 2.756,1.378 18.189,5.236 29.764,4.96 11.575,-0.275 32.796,-7.992 33.071,-9.094 0.276,-1.103 -1.102,-14.056 -3.582,-15.709 -2.481,-1.654 -8.544,-3.583 -8.544,-3.583 l -7.441,-8.268 5.237,0.552 c 0,0 -23.426,-52.087 -26.733,-55.119 -1.873,-1.717 0,-8.819 -1.102,-9.094 -1.103,-0.276 -3.583,-12.953 -3.583,-12.953"
       inkscape:connector-curvature="0"
       style="fill:none;stroke:#000000;stroke-width:2;stroke-linejoin:round;stroke-miterlimit:4;stroke-dashoffset:0" />
    <path
       transform="translate(-3.6323,-60.7185)"
       label="line"
       stroke-miterlimit="4"
       id="imagebot_36"
       d="m 149.922,365.31 c 0,0 10.297,-1.254 14.607,-3.858 2.56,-1.547 6.063,-6.614 6.063,-6.614 l 18.464,-5.237 c 1.707,-7.831 4.422,-31.31 -5.875,-42.24"
       inkscape:connector-curvature="0"
       style="fill:none;stroke:#000000;stroke-width:2;stroke-linejoin:round;stroke-miterlimit:4;stroke-dashoffset:0" />
    <path
       transform="translate(-3.6323,-60.7185)"
       label="line"
       stroke-miterlimit="4"
       id="imagebot_35"
       d="m 355.449,266.633 c 0,0 41.313,65.867 39.364,67.816 -1.948,1.949 -8.184,4.677 -8.184,4.677"
       inkscape:connector-curvature="0"
       style="fill:none;stroke:#000000;stroke-width:2;stroke-linejoin:round;stroke-miterlimit:4;stroke-dashoffset:0" />
    <path
       transform="translate(-3.6323,-60.7185)"
       label="line"
       stroke-miterlimit="4"
       id="imagebot_34"
       d="m 327.955,411.334 c 0,0 -1.378,-4.685 -1.378,-8.543 0,-3.859 7.441,-18.189 7.441,-18.189 l 7.4,-38.071 c 14.035,-5.758 28.245,-10.645 43.309,-11.261 0,0 9.066,20.398 15.709,32.52 7.667,13.991 13.504,40.788 12.126,46.3 -1.378,5.512 -4.824,9.27 -11.299,15.709 -0.85,0.844 -6.063,1.653 -6.063,1.653 0,0 -4.41,7.441 -6.615,7.441 -2.204,0 -9.094,-0.275 -9.094,-0.275 0,0 -5.072,3.036 -6.339,4.134 -6.382,5.53 -18.943,5.252 -18.189,-2.205 0.705,-6.977 -8.819,-33.622 -8.819,-33.622"
       inkscape:connector-curvature="0"
       style="fill:none;stroke:#000000;stroke-width:2;stroke-linejoin:round;stroke-miterlimit:4;stroke-dashoffset:0" />
    <path
       transform="translate(-3.6323,-60.7185)"
       label="line"
       stroke-miterlimit="4"
       id="imagebot_33"
       d="m 189.662,349.153 c -0.374,2.029 -0.71,3.978 -2.436,2.728"
       inkscape:connector-curvature="0"
       style="fill:none;stroke:#000000;stroke-linejoin:round;stroke-miterlimit:4;stroke-dashoffset:0" />
    <path
       transform="translate(-3.6323,-60.7185)"
       label="line"
       stroke-miterlimit="4"
       id="imagebot_32"
       d="m 200.631,298.617 -3.169,5.236 1.516,0.827 c 0,0 -1.378,7.027 -3.307,19.016 -1.929,11.988 -1.046,29.689 -1.046,29.689"
       inkscape:connector-curvature="0"
       style="fill:none;stroke:#000000;stroke-linejoin:round;stroke-miterlimit:4;stroke-dashoffset:0" />
    <path
       transform="translate(-3.6323,-60.7185)"
       label="line"
       stroke-miterlimit="4"
       id="imagebot_31"
       d="m 213.889,297.529 c -0.14,1.265 -1.698,14.371 -1.544,15.607 0.155,1.236 0,1.855 1.699,2.164 1.699,0.309 16.215,1.545 18.377,1.081 2.163,-0.463 2.935,-1.854 3.089,-3.09 0.155,-1.236 2.008,-12.362 2.317,-13.598 0.308,-1.237 -0.155,-2.936 -1.699,-2.936 -1.544,0 -17.451,-0.773 -18.687,-0.618 -1.235,0.154 -3.397,0 -3.552,1.39 z"
       inkscape:connector-curvature="0"
       style="fill:none;stroke:#000000;stroke-width:0.5;stroke-linejoin:round;stroke-miterlimit:4;stroke-dashoffset:0" />
    <path
       transform="translate(-3.6323,-60.7185)"
       label="line"
       stroke-miterlimit="4"
       d="m 217.975,300.734 c -0.09,0.803 -1.081,9.12 -0.983,9.905 0.098,0.784 0,1.177 1.081,1.373 1.081,0.196 10.32,0.981 11.696,0.686 1.376,-0.294 1.867,-1.176 1.966,-1.961 0.098,-0.785 1.277,-7.845 1.474,-8.63 0.196,-0.784 -0.098,-1.863 -1.081,-1.863 -0.983,0 -11.106,-0.49 -11.893,-0.392 -0.786,0.098 -2.162,0 -2.26,0.882 z"
       id="imagebot_30"
       inkscape:connector-curvature="0"
       style="fill:none;stroke:#000000;stroke-linejoin:round;stroke-miterlimit:4;stroke-dashoffset:0" />
    <path
       transform="translate(-3.6323,-60.7185)"
       label="line"
       stroke-miterlimit="4"
       d="m 261.438,301.388 c -0.127,1.264 -1.541,14.37 -1.362,15.607 0.179,1.236 0.028,1.854 1.793,2.163 1.766,0.309 16.831,1.545 19.064,1.082 2.234,-0.464 3.013,-1.855 3.154,-3.091 0.141,-1.236 1.892,-12.362 2.193,-13.598 0.301,-1.236 -0.205,-2.936 -1.805,-2.936 -1.601,0 -18.099,-0.773 -19.377,-0.618 -1.278,0.154 -3.522,0 -3.66,1.391 z"
       id="imagebot_29"
       inkscape:connector-curvature="0"
       style="fill:none;stroke:#000000;stroke-width:0.5;stroke-linejoin:round;stroke-miterlimit:4;stroke-dashoffset:0" />
    <path
       transform="translate(-3.6323,-60.7185)"
       label="line"
       stroke-miterlimit="4"
       id="imagebot_28"
       d="m 265.72,304.592 c -0.081,0.803 -0.981,9.121 -0.868,9.905 0.114,0.785 0.018,1.177 1.142,1.373 1.124,0.196 10.712,0.981 12.133,0.687 1.422,-0.295 1.918,-1.177 2.008,-1.962 0.09,-0.784 1.204,-7.845 1.396,-8.63 0.192,-0.784 -0.131,-1.863 -1.149,-1.863 -1.019,0 -11.519,-0.49 -12.333,-0.392 -0.813,0.098 -2.241,0 -2.329,0.882 z"
       inkscape:connector-curvature="0"
       style="fill:none;stroke:#000000;stroke-linejoin:round;stroke-miterlimit:4;stroke-dashoffset:0" />
    <path
       transform="translate(-3.6323,-60.7185)"
       label="line"
       stroke-miterlimit="4"
       id="imagebot_27"
       d="m 224.884,280.664 c -1.664,1.455 -3.702,7.041 -5.393,15.458 m -2.686,19.419 c -0.215,2.234 -0.348,3.898 -0.469,6.106 -0.235,4.267 -6.049,11.409 -6.847,12.802 -6.56,11.454 -17.196,26.363 -18.95,26.168 -1.754,-0.195 0.974,-2.533 0.974,-2.533"
       inkscape:connector-curvature="0"
       style="fill:none;stroke:#000000;stroke-linejoin:round;stroke-miterlimit:4;stroke-dashoffset:0" />
    <path
       transform="translate(-3.6323,-60.7185)"
       label="line"
       stroke-miterlimit="4"
       id="imagebot_26"
       d="m 238.135,287.289 c -1.387,1.376 -2.493,4.208 -3.719,9.081 m -3.833,20.059 c -0.76,5.559 -0.954,9.188 -0.632,9.835 0.903,1.823 34.168,2.378 34.102,0.975 -0.107,-2.316 0.012,-4.166 0.14,-7.631 m 2.014,-19.834 c 0.771,-3.91 1.535,-6.301 2.913,-9.172"
       inkscape:connector-curvature="0"
       style="fill:none;stroke:#000000;stroke-linejoin:round;stroke-miterlimit:4;stroke-dashoffset:0" />
    <path
       transform="translate(-3.6323,-60.7185)"
       label="line"
       stroke-miterlimit="4"
       id="imagebot_25"
       d="m 285.879,287.874 c -2.064,0.635 -3.334,5.308 -4.208,12.47 m -1.269,20.049 c -0.091,5.971 0.136,9.561 0.605,10.938 2.189,6.415 52.272,53.596 54.565,44.041"
       inkscape:connector-curvature="0"
       style="fill:none;stroke:#000000;stroke-linejoin:round;stroke-miterlimit:4;stroke-dashoffset:0" />
    <path
       transform="translate(-3.6323,-60.7185)"
       label="line"
       stroke-miterlimit="4"
       id="imagebot_24"
       d="m 325.244,326.069 c -0.975,-5.066 1.753,-19.097 3.507,-20.656 1.754,-1.559 1.949,6.236 0.975,8.964 -0.975,2.728 -3.313,7.99 -2.144,8.574 1.169,0.585 4.677,-4.287 5.067,-5.651 0.39,-1.364 0.974,-1.364 -0.195,1.559 -1.169,2.923 -3.703,8.185 -2.923,8.769 0.779,0.585 -0.975,3.313 -0.975,4.093 0,0.779 3.292,13.584 4.288,16.174 0.974,2.533 7.795,1.364 7.795,1.364"
       inkscape:connector-curvature="0"
       style="fill:none;stroke:#000000;stroke-linejoin:round;stroke-miterlimit:4;stroke-dashoffset:0" />
    <path
       transform="translate(-3.6323,-60.7185)"
       label="line"
       stroke-miterlimit="4"
       id="imagebot_23"
       d="m 342.198,346.141 c -0.78,0.195 -9.354,1.169 -7.795,1.949 1.559,0.779 4.677,0.39 4.677,0.39"
       inkscape:connector-curvature="0"
       style="fill:none;stroke:#000000;stroke-linejoin:round;stroke-miterlimit:4;stroke-dashoffset:0" />
    <path
       transform="translate(-3.6323,-60.7185)"
       label="line"
       stroke-miterlimit="4"
       id="imagebot_22"
       d="m 384.68,335.228 c 0,0 8.964,-1.948 8.185,-0.779 -0.78,1.169 -4.677,2.533 -4.677,2.533"
       inkscape:connector-curvature="0"
       style="fill:none;stroke:#000000;stroke-linejoin:round;stroke-miterlimit:4;stroke-dashoffset:0" />
    <path
       transform="translate(-3.6323,-60.7185)"
       label="line"
       stroke-miterlimit="4"
       id="imagebot_21"
       d="m 333.428,339.71 c 17.291,-7.976 34.197,-17.258 53.98,-16.759"
       inkscape:connector-curvature="0"
       style="fill:none;stroke:#000000;stroke-linejoin:round;stroke-miterlimit:4;stroke-dashoffset:0" />
    <path
       transform="translate(-3.6323,-60.7185)"
       label="line"
       stroke-miterlimit="4"
       id="imagebot_20"
       d="m 226.107,345.04 c 12.776,5.897 31.355,0.163 47.191,-0.075 l 2.57,-1.61 c 0,0 -0.504,31.878 -2.984,34.909 -7.144,8.731 -14.042,9.844 -15.327,10.166 -1.285,0.322 -17.027,0.644 -21.845,-2.253 -4.819,-2.898 -2.456,1.29 -10.509,-7.913 -3.858,-4.409 -3.627,-35.553 -3.627,-35.553 l 4.531,2.329 z"
       inkscape:connector-curvature="0"
       style="fill:none;stroke:#000000;stroke-linejoin:round;stroke-miterlimit:4;stroke-dashoffset:0" />
    <path
       transform="translate(-3.6323,-60.7185)"
       label="line"
       stroke-miterlimit="4"
       id="imagebot_19"
       d="m 237.96,352.048 c 0.322,7.084 0.964,27.046 2.57,30.587"
       inkscape:connector-curvature="0"
       style="fill:none;stroke:#000000;stroke-linejoin:round;stroke-miterlimit:4;stroke-dashoffset:0" />
    <path
       transform="translate(-3.6323,-60.7185)"
       label="line"
       stroke-miterlimit="4"
       d="m 246.634,352.37 c 0.321,7.084 0.964,27.045 2.57,30.587"
       id="imagebot_18"
       inkscape:connector-curvature="0"
       style="fill:none;stroke:#000000;stroke-linejoin:round;stroke-miterlimit:4;stroke-dashoffset:0" />
    <path
       transform="translate(-3.6323,-60.7185)"
       label="line"
       stroke-miterlimit="4"
       id="imagebot_17"
       d="m 409.966,395.107 c 0,0 55.002,-28.699 58.509,-27.919 3.508,0.779 3.118,5.846 1.17,9.353 -1.949,3.508 -56.124,31.96 -56.124,31.96"
       inkscape:connector-curvature="0"
       style="fill:none;stroke:#000000;stroke-width:2;stroke-linejoin:round;stroke-miterlimit:4;stroke-dashoffset:0" />
    <path
       transform="translate(-3.6323,-60.7185)"
       label="line"
       stroke-miterlimit="4"
       id="imagebot_16"
       d="m 403.467,375.231 c 0,0 13.229,-7.441 17.914,-8.267 4.685,-0.827 13.829,-1.282 22.323,-4.41 8.494,-3.128 17.362,-12.402 25.63,-13.228 8.268,-0.827 20.945,1.378 20.945,1.378 0,0 1.378,5.787 -3.583,6.614 -4.96,0.827 -8.543,-2.205 -17.086,0.551 -2.584,0.833 -13.404,10.66 -20.945,14.606 -8.422,4.408 -23.426,7.993 -26.733,9.922 -3.307,1.929 -12.677,7.992 -12.677,7.992"
       inkscape:connector-curvature="0"
       style="fill:none;stroke:#000000;stroke-width:2;stroke-linejoin:round;stroke-miterlimit:4;stroke-dashoffset:0" />
    <path
       transform="translate(-3.6323,-60.7185)"
       label="line"
       stroke-miterlimit="4"
       id="imagebot_15"
       d="m 405.948,377.712 c 0,0 13.291,-7.984 15.157,-8.544 5.512,-1.653 22.599,-3.858 29.213,-6.614 3.643,-1.518 14.607,-9.646 19.016,-11.299"
       inkscape:connector-curvature="0"
       style="fill:none;stroke:#000000;stroke-linejoin:round;stroke-miterlimit:4;stroke-dashoffset:0" />
    <path
       transform="translate(-3.6323,-60.7185)"
       label="line"
       stroke-miterlimit="4"
       id="imagebot_14"
       d="m 411.46,397.83 55.669,-27.559"
       inkscape:connector-curvature="0"
       style="fill:none;stroke:#000000;stroke-linejoin:round;stroke-miterlimit:4;stroke-dashoffset:0" />
    <path
       transform="translate(-3.6323,-60.7185)"
       label="line"
       stroke-miterlimit="4"
       id="imagebot_13"
       d="m 208.899,516.61 c 0,0 2.756,8.819 7.992,9.646 5.237,0.827 31.142,4.41 31.142,4.41"
       inkscape:connector-curvature="0"
       style="fill:none;stroke:#000000;stroke-linejoin:round;stroke-miterlimit:4;stroke-dashoffset:0" />
    <path
       transform="translate(-3.6323,-60.7185)"
       label="line"
       stroke-miterlimit="4"
       id="imagebot_12"
       d="m 248.309,521.571 c -1.378,-0.276 -10.473,-2.48 -7.166,-3.583 3.308,-1.102 4.134,-1.102 4.134,-1.102"
       inkscape:connector-curvature="0"
       style="fill:none;stroke:#000000;stroke-linejoin:round;stroke-miterlimit:4;stroke-dashoffset:0" />
    <path
       transform="translate(-3.6323,-60.7185)"
       label="line"
       stroke-miterlimit="4"
       id="imagebot_11"
       d="m 144.41,529.012 c 10.197,6.063 24.528,10.473 30.316,9.921 5.787,-0.551 56.772,-4.96 60.906,-4.96 4.133,0 12.677,1.378 12.677,1.378"
       inkscape:connector-curvature="0"
       style="fill:none;stroke:#000000;stroke-linejoin:round;stroke-miterlimit:4;stroke-dashoffset:0" />
    <path
       transform="translate(-3.6323,-60.7185)"
       label="line"
       stroke-miterlimit="4"
       id="imagebot_10"
       d="m 177.757,523.776 c 0,0 3.032,6.614 5.788,8.543 2.756,1.929 7.992,0.276 6.614,-1.653 -1.378,-1.93 -3.721,-9.371 -3.721,-9.371"
       inkscape:connector-curvature="0"
       style="fill:none;stroke:#000000;stroke-linejoin:round;stroke-miterlimit:4;stroke-dashoffset:0" />
    <path
       transform="translate(-3.6323,-60.7185)"
       label="line"
       stroke-miterlimit="4"
       id="imagebot_9"
       d="m 189.608,520.193 c 0,0 1.815,4.557 3.744,7.313 1.929,2.756 5.901,1.506 5.35,-0.699 -0.551,-2.204 -2.756,-7.992 -2.756,-7.992"
       inkscape:connector-curvature="0"
       style="fill:none;stroke:#000000;stroke-linejoin:round;stroke-miterlimit:4;stroke-dashoffset:0" />
    <path
       transform="translate(-3.6323,-60.7185)"
       label="line"
       stroke-miterlimit="4"
       id="imagebot_8"
       d="m 198.427,518.402 c 0.091,-0.023 1.088,0.734 2.366,5.031 1.398,4.704 9.094,3.583 7.716,0.276 -1.378,-3.307 -3.055,-6.961 -3.055,-6.961"
       inkscape:connector-curvature="0"
       style="fill:none;stroke:#000000;stroke-linejoin:round;stroke-miterlimit:4;stroke-dashoffset:0" />
    <path
       transform="translate(-3.6323,-60.7185)"
       label="line"
       stroke-miterlimit="4"
       id="imagebot_7"
       d="m 324.915,518.431 c 4.872,-3.508 7.015,-3.508 6.041,-1.949 -0.974,1.559 -3.118,5.067 -3.118,5.067"
       inkscape:connector-curvature="0"
       style="fill:none;stroke:#000000;stroke-linejoin:round;stroke-miterlimit:4;stroke-dashoffset:0" />
    <path
       transform="translate(-3.6323,-60.7185)"
       label="line"
       stroke-miterlimit="4"
       id="imagebot_6"
       d="m 321.407,541.816 c 0,2.728 0.39,8.185 3.508,7.6 3.118,-0.585 16.347,-12.307 22.995,-12.862 14.031,-1.169 24.562,5.833 28.655,5.248 4.092,-0.584 4.482,-1.169 4.482,-1.169"
       inkscape:connector-curvature="0"
       style="fill:none;stroke:#000000;stroke-linejoin:round;stroke-miterlimit:4;stroke-dashoffset:0" />
    <path
       transform="translate(-3.6323,-60.7185)"
       label="line"
       stroke-miterlimit="4"
       id="imagebot_5"
       d="m 331.93,536.749 c 2.136,-0.776 12.201,-4.961 19.14,-5.879 6.885,-0.911 12.497,2.292 13.641,2.533 3.925,0.827 2.143,-1.949 1.364,-2.338 -0.78,-0.39 -9.235,-4.328 -14.031,-3.703 -9.15,1.192 -18.896,4.927 -20.308,6.269 -3.898,3.703 -2.034,3.929 0.194,3.118 z"
       inkscape:connector-curvature="0"
       style="fill:none;stroke:#000000;stroke-linejoin:round;stroke-miterlimit:4;stroke-dashoffset:0" />
    <path
       transform="translate(-3.6323,-60.7185)"
       label="line"
       stroke-miterlimit="4"
       id="imagebot_4"
       d="m 331.346,533.826 c -3.088,1.209 -6.333,2.89 -9.939,5.652"
       inkscape:connector-curvature="0"
       style="fill:none;stroke:#000000;stroke-linejoin:round;stroke-miterlimit:4;stroke-dashoffset:0" />
    <path
       transform="translate(-3.6323,-60.7185)"
       label="line"
       stroke-miterlimit="4"
       id="imagebot_3"
       d="m 358.414,528.175 c 4.193,-0.688 7.28,-1.138 8.259,-0.632"
       inkscape:connector-curvature="0"
       style="fill:none;stroke:#000000;stroke-linejoin:round;stroke-miterlimit:4;stroke-dashoffset:0" />
    <title
       id="title3299">line</title>
  </g>
</svg>
