<?xml version="1.0" encoding="UTF-8" standalone="no"?>
<svg
   xmlns:dc="http://purl.org/dc/elements/1.1/"
   xmlns:cc="http://creativecommons.org/ns#"
   xmlns:rdf="http://www.w3.org/1999/02/22-rdf-syntax-ns#"
   xmlns:svg="http://www.w3.org/2000/svg"
   xmlns="http://www.w3.org/2000/svg"
   xmlns:sodipodi="http://sodipodi.sourceforge.net/DTD/sodipodi-0.dtd"
   xmlns:inkscape="http://www.inkscape.org/namespaces/inkscape"
   width="186.02159"
   height="188.41"
   clip-rule="evenodd"
   id="svg3496"
   version="1.1"
   inkscape:version="0.48.2 r9819"
   sodipodi:docname="puzzle_Pieces_1.svg"
   style="fill-rule:evenodd"
   inkscape:export-filename="G:\QT\Tec\2012\Proyectos\LCI\KidsPrograming\V1.3\NiPro\images\icons\set_0\puzzle_Pieces_1.png"
   inkscape:export-xdpi="90"
   inkscape:export-ydpi="90">
  <metadata
     id="metadata3685">
    <rdf:RDF>
      <cc:Work
         rdf:about="">
        <dc:format>image/svg+xml</dc:format>
        <dc:type
           rdf:resource="http://purl.org/dc/dcmitype/StillImage" />
        <dc:title></dc:title>
      </cc:Work>
    </rdf:RDF>
  </metadata>
  <defs
     id="defs3683" />
  <sodipodi:namedview
     pagecolor="#ffffff"
     bordercolor="#666666"
     borderopacity="1"
     objecttolerance="10"
     gridtolerance="10"
     guidetolerance="10"
     inkscape:pageopacity="0"
     inkscape:pageshadow="2"
     inkscape:window-width="640"
     inkscape:window-height="480"
     id="namedview3681"
     showgrid="false"
     fit-margin-top="0"
     fit-margin-left="0"
     fit-margin-right="0"
     fit-margin-bottom="0"
     inkscape:zoom="1.2553191"
     inkscape:cx="93.09663"
     inkscape:cy="94.41"
     inkscape:window-x="-32000"
     inkscape:window-y="-32000"
     inkscape:window-maximized="0"
     inkscape:current-layer="svg3496" />
  <g
     id="imagebot_1"
     transform="translate(0.09663,0)">
    <metadata
       id="imagebot_180" />
    <g
       transform="translate(-0.073043,0)"
       id="imagebot_2">
      <polygon
         points="112.736,104.284 112.736,135.863 101.438,147.139 101.438,115.873 "
         id="imagebot_179"
         style="fill:#030300" />
      <polygon
         points="131.819,119.979 131.392,120.153 130.976,120.34 130.569,120.537 142.158,108.994 142.569,108.795 142.99,108.607 143.42,108.43 143.859,108.266 144.308,108.113 132.698,119.665 132.254,119.816 "
         id="imagebot_178"
         style="fill:#030300" />
      <polygon
         points="129.786,120.964 129.41,121.194 129.045,121.433 128.693,121.683 140.263,110.151 140.619,109.9 140.987,109.658 141.367,109.426 141.757,109.205 142.158,108.994 130.569,120.537 130.172,120.745 "
         id="imagebot_177"
         style="fill:#030300" />
      <polygon
         points="128.023,122.21 127.707,122.487 127.403,122.773 138.961,111.253 139.267,110.964 139.586,110.684 139.918,110.413 140.263,110.151 128.693,121.683 128.352,121.941 "
         id="imagebot_176"
         style="fill:#030300" />
      <polygon
         points="131.819,119.979 131.392,120.153 130.976,120.34 130.569,120.537 130.172,120.745 129.786,120.964 129.41,121.194 129.045,121.433 128.693,121.683 128.352,121.941 128.023,122.21 127.707,122.487 127.403,122.773 138.961,111.253 139.267,110.964 139.586,110.684 139.918,110.413 140.263,110.151 140.619,109.9 140.987,109.658 141.367,109.426 141.757,109.205 142.158,108.994 142.569,108.795 142.99,108.607 143.42,108.43 143.859,108.266 144.308,108.113 132.698,119.665 132.254,119.816 "
         id="imagebot_175"
         style="fill:none;stroke:#373435;stroke-width:0.19326px;stroke-linejoin:bevel" />
      <polygon
         points="148.801,134.823 149.146,134.409 149.465,133.98 161.243,122.572 160.92,123.004 160.572,123.424 160.199,123.829 159.802,124.219 148.038,135.611 148.432,135.225 "
         id="imagebot_174"
         style="fill:#030300" />
      <polygon
         points="150.023,133.086 150.26,132.621 150.468,132.146 162.256,120.719 162.046,121.199 161.806,121.669 161.538,122.126 161.243,122.572 149.465,133.98 149.757,133.539 "
         id="imagebot_173"
         style="fill:#030300" />
      <polygon
         points="150.795,131.166 150.911,130.662 150.996,130.15 162.789,118.703 162.704,119.221 162.586,119.729 162.436,120.229 162.256,120.719 150.468,132.146 150.647,131.661 "
         id="imagebot_172"
         style="fill:#030300" />
      <polygon
         points="151.064,129.104 151.054,128.707 151.025,128.314 150.977,127.926 162.77,116.457 162.819,116.85 162.848,117.246 162.858,117.647 162.841,118.179 162.789,118.703 150.996,130.15 151.047,129.631 "
         id="imagebot_171"
         style="fill:#030300" />
      <polygon
         points="150.825,127.162 150.723,126.787 150.602,126.418 150.465,126.053 150.31,125.695 162.097,114.204 162.253,114.566 162.392,114.934 162.513,115.307 162.617,115.686 162.703,116.069 162.77,116.457 150.977,127.926 150.91,127.542 "
         id="imagebot_170"
         style="fill:#030300" />
      <polygon
         points="149.952,124.997 149.75,124.657 149.531,124.325 149.298,123.999 149.05,123.681 160.824,112.169 161.074,112.491 161.31,112.82 161.53,113.156 161.735,113.498 161.924,113.848 162.097,114.204 150.31,125.695 150.139,125.343 "
         id="imagebot_169"
         style="fill:#030300" />
      <polygon
         points="148.511,123.067 148.222,122.773 147.918,122.487 147.602,122.21 147.273,121.941 159.029,110.413 159.361,110.684 159.681,110.964 159.987,111.253 160.28,111.55 160.559,111.856 160.824,112.169 149.05,123.681 148.788,123.37 "
         id="imagebot_168"
         style="fill:#030300" />
      <polygon
         points="146.579,121.433 146.215,121.194 145.839,120.964 145.453,120.745 157.191,109.205 157.581,109.426 157.96,109.658 158.328,109.9 158.685,110.151 159.029,110.413 147.273,121.941 146.932,121.683 "
         id="imagebot_167"
         style="fill:#030300" />
      <polygon
         points="144.649,120.34 144.232,120.153 143.806,119.979 143.371,119.816 155.088,108.266 155.528,108.43 155.958,108.607 156.379,108.795 156.79,108.994 157.191,109.205 145.453,120.745 145.056,120.537 "
         id="imagebot_166"
         style="fill:#030300" />
      <polygon
         points="154.64,108.113 155.088,108.266 143.371,119.816 142.927,119.665 "
         id="imagebot_165"
         style="fill:#030300" />
      <polygon
         points="148.801,134.823 149.146,134.409 149.465,133.98 149.757,133.539 150.023,133.086 150.26,132.621 150.468,132.146 150.647,131.661 150.795,131.166 150.911,130.662 150.996,130.15 151.047,129.631 151.064,129.104 151.054,128.707 151.025,128.314 150.977,127.926 150.91,127.542 150.825,127.162 150.723,126.787 150.602,126.418 150.465,126.053 150.31,125.695 150.139,125.343 149.952,124.997 149.75,124.657 149.531,124.325 149.298,123.999 149.05,123.681 148.788,123.37 148.511,123.067 148.222,122.773 147.918,122.487 147.602,122.21 147.273,121.941 146.932,121.683 146.579,121.433 146.215,121.194 145.839,120.964 145.453,120.745 145.056,120.537 144.649,120.34 144.232,120.153 143.806,119.979 143.371,119.816 142.927,119.665 154.64,108.113 155.088,108.266 155.528,108.43 155.958,108.607 156.379,108.795 156.79,108.994 157.191,109.205 157.581,109.426 157.96,109.658 158.328,109.9 158.685,110.151 159.029,110.413 159.361,110.684 159.681,110.964 159.987,111.253 160.28,111.55 160.559,111.856 160.824,112.169 161.074,112.491 161.31,112.82 161.53,113.156 161.735,113.498 161.924,113.848 162.097,114.204 162.253,114.566 162.392,114.934 162.513,115.307 162.617,115.686 162.703,116.069 162.77,116.457 162.819,116.85 162.848,117.246 162.858,117.647 162.841,118.179 162.789,118.703 162.704,119.221 162.586,119.729 162.436,120.229 162.256,120.719 162.046,121.199 161.806,121.669 161.538,122.126 161.243,122.572 160.92,123.004 160.572,123.424 160.199,123.829 159.802,124.219 148.038,135.611 148.432,135.225 "
         id="imagebot_164"
         style="fill:none;stroke:#373435;stroke-width:0.19326px;stroke-linejoin:bevel" />
      <polygon
         points="154.64,104.498 154.64,108.113 142.927,119.665 142.927,116.085 "
         id="imagebot_163"
         style="fill:#030300" />
      <polygon
         points="154.64,104.498 154.64,108.113 142.927,119.665 142.927,116.085 "
         id="imagebot_162"
         style="fill:none;stroke:#373435;stroke-width:0.19326px;stroke-linejoin:bevel" />
      <polygon
         points="185.891,104.284 185.891,104.498 173.869,116.085 173.869,115.873 "
         id="imagebot_161"
         style="fill:#030300" />
      <polygon
         points="185.891,104.284 185.891,104.498 173.869,116.085 173.869,115.873 "
         id="imagebot_160"
         style="fill:none;stroke:#373435;stroke-width:0.19326px;stroke-linejoin:bevel" />
      <polygon
         points="112.736,177.546 185.998,177.546 173.975,188.41 101.438,188.41 "
         id="imagebot_159"
         style="fill:#030300" />
      <polygon
         points="112.736,146.198 112.736,177.546 101.438,188.41 101.438,157.373 "
         id="imagebot_158"
         style="fill:#030300" />
      <polygon
         points="109.197,146.198 112.736,146.198 101.438,157.373 97.9342,157.373 "
         id="imagebot_157"
         style="fill:#030300" />
      <polygon
         points="109.197,146.198 112.736,146.198 101.438,157.373 97.9342,157.373 "
         id="imagebot_156"
         style="fill:none;stroke:#373435;stroke-width:0.19326px;stroke-linejoin:bevel" />
      <polygon
         points="94.0386,163.393 93.7307,163.641 93.4154,163.875 93.0933,164.095 92.7646,164.3 103.975,153.195 104.307,152.988 104.633,152.766 104.951,152.53 105.262,152.279 105.566,152.015 105.862,151.738 94.6323,162.857 94.3394,163.132 "
         id="imagebot_155"
         style="fill:#030300" />
      <polygon
         points="92.0885,164.665 91.7413,164.824 91.3885,164.968 91.0306,165.095 90.6674,165.206 101.857,154.11 102.224,153.998 102.586,153.869 102.942,153.725 103.292,153.563 103.637,153.387 103.975,153.195 92.7646,164.3 92.4296,164.49 "
         id="imagebot_154"
         style="fill:#030300" />
      <polygon
         points="89.9266,165.376 89.5497,165.436 89.1688,165.477 88.7838,165.5 99.9548,154.407 100.344,154.383 100.728,154.342 101.109,154.282 101.485,154.204 101.857,154.11 90.6674,165.206 90.2992,165.3 "
         id="imagebot_153"
         style="fill:#030300" />
      <polygon
         points="99.8653,154.41 99.9548,154.407 88.7838,165.5 88.695,165.503 "
         id="imagebot_152"
         style="fill:#030300" />
      <polygon
         points="99.8653,154.41 99.9548,154.407 88.7838,165.5 88.695,165.503 "
         id="imagebot_151"
         style="fill:none;stroke:#373435;stroke-width:0.19326px;stroke-linejoin:bevel" />
      <polygon
         points="99.8549,154.41 99.8653,154.41 88.695,165.503 88.6849,165.504 "
         id="imagebot_150"
         style="fill:#030300" />
      <polygon
         points="99.8549,154.41 99.8653,154.41 88.695,165.503 88.6849,165.504 "
         id="imagebot_149"
         style="fill:none;stroke:#373435;stroke-width:0.19326px;stroke-linejoin:bevel" />
      <polygon
         points="88.6106,165.506 88.5735,165.507 88.5362,165.508 88.499,165.509 88.4617,165.509 88.4244,165.51 88.3871,165.51 87.8606,165.492 87.3412,165.441 86.8291,165.357 86.3254,165.24 97.4718,154.145 97.9806,154.263 98.4977,154.347 99.0225,154.399 99.5541,154.417 99.5919,154.417 99.6294,154.416 99.6672,154.416 99.7047,154.415 99.7425,154.414 99.7798,154.413 99.8176,154.412 99.8549,154.41 88.6849,165.504 88.6478,165.505 "
         id="imagebot_148"
         style="fill:#030300" />
      <polygon
         points="85.3452,164.914 84.8699,164.705 84.4053,164.468 95.5324,153.365 96.0018,153.604 96.4819,153.815 96.9722,153.995 97.4718,154.145 86.3254,165.24 85.8306,165.092 "
         id="imagebot_147"
         style="fill:#030300" />
      <polygon
         points="83.511,163.91 83.0826,163.591 82.6677,163.247 93.7776,152.131 94.1966,152.479 94.6292,152.801 95.0749,153.097 95.5324,153.365 84.4053,164.468 83.952,164.203 "
         id="imagebot_146"
         style="fill:#030300" />
      <polygon
         points="81.8802,162.484 81.5089,162.067 81.1536,161.628 92.2482,150.496 92.6071,150.94 92.9822,151.36 93.3723,151.758 93.7776,152.131 82.6677,163.247 82.2665,162.877 "
         id="imagebot_145"
         style="fill:#030300" />
      <polygon
         points="80.4934,160.687 80.1898,160.187 79.9045,159.667 90.9867,148.516 91.2748,149.04 91.5815,149.546 91.9064,150.032 92.2482,150.496 81.1536,161.628 80.815,161.168 "
         id="imagebot_144"
         style="fill:#030300" />
      <polygon
         points="79.3922,158.575 79.1662,158.003 78.9615,157.416 90.0344,146.242 90.2411,146.835 90.4693,147.412 90.7181,147.973 90.9867,148.516 79.9045,159.667 79.6384,159.13 "
         id="imagebot_143"
         style="fill:#030300" />
      <polygon
         points="78.6174,156.199 78.4796,155.57 89.5477,144.377 89.6867,145.013 89.8492,145.634 90.0344,146.242 78.9615,157.416 78.7782,156.814 "
         id="imagebot_142"
         style="fill:#030300" />
      <polygon
         points="78.2755,154.276 78.2103,153.613 89.2755,142.401 89.3415,143.071 89.432,143.73 89.5477,144.377 78.4796,155.57 78.3653,154.929 "
         id="imagebot_141"
         style="fill:#030300" />
      <polygon
         points="78.1575,152.258 78.1705,151.585 89.2355,140.352 89.2223,141.032 89.2357,141.721 89.2755,142.401 78.2103,153.613 78.1707,152.94 "
         id="imagebot_140"
         style="fill:#030300" />
      <polygon
         points="78.2724,150.265 78.3602,149.62 89.427,138.369 89.3384,139.02 89.2743,139.681 89.2355,140.352 78.1705,151.585 78.209,150.92 "
         id="imagebot_139"
         style="fill:#030300" />
      <polygon
         points="78.6059,148.365 78.7629,147.756 89.8338,136.486 89.6753,137.101 89.5396,137.729 89.427,138.369 78.3602,149.62 78.4715,148.987 "
         id="imagebot_138"
         style="fill:#030300" />
      <polygon
         points="79.1416,146.58 79.3622,146.014 79.6027,145.464 90.6819,134.17 90.4392,134.726 90.2162,135.297 90.0143,135.884 89.8338,136.486 78.7629,147.756 78.9417,147.161 "
         id="imagebot_137"
         style="fill:#030300" />
      <polygon
         points="80.1411,144.415 80.4378,143.917 80.7518,143.439 91.8424,132.125 91.5254,132.608 91.2256,133.111 90.9441,133.632 90.6819,134.17 79.6027,145.464 79.8624,144.931 "
         id="imagebot_136"
         style="fill:#030300" />
      <polygon
         points="81.4303,142.543 81.7932,142.127 82.1714,141.733 93.2762,130.402 92.8942,130.8 92.5277,131.22 92.177,131.662 91.8424,132.125 80.7518,143.439 81.0831,142.98 "
         id="imagebot_135"
         style="fill:#030300" />
      <polygon
         points="88.6106,165.506 88.5735,165.507 88.5362,165.508 88.499,165.509 88.4617,165.509 88.4244,165.51 88.3871,165.51 87.8606,165.492 87.3412,165.441 86.8291,165.357 86.3254,165.24 85.8306,165.092 85.3452,164.914 84.8699,164.705 84.4053,164.468 83.952,164.203 83.511,163.91 83.0826,163.591 82.6677,163.247 82.2665,162.877 81.8802,162.484 81.5089,162.067 81.1536,161.628 80.815,161.168 80.4934,160.687 80.1898,160.187 79.9045,159.667 79.6384,159.13 79.3922,158.575 79.1662,158.003 78.9615,157.416 78.7782,156.814 78.6174,156.199 78.4796,155.57 78.3653,154.929 78.2755,154.276 78.2103,153.613 78.1707,152.94 78.1575,152.258 78.1705,151.585 78.209,150.92 78.2724,150.265 78.3602,149.62 78.4715,148.987 78.6059,148.365 78.7629,147.756 78.9417,147.161 79.1416,146.58 79.3622,146.014 79.6027,145.464 79.8624,144.931 80.1411,144.415 80.4378,143.917 80.7518,143.439 81.0831,142.98 81.4303,142.543 81.7932,142.127 82.1714,141.733 93.2762,130.402 92.8942,130.8 92.5277,131.22 92.177,131.662 91.8424,132.125 91.5254,132.608 91.2256,133.111 90.9441,133.632 90.6819,134.17 90.4392,134.726 90.2162,135.297 90.0143,135.884 89.8338,136.486 89.6753,137.101 89.5396,137.729 89.427,138.369 89.3384,139.02 89.2743,139.681 89.2355,140.352 89.2223,141.032 89.2357,141.721 89.2755,142.401 89.3415,143.071 89.432,143.73 89.5477,144.377 89.6867,145.013 89.8492,145.634 90.0344,146.242 90.2411,146.835 90.4693,147.412 90.7181,147.973 90.9867,148.516 91.2748,149.04 91.5815,149.546 91.9064,150.032 92.2482,150.496 92.6071,150.94 92.9822,151.36 93.3723,151.758 93.7776,152.131 94.1966,152.479 94.6292,152.801 95.0749,153.097 95.5324,153.365 96.0018,153.604 96.4819,153.815 96.9722,153.995 97.4718,154.145 97.9806,154.263 98.4977,154.347 99.0225,154.399 99.5541,154.417 99.5919,154.417 99.6294,154.416 99.6672,154.416 99.7047,154.415 99.7425,154.414 99.7798,154.413 99.8176,154.412 99.8549,154.41 88.6849,165.504 88.6478,165.505 "
         id="imagebot_134"
         style="fill:none;stroke:#373435;stroke-width:0.19326px;stroke-linejoin:bevel" />
      <polygon
         points="112.949,41.6901 112.949,73.1549 101.65,85.0525 101.65,53.8991 "
         id="imagebot_133"
         style="fill:#000203" />
      <polygon
         points="112.736,73.1549 112.736,73.2619 101.438,85.1585 101.438,85.0525 "
         id="imagebot_132"
         style="fill:#000203" />
      <polygon
         points="112.736,73.1549 112.736,73.2619 101.438,85.1585 101.438,85.0525 "
         id="imagebot_131"
         style="fill:none;stroke:#373435;stroke-width:0.19326px;stroke-linejoin:bevel" />
      <polygon
         points="112.736,73.2619 144.314,73.2619 132.704,85.1585 101.438,85.1585 "
         id="imagebot_130"
         style="fill:#000203" />
      <polygon
         points="121.902,58.1547 122.241,57.6946 122.563,57.2137 134.071,45.0379 133.747,45.5235 133.404,45.9882 133.046,46.4313 132.671,46.852 121.176,59.0101 121.547,58.5934 "
         id="imagebot_129"
         style="fill:#000203" />
      <polygon
         points="123.152,56.1937 123.418,55.656 123.664,55.1011 135.184,42.9039 134.935,43.4644 134.666,44.0074 134.378,44.5321 134.071,45.0379 122.563,57.2137 122.866,56.7131 "
         id="imagebot_128"
         style="fill:#000203" />
      <polygon
         points="124.094,53.9425 124.278,53.3407 124.439,52.7251 135.966,40.5044 135.804,41.126 135.619,41.7339 135.412,42.3269 135.184,42.9039 123.664,55.1011 123.89,54.5296 "
         id="imagebot_127"
         style="fill:#000203" />
      <polygon
         points="124.691,51.455 124.781,50.8024 136.311,38.5624 136.221,39.2216 136.105,39.8691 135.966,40.5044 124.439,52.7251 124.576,52.0961 "
         id="imagebot_126"
         style="fill:#000203" />
      <polygon
         points="124.885,49.4663 124.898,48.7844 136.431,36.524 136.417,37.2129 136.377,37.8926 136.311,38.5624 124.781,50.8024 124.846,50.1392 "
         id="imagebot_125"
         style="fill:#000203" />
      <polygon
         points="124.846,47.4295 124.781,46.7663 136.311,34.4859 136.377,35.1558 136.417,35.8352 136.431,36.524 124.898,48.7844 124.885,48.1024 "
         id="imagebot_124"
         style="fill:#000203" />
      <polygon
         points="124.576,45.4726 124.439,44.8436 135.966,32.544 136.105,33.1793 136.221,33.8268 136.311,34.4859 124.781,46.7663 124.691,46.1137 "
         id="imagebot_123"
         style="fill:#000203" />
      <polygon
         points="124.094,43.6262 123.89,43.0391 123.664,42.4677 135.184,30.1442 135.412,30.7214 135.619,31.3144 135.804,31.9223 135.966,32.544 124.439,44.8436 124.278,44.228 "
         id="imagebot_122"
         style="fill:#000203" />
      <polygon
         points="123.152,41.3751 122.866,40.8556 122.563,40.355 134.071,28.0105 134.378,28.5162 134.666,29.0407 134.935,29.5837 135.184,30.1442 123.664,42.4677 123.418,41.9127 "
         id="imagebot_121"
         style="fill:#000203" />
      <polygon
         points="121.902,39.4141 121.547,38.9753 121.176,38.5586 132.671,26.1961 133.046,26.6168 133.404,27.0602 133.747,27.5248 134.071,28.0105 122.563,40.355 122.241,39.8741 "
         id="imagebot_120"
         style="fill:#000203" />
      <polygon
         points="120.388,37.7957 119.973,37.451 119.545,37.132 131.024,24.7552 131.456,25.0773 131.875,25.4256 132.281,25.7989 132.671,26.1961 121.176,38.5586 120.79,38.1652 "
         id="imagebot_119"
         style="fill:#000203" />
      <polygon
         points="118.651,36.574 118.186,36.3369 117.711,36.1284 129.171,23.7415 129.651,23.952 130.121,24.1917 130.578,24.4595 131.024,24.7552 119.545,37.132 119.104,36.8393 "
         id="imagebot_118"
         style="fill:#000203" />
      <polygon
         points="116.731,35.802 116.227,35.6853 115.715,35.6011 127.155,23.2089 127.672,23.2941 128.181,23.4118 128.681,23.5612 129.171,23.7415 117.711,36.1284 117.225,35.9498 "
         id="imagebot_117"
         style="fill:#000203" />
      <polygon
         points="114.669,35.5326 114.272,35.5425 113.879,35.5714 113.491,35.6196 124.909,23.2277 125.301,23.179 125.698,23.1498 126.099,23.1399 126.631,23.1572 127.155,23.2089 115.715,35.6011 115.195,35.5499 "
         id="imagebot_116"
         style="fill:#000203" />
      <polygon
         points="112.727,35.7713 112.352,35.874 111.983,35.9945 111.618,36.1319 111.26,36.2864 122.656,23.901 123.018,23.7451 123.386,23.6063 123.759,23.4846 124.137,23.3809 124.521,23.2951 124.909,23.2277 113.491,35.6196 113.107,35.6863 "
         id="imagebot_115"
         style="fill:#000203" />
      <polygon
         points="110.561,36.6443 110.222,36.8472 109.889,37.0653 109.564,37.2986 109.245,37.5466 120.621,25.174 120.942,24.9234 121.271,24.6878 121.607,24.4676 121.95,24.2627 122.3,24.0738 122.656,23.901 111.26,36.2864 110.908,36.4573 "
         id="imagebot_114"
         style="fill:#000203" />
      <polygon
         points="108.632,38.0853 108.338,38.3752 108.052,38.6786 119.416,26.3173 119.704,26.0109 120.002,25.718 120.308,25.4387 120.621,25.174 109.245,37.5466 108.935,37.8089 "
         id="imagebot_113"
         style="fill:#000203" />
      <polygon
         points="121.902,58.1547 122.241,57.6946 122.563,57.2137 122.866,56.7131 123.152,56.1937 123.418,55.656 123.664,55.1011 123.89,54.5296 124.094,53.9425 124.278,53.3407 124.439,52.7251 124.576,52.0961 124.691,51.455 124.781,50.8024 124.846,50.1392 124.885,49.4663 124.898,48.7844 124.885,48.1024 124.846,47.4295 124.781,46.7663 124.691,46.1137 124.576,45.4726 124.439,44.8436 124.278,44.228 124.094,43.6262 123.89,43.0391 123.664,42.4677 123.418,41.9127 123.152,41.3751 122.866,40.8556 122.563,40.355 122.241,39.8741 121.902,39.4141 121.547,38.9753 121.176,38.5586 120.79,38.1652 120.388,37.7957 119.973,37.451 119.545,37.132 119.104,36.8393 118.651,36.574 118.186,36.3369 117.711,36.1284 117.225,35.9498 116.731,35.802 116.227,35.6853 115.715,35.6011 115.195,35.5499 114.669,35.5326 114.272,35.5425 113.879,35.5714 113.491,35.6196 113.107,35.6863 112.727,35.7713 112.352,35.874 111.983,35.9945 111.618,36.1319 111.26,36.2864 110.908,36.4573 110.561,36.6443 110.222,36.8472 109.889,37.0653 109.564,37.2986 109.245,37.5466 108.935,37.8089 108.632,38.0853 108.338,38.3752 108.052,38.6786 119.416,26.3173 119.704,26.0109 120.002,25.718 120.308,25.4387 120.621,25.174 120.942,24.9234 121.271,24.6878 121.607,24.4676 121.95,24.2627 122.3,24.0738 122.656,23.901 123.018,23.7451 123.386,23.6063 123.759,23.4846 124.137,23.3809 124.521,23.2951 124.909,23.2277 125.301,23.179 125.698,23.1498 126.099,23.1399 126.631,23.1572 127.155,23.2089 127.672,23.2941 128.181,23.4118 128.681,23.5612 129.171,23.7415 129.651,23.952 130.121,24.1917 130.578,24.4595 131.024,24.7552 131.456,25.0773 131.875,25.4256 132.281,25.7989 132.671,26.1961 133.046,26.6168 133.404,27.0602 133.747,27.5248 134.071,28.0105 134.378,28.5162 134.666,29.0407 134.935,29.5837 135.184,30.1442 135.412,30.7214 135.619,31.3144 135.804,31.9223 135.966,32.544 136.105,33.1793 136.221,33.8268 136.311,34.4859 136.377,35.1558 136.417,35.8352 136.431,36.524 136.417,37.2129 136.377,37.8926 136.311,38.5624 136.221,39.2216 136.105,39.8691 135.966,40.5044 135.804,41.126 135.619,41.7339 135.412,42.3269 135.184,42.9039 134.935,43.4644 134.666,44.0074 134.378,44.5321 134.071,45.0379 133.747,45.5235 133.404,45.9882 133.046,46.4313 132.671,46.852 121.176,59.0101 121.547,58.5934 "
         id="imagebot_112"
         style="fill:none;stroke:#373435;stroke-width:0.19326px;stroke-linejoin:bevel" />
      <polygon
         points="112.949,31.3583 116.565,31.3583 105.23,43.6696 101.65,43.6696 "
         id="imagebot_111"
         style="fill:#000203" />
      <polygon
         points="112.949,31.3583 116.565,31.3583 105.23,43.6696 101.65,43.6696 "
         id="imagebot_110"
         style="fill:none;stroke:#373435;stroke-width:0.19326px;stroke-linejoin:bevel" />
      <polygon
         points="112.949,0.106775 112.949,31.3583 101.65,43.6696 101.65,12.7275 "
         id="imagebot_109"
         style="fill:#000203" />
      <polygon
         points="154.65,73.2619 185.998,73.2619 173.975,85.1585 142.938,85.1585 "
         id="imagebot_108"
         style="fill:#000203" />
      <polygon
         points="147.632,105.088 147.193,105.443 146.733,105.782 158.484,94.0916 158.948,93.7494 159.391,93.3906 159.812,93.0157 160.209,92.6254 148.442,104.33 148.049,104.717 "
         id="imagebot_107"
         style="fill:#000203" />
      <polygon
         points="145.751,106.407 145.232,106.692 144.694,106.958 156.425,95.2798 156.968,95.0112 157.492,94.7228 157.998,94.4162 158.484,94.0916 146.733,105.782 146.252,106.103 "
         id="imagebot_106"
         style="fill:#000203" />
      <polygon
         points="143.568,107.431 142.981,107.635 142.379,107.819 154.086,96.1487 154.694,95.9635 155.287,95.7568 155.864,95.5286 156.425,95.2798 144.694,106.958 144.139,107.205 "
         id="imagebot_105"
         style="fill:#000203" />
      <polygon
         points="141.135,108.117 140.493,108.231 152.182,96.5656 152.829,96.4502 153.464,96.311 154.086,96.1487 142.379,107.819 141.764,107.979 "
         id="imagebot_104"
         style="fill:#000203" />
      <polygon
         points="139.178,108.386 138.505,108.426 150.173,96.7622 150.853,96.7221 151.522,96.6564 152.182,96.5656 140.493,108.231 139.841,108.321 "
         id="imagebot_103"
         style="fill:#000203" />
      <polygon
         points="137.149,108.426 136.485,108.388 148.133,96.7234 148.804,96.7625 149.484,96.7754 150.173,96.7622 138.505,108.426 137.823,108.439 "
         id="imagebot_102"
         style="fill:#000203" />
      <polygon
         points="135.185,108.237 134.552,108.125 146.181,96.4584 146.821,96.5707 147.472,96.6595 148.133,96.7234 136.485,108.388 135.83,108.324 "
         id="imagebot_101"
         style="fill:#000203" />
      <polygon
         points="133.321,107.834 132.726,107.655 132.145,107.455 143.749,95.7817 144.336,95.9833 144.938,96.1642 145.553,96.3227 146.181,96.4584 134.552,108.125 133.93,107.991 "
         id="imagebot_100"
         style="fill:#000203" />
      <polygon
         points="131.029,106.994 130.495,106.734 129.98,106.456 141.562,94.772 142.084,95.0536 142.622,95.3158 143.178,95.5588 143.749,95.7817 132.145,107.455 131.579,107.234 "
         id="imagebot_99"
         style="fill:#000203" />
      <polygon
         points="129.004,105.845 128.545,105.514 128.108,105.166 139.672,93.4699 140.114,93.8207 140.577,94.1552 141.06,94.4723 141.562,94.772 129.98,106.456 129.482,106.159 "
         id="imagebot_98"
         style="fill:#000203" />
      <polygon
         points="127.298,104.425 126.927,104.033 126.58,103.627 138.129,91.9152 138.479,92.3253 138.854,92.7215 139.252,93.1035 139.672,93.4699 128.108,105.166 127.692,104.804 "
         id="imagebot_97"
         style="fill:#000203" />
      <polygon
         points="125.962,102.776 125.692,102.332 125.449,101.877 136.986,90.1475 137.232,90.6071 137.505,91.0552 137.804,91.4914 138.129,91.9152 126.58,103.627 126.258,103.207 "
         id="imagebot_96"
         style="fill:#000203" />
      <polygon
         points="125.047,100.935 124.89,100.45 124.764,99.9553 136.295,88.2068 136.423,88.7059 136.581,89.1962 136.769,89.6768 136.986,90.1475 125.449,101.877 125.234,101.411 "
         id="imagebot_95"
         style="fill:#000203" />
      <polygon
         points="124.605,98.9428 124.575,98.426 136.103,86.6622 136.135,87.1842 136.199,87.6993 136.295,88.2068 124.764,99.9553 124.669,99.4529 "
         id="imagebot_94"
         style="fill:#000203" />
      <polygon
         points="147.632,105.088 147.193,105.443 146.733,105.782 146.252,106.103 145.751,106.407 145.232,106.692 144.694,106.958 144.139,107.205 143.568,107.431 142.981,107.635 142.379,107.819 141.764,107.979 141.135,108.117 140.493,108.231 139.841,108.321 139.178,108.386 138.505,108.426 137.823,108.439 137.149,108.426 136.485,108.388 135.83,108.324 135.185,108.237 134.552,108.125 133.93,107.991 133.321,107.834 132.726,107.655 132.145,107.455 131.579,107.234 131.029,106.994 130.495,106.734 129.98,106.456 129.482,106.159 129.004,105.845 128.545,105.514 128.108,105.166 127.692,104.804 127.298,104.425 126.927,104.033 126.58,103.627 126.258,103.207 125.962,102.776 125.692,102.332 125.449,101.877 125.234,101.411 125.047,100.935 124.89,100.45 124.764,99.9553 124.669,99.4529 124.605,98.9428 124.575,98.426 136.103,86.6622 136.135,87.1842 136.199,87.6993 136.295,88.2068 136.423,88.7059 136.581,89.1962 136.769,89.6768 136.986,90.1475 137.232,90.6071 137.505,91.0552 137.804,91.4914 138.129,91.9152 138.479,92.3253 138.854,92.7215 139.252,93.1035 139.672,93.4699 140.114,93.8207 140.577,94.1552 141.06,94.4723 141.562,94.772 142.084,95.0536 142.622,95.3158 143.178,95.5588 143.749,95.7817 144.336,95.9833 144.938,96.1642 145.553,96.3227 146.181,96.4584 146.821,96.5707 147.472,96.6595 148.133,96.7234 148.804,96.7625 149.484,96.7754 150.173,96.7622 150.853,96.7221 151.522,96.6564 152.182,96.5656 152.829,96.4502 153.464,96.311 154.086,96.1487 154.694,95.9635 155.287,95.7568 155.864,95.5286 156.425,95.2798 156.968,95.0112 157.492,94.7228 157.998,94.4162 158.484,94.0916 158.948,93.7494 159.391,93.3906 159.812,93.0157 160.209,92.6254 148.442,104.33 148.049,104.717 "
         id="imagebot_93"
         style="fill:none;stroke:#373435;stroke-width:0.19326px;stroke-linejoin:bevel" />
      <polygon
         points="144.314,73.2619 144.314,76.7999 132.704,88.6613 132.704,85.1585 "
         id="imagebot_92"
         style="fill:#000203" />
      <polygon
         points="144.314,73.2619 144.314,76.7999 132.704,88.6613 132.704,85.1585 "
         id="imagebot_91"
         style="fill:none;stroke:#373435;stroke-width:0.19326px;stroke-linejoin:bevel" />
      <polygon
         points="124.572,98.3448 124.57,98.3042 124.569,98.2634 124.569,98.2228 124.568,98.182 124.567,98.1414 124.567,98.1006 124.577,97.7039 124.606,97.311 124.654,96.9225 124.721,96.5383 124.806,96.1586 136.337,84.372 136.251,84.7555 136.184,85.1435 136.135,85.5362 136.106,85.9328 136.096,86.3335 136.096,86.3746 136.097,86.4157 136.097,86.457 136.098,86.4979 136.099,86.5392 136.1,86.5801 136.102,86.6211 136.103,86.6622 124.575,98.426 124.573,98.3854 "
         id="imagebot_90"
         style="fill:#000203" />
      <polygon
         points="125.029,95.4142 125.167,95.05 125.321,94.6916 125.492,94.3394 125.679,93.9932 137.219,82.185 137.03,82.5345 136.857,82.8904 136.702,83.2523 136.563,83.6203 136.441,83.9934 136.337,84.372 124.806,96.1586 124.909,95.7837 "
         id="imagebot_89"
         style="fill:#000203" />
      <polygon
         points="126.1,93.3211 126.333,92.9954 126.581,92.6771 126.843,92.3667 127.12,92.0639 138.674,80.2365 138.395,80.5423 138.13,80.8558 137.88,81.1772 137.644,81.5061 137.424,81.8419 137.219,82.185 125.679,93.9932 125.882,93.6536 "
         id="imagebot_88"
         style="fill:#000203" />
      <polygon
         points="83.5117,73.2619 83.6188,73.2619 72.6096,85.1585 72.5036,85.1585 "
         id="imagebot_87"
         style="fill:#030101" />
      <polygon
         points="83.5117,73.2619 83.6188,73.2619 72.6096,85.1585 72.5036,85.1585 "
         id="imagebot_86"
         style="fill:none;stroke:#373435;stroke-width:0.19326px;stroke-linejoin:bevel" />
      <polygon
         points="83.5117,73.0483 83.5117,73.2619 72.5036,85.1585 72.5036,84.947 "
         id="imagebot_85"
         style="fill:#030101" />
      <polygon
         points="83.5117,73.0483 83.5117,73.2619 72.5036,85.1585 72.5036,84.947 "
         id="imagebot_84"
         style="fill:none;stroke:#373435;stroke-width:0.19326px;stroke-linejoin:bevel" />
      <polygon
         points="52.0469,73.0483 83.5117,73.0483 72.5036,84.947 41.3502,84.947 "
         id="imagebot_83"
         style="fill:#030101" />
      <polygon
         points="47.7212,77.033 47.9545,76.7073 48.1726,76.3748 48.3755,76.0352 48.5624,75.689 59.3312,63.6978 59.1425,64.0476 58.9376,64.3905 58.7172,64.7262 58.4816,65.0552 58.231,65.3768 57.9662,65.6903 47.2109,77.6617 47.4731,77.3513 "
         id="imagebot_82"
         style="fill:#030101" />
      <polygon
         points="48.8878,74.9784 49.0253,74.6142 49.1458,74.2447 49.2485,73.8698 49.3334,73.4901 60.1101,61.4768 60.0241,61.8603 59.9204,62.239 59.7986,62.6123 59.6599,62.9801 59.5039,63.342 59.3312,63.6978 48.5624,75.689 48.7334,75.3368 "
         id="imagebot_81"
         style="fill:#030101" />
      <polygon
         points="49.4483,72.7174 49.4773,72.3245 49.4871,71.9278 49.4699,71.4013 60.2478,59.3672 60.2653,59.8991 60.2552,60.2995 60.226,60.6965 60.1773,61.0888 60.1101,61.4768 49.3334,73.4901 49.4002,73.1059 "
         id="imagebot_80"
         style="fill:#030101" />
      <polygon
         points="49.3345,70.3698 49.2178,69.8661 49.0699,69.3713 59.8438,57.3169 59.9932,57.8166 60.1111,58.3253 60.1961,58.8427 60.2478,59.3672 49.4699,71.4013 49.4187,70.8819 "
         id="imagebot_79"
         style="fill:#030101" />
      <polygon
         points="48.6829,68.4106 48.4458,67.946 48.1805,67.4928 58.9455,55.4196 59.2135,55.8774 59.4529,56.3466 59.6635,56.8267 59.8438,57.3169 49.0699,69.3713 48.8914,68.8859 "
         id="imagebot_78"
         style="fill:#030101" />
      <polygon
         points="47.5688,66.6233 47.2241,66.2084 46.8546,65.8072 57.6063,53.717 57.9794,54.1223 58.3276,54.5416 58.65,54.974 58.9455,55.4196 48.1805,67.4928 47.8878,67.0517 "
         id="imagebot_77"
         style="fill:#030101" />
      <polygon
         points="46.0445,65.0496 45.6057,64.6945 45.1457,64.3557 55.8802,52.2511 56.3451,52.5935 56.7881,52.9521 57.2089,53.327 57.6063,53.717 46.8546,65.8072 46.4612,65.4209 "
         id="imagebot_76"
         style="fill:#030101" />
      <polygon
         points="44.1641,63.7305 43.6447,63.4452 43.107,63.1792 53.8213,51.0629 54.3643,51.3315 54.889,51.6198 55.3948,51.9265 55.8802,52.2511 45.1457,64.3557 44.6648,64.0341 "
         id="imagebot_75"
         style="fill:#030101" />
      <polygon
         points="41.9807,62.7069 41.3936,62.5022 40.7917,62.3189 51.4829,50.194 52.0908,50.3791 52.6838,50.5858 53.2608,50.8141 53.8213,51.0629 43.107,63.1792 42.5521,62.9329 "
         id="imagebot_74"
         style="fill:#030101" />
      <polygon
         points="39.5472,62.0204 38.9061,61.906 49.5782,49.777 50.2259,49.8924 50.8613,50.0317 51.4829,50.194 40.7917,62.3189 40.1762,62.1581 "
         id="imagebot_73"
         style="fill:#030101" />
      <polygon
         points="37.5903,61.751 36.9174,61.7114 47.5698,49.5805 48.2495,49.6203 48.9193,49.6862 49.5782,49.777 38.9061,61.906 38.2535,61.8162 "
         id="imagebot_72"
         style="fill:#030101" />
      <polygon
         points="35.5534,61.7114 34.8806,61.751 45.5126,49.6203 46.1921,49.5805 46.8809,49.567 47.5698,49.5805 36.9174,61.7114 36.2354,61.6983 "
         id="imagebot_71"
         style="fill:#030101" />
      <polygon
         points="33.5648,61.906 32.9236,62.0204 43.5362,49.8924 44.1837,49.777 44.8428,49.6862 45.5126,49.6203 34.8806,61.751 34.2174,61.8162 "
         id="imagebot_70"
         style="fill:#030101" />
      <polygon
         points="31.6791,62.3189 31.0773,62.5022 41.6713,50.3791 42.2792,50.194 42.9008,50.0317 43.5362,49.8924 32.9236,62.0204 32.2946,62.1581 "
         id="imagebot_69"
         style="fill:#030101" />
      <polygon
         points="29.9187,62.9329 29.3638,63.1792 28.8261,63.4452 39.3976,51.3315 39.9406,51.0629 40.5011,50.8141 41.0783,50.5858 41.6713,50.3791 31.0773,62.5022 30.4901,62.7069 "
         id="imagebot_68"
         style="fill:#030101" />
      <polygon
         points="27.8061,64.0341 27.3252,64.3557 26.8651,64.6945 37.417,52.5935 37.8817,52.2511 38.3674,51.9265 38.8731,51.6198 39.3976,51.3315 28.8261,63.4452 28.3067,63.7305 "
         id="imagebot_67"
         style="fill:#030101" />
      <polygon
         points="26.0097,65.4209 25.6163,65.8072 25.2468,66.2084 35.7824,54.1223 36.1555,53.717 36.553,53.327 36.9737,52.9521 37.417,52.5935 26.8651,64.6945 26.4264,65.0496 "
         id="imagebot_66"
         style="fill:#030101" />
      <polygon
         points="47.7212,77.033 47.9545,76.7073 48.1726,76.3748 48.3755,76.0352 48.5624,75.689 48.7334,75.3368 48.8878,74.9784 49.0253,74.6142 49.1458,74.2447 49.2485,73.8698 49.3334,73.4901 49.4002,73.1059 49.4483,72.7174 49.4773,72.3245 49.4871,71.9278 49.4699,71.4013 49.4187,70.8819 49.3345,70.3698 49.2178,69.8661 49.0699,69.3713 48.8914,68.8859 48.6829,68.4106 48.4458,67.946 48.1805,67.4928 47.8878,67.0517 47.5688,66.6233 47.2241,66.2084 46.8546,65.8072 46.4612,65.4209 46.0445,65.0496 45.6057,64.6945 45.1457,64.3557 44.6648,64.0341 44.1641,63.7305 43.6447,63.4452 43.107,63.1792 42.5521,62.9329 41.9807,62.7069 41.3936,62.5022 40.7917,62.3189 40.1762,62.1581 39.5472,62.0204 38.9061,61.906 38.2535,61.8162 37.5903,61.751 36.9174,61.7114 36.2354,61.6983 35.5534,61.7114 34.8806,61.751 34.2174,61.8162 33.5648,61.906 32.9236,62.0204 32.2946,62.1581 31.6791,62.3189 31.0773,62.5022 30.4901,62.7069 29.9187,62.9329 29.3638,63.1792 28.8261,63.4452 28.3067,63.7305 27.8061,64.0341 27.3252,64.3557 26.8651,64.6945 26.4264,65.0496 26.0097,65.4209 25.6163,65.8072 25.2468,66.2084 35.7824,54.1223 36.1555,53.717 36.553,53.327 36.9737,52.9521 37.417,52.5935 37.8817,52.2511 38.3674,51.9265 38.8731,51.6198 39.3976,51.3315 39.9406,51.0629 40.5011,50.8141 41.0783,50.5858 41.6713,50.3791 42.2792,50.194 42.9008,50.0317 43.5362,49.8924 44.1837,49.777 44.8428,49.6862 45.5126,49.6203 46.1921,49.5805 46.8809,49.567 47.5698,49.5805 48.2495,49.6203 48.9193,49.6862 49.5782,49.777 50.2259,49.8924 50.8613,50.0317 51.4829,50.194 52.0908,50.3791 52.6838,50.5858 53.2608,50.8141 53.8213,51.0629 54.3643,51.3315 54.889,51.6198 55.3948,51.9265 55.8802,52.2511 56.3451,52.5935 56.7881,52.9521 57.2089,53.327 57.6063,53.717 57.9794,54.1223 58.3276,54.5416 58.65,54.974 58.9455,55.4196 59.2135,55.8774 59.4529,56.3466 59.6635,56.8267 59.8438,57.3169 59.9932,57.8166 60.1111,58.3253 60.1961,58.8427 60.2478,59.3672 60.2653,59.8991 60.2552,60.2995 60.226,60.6965 60.1773,61.0888 60.1101,61.4768 60.0241,61.8603 59.9204,62.239 59.7986,62.6123 59.6599,62.9801 59.5039,63.342 59.3312,63.6978 59.1425,64.0476 58.9376,64.3905 58.7172,64.7262 58.4816,65.0552 58.231,65.3768 57.9662,65.6903 47.2109,77.6617 47.4731,77.3513 "
         id="imagebot_65"
         style="fill:none;stroke:#373435;stroke-width:0.19326px;stroke-linejoin:bevel" />
      <polygon
         points="52.0469,69.4327 52.0469,73.0483 41.3502,84.947 41.3502,81.3671 "
         id="imagebot_64"
         style="fill:#030101" />
      <polygon
         points="52.0469,69.4327 52.0469,73.0483 41.3502,84.947 41.3502,81.3671 "
         id="imagebot_63"
         style="fill:none;stroke:#373435;stroke-width:0.19326px;stroke-linejoin:bevel" />
      <polygon
         points="10.4634,73.0483 41.7149,73.0483 31.1206,84.947 0.17855,84.947 "
         id="imagebot_62"
         style="fill:#030101" />
      <polygon
         points="10.3569,73.2619 10.4634,73.2619 0.17855,85.1585 0.073043,85.1585 "
         id="imagebot_61"
         style="fill:#030101" />
      <polygon
         points="10.3569,73.2619 10.4634,73.2619 0.17855,85.1585 0.073043,85.1585 "
         id="imagebot_60"
         style="fill:none;stroke:#373435;stroke-width:0.19326px;stroke-linejoin:bevel" />
      <polygon
         points="10.3569,0 10.3569,73.2619 0.073043,85.1585 0.073043,12.622 "
         id="imagebot_59"
         style="fill:#030101" />
      <polygon
         points="76.42,42.8002 76.5902,42.3832 76.7715,41.9754 76.9632,41.5769 88.0161,29.2446 87.8223,29.6471 87.6392,30.059 87.4675,30.48 87.3067,30.9096 87.1581,31.3476 76.1136,43.6592 76.261,43.2255 "
         id="imagebot_58"
         style="fill:#030101" />
      <polygon
         points="77.3782,40.809 77.6006,40.4402 77.8329,40.0821 78.0746,39.7349 89.1386,27.384 88.8944,27.7348 88.6598,28.0964 88.435,28.469 88.2205,28.8517 88.0161,29.2446 76.9632,41.5769 77.1656,41.1879 "
         id="imagebot_57"
         style="fill:#030101" />
      <polygon
         points="78.5851,39.0747 78.8537,38.7622 89.9256,26.4017 89.6542,26.7173 89.392,27.0449 89.1386,27.384 78.0746,39.7349 78.3254,39.3991 "
         id="imagebot_56"
         style="fill:#030101" />
      <polygon
         points="76.42,42.8002 76.5902,42.3832 76.7715,41.9754 76.9632,41.5769 77.1656,41.1879 77.3782,40.809 77.6006,40.4402 77.8329,40.0821 78.0746,39.7349 78.3254,39.3991 78.5851,39.0747 78.8537,38.7622 89.9256,26.4017 89.6542,26.7173 89.392,27.0449 89.1386,27.384 88.8944,27.7348 88.6598,28.0964 88.435,28.469 88.2205,28.8517 88.0161,29.2446 87.8223,29.6471 87.6392,30.059 87.4675,30.48 87.3067,30.9096 87.1581,31.3476 76.1136,43.6592 76.261,43.2255 "
         id="imagebot_55"
         style="fill:none;stroke:#373435;stroke-width:0.19326px;stroke-linejoin:bevel" />
      <polygon
         points="91.4841,59.6698 91.078,60.0165 90.6585,60.3383 101.848,48.1937 102.272,47.8685 102.682,47.5183 103.078,47.1439 103.46,46.746 92.2546,58.9051 91.8764,59.299 "
         id="imagebot_54"
         style="fill:#030101" />
      <polygon
         points="89.7828,60.9052 89.3278,61.1482 88.8619,61.3632 100.034,49.2287 100.504,49.0116 100.964,48.7661 101.412,48.4929 101.848,48.1937 90.6585,60.3383 90.2266,60.6348 "
         id="imagebot_53"
         style="fill:#030101" />
      <polygon
         points="87.9007,61.7064 87.4064,61.8327 86.9039,61.928 98.0562,49.7991 98.5637,49.703 99.0628,49.5754 99.5531,49.4171 100.034,49.2287 88.8619,61.3632 88.3861,61.5496 "
         id="imagebot_52"
         style="fill:#030101" />
      <polygon
         points="85.877,62.0221 97.0191,49.8942 97.5411,49.8633 98.0562,49.7991 86.9039,61.928 86.3939,61.9914 "
         id="imagebot_51"
         style="fill:#030101" />
      <polygon
         points="91.4841,59.6698 91.078,60.0165 90.6585,60.3383 90.2266,60.6348 89.7828,60.9052 89.3278,61.1482 88.8619,61.3632 88.3861,61.5496 87.9007,61.7064 87.4064,61.8327 86.9039,61.928 86.3939,61.9914 85.877,62.0221 97.0191,49.8942 97.5411,49.8633 98.0562,49.7991 98.5637,49.703 99.0628,49.5754 99.5531,49.4171 100.034,49.2287 100.504,49.0116 100.964,48.7661 101.412,48.4929 101.848,48.1937 102.272,47.8685 102.682,47.5183 103.078,47.1439 103.46,46.746 92.2546,58.9051 91.8764,59.299 "
         id="imagebot_50"
         style="fill:none;stroke:#373435;stroke-width:0.19326px;stroke-linejoin:bevel" />
      <polygon
         points="85.7959,62.0252 85.7553,62.0264 85.7144,62.0275 85.6739,62.0282 85.633,62.029 85.5925,62.0292 85.5516,62.0295 85.155,62.0196 84.7621,61.9907 84.3735,61.9425 83.9893,61.8758 83.6096,61.7908 94.7289,49.6606 95.1124,49.7463 95.5004,49.8138 95.893,49.8625 96.2897,49.8917 96.6904,49.9016 96.7315,49.9013 96.7726,49.9011 96.8139,49.9003 96.8548,49.8995 96.8961,49.8985 96.9369,49.8973 96.978,49.8957 97.0191,49.8942 85.877,62.0221 85.8364,62.0237 "
         id="imagebot_49"
         style="fill:#030101" />
      <polygon
         points="82.8653,61.5676 82.5011,61.4302 82.1427,61.2757 81.7904,61.1048 81.4442,60.9179 92.5419,48.779 92.8914,48.9677 93.2473,49.1404 93.6092,49.2964 93.9772,49.4352 94.3503,49.5569 94.7289,49.6606 83.6096,61.7908 83.2348,61.6881 "
         id="imagebot_48"
         style="fill:#030101" />
      <polygon
         points="80.7721,60.4969 80.4465,60.2635 80.1282,60.0155 79.8177,59.7532 79.5149,59.4768 90.5934,47.3235 90.8992,47.6027 91.2127,47.8675 91.534,48.1181 91.863,48.3537 92.1988,48.5741 92.5419,48.779 81.4442,60.9179 81.1046,60.715 "
         id="imagebot_47"
         style="fill:#030101" />
      <polygon
         points="78.9346,58.8836 78.6574,58.5673 78.3891,58.2386 78.1301,57.8975 89.1946,45.7285 89.4561,46.0729 89.7272,46.4049 90.0072,46.7242 90.2959,47.0306 90.5934,47.3235 79.5149,59.4768 79.2205,59.1869 "
         id="imagebot_46"
         style="fill:#030101" />
      <polygon
         points="77.6414,57.1802 77.4119,56.8046 77.193,56.4181 76.9845,56.0212 88.0376,43.8334 88.2481,44.2341 88.4693,44.6245 88.7011,45.0039 88.9428,45.3721 89.1946,45.7285 78.1301,57.8975 77.8808,57.5447 "
         id="imagebot_45"
         style="fill:#030101" />
      <polygon
         points="76.6011,55.1977 76.4263,54.7716 76.2632,54.3364 76.1123,53.8926 87.1565,41.6835 87.309,42.1316 87.4738,42.5711 87.6503,43.0015 87.8383,43.4225 88.0376,43.8334 76.9845,56.0212 76.7872,55.6144 "
         id="imagebot_44"
         style="fill:#030101" />
      <polygon
         points="85.7959,62.0252 85.7553,62.0264 85.7144,62.0275 85.6739,62.0282 85.633,62.029 85.5925,62.0292 85.5516,62.0295 85.155,62.0196 84.7621,61.9907 84.3735,61.9425 83.9893,61.8758 83.6096,61.7908 83.2348,61.6881 82.8653,61.5676 82.5011,61.4302 82.1427,61.2757 81.7904,61.1048 81.4442,60.9179 81.1046,60.715 80.7721,60.4969 80.4465,60.2635 80.1282,60.0155 79.8177,59.7532 79.5149,59.4768 79.2205,59.1869 78.9346,58.8836 78.6574,58.5673 78.3891,58.2386 78.1301,57.8975 77.8808,57.5447 77.6414,57.1802 77.4119,56.8046 77.193,56.4181 76.9845,56.0212 76.7872,55.6144 76.6011,55.1977 76.4263,54.7716 76.2632,54.3364 76.1123,53.8926 87.1565,41.6835 87.309,42.1316 87.4738,42.5711 87.6503,43.0015 87.8383,43.4225 88.0376,43.8334 88.2481,44.2341 88.4693,44.6245 88.7011,45.0039 88.9428,45.3721 89.1946,45.7285 89.4561,46.0729 89.7272,46.4049 90.0072,46.7242 90.2959,47.0306 90.5934,47.3235 90.8992,47.6027 91.2127,47.8675 91.534,48.1181 91.863,48.3537 92.1988,48.5741 92.5419,48.779 92.8914,48.9677 93.2473,49.1404 93.6092,49.2964 93.9772,49.4352 94.3503,49.5569 94.7289,49.6606 95.1124,49.7463 95.5004,49.8138 95.893,49.8625 96.2897,49.8917 96.6904,49.9016 96.7315,49.9013 96.7726,49.9011 96.8139,49.9003 96.8548,49.8995 96.8961,49.8985 96.9369,49.8973 96.978,49.8957 97.0191,49.8942 85.877,62.0221 85.8364,62.0237 "
         id="imagebot_43"
         style="fill:none;stroke:#373435;stroke-width:0.19326px;stroke-linejoin:bevel" />
      <polygon
         points="83.6188,41.6835 87.1565,41.6835 76.1123,53.8926 72.6096,53.8926 "
         id="imagebot_42"
         style="fill:#030101" />
      <polygon
         points="83.6188,41.6835 87.1565,41.6835 76.1123,53.8926 72.6096,53.8926 "
         id="imagebot_41"
         style="fill:none;stroke:#373435;stroke-width:0.19326px;stroke-linejoin:bevel" />
      <polygon
         points="41.7045,100.609 41.7045,104.284 31.1102,115.873 31.1102,112.235 "
         id="imagebot_40"
         style="fill:#030201" />
      <polygon
         points="41.7045,100.609 41.7045,104.284 31.1102,115.873 31.1102,112.235 "
         id="imagebot_39"
         style="fill:none;stroke:#373435;stroke-width:0.19326px;stroke-linejoin:bevel" />
      <polygon
         points="30.2312,111.921 29.8051,111.746 29.3884,111.56 28.9816,111.363 39.5546,99.7286 39.9654,99.9277 40.3864,100.116 40.8166,100.292 41.2564,100.457 41.7045,100.609 31.1102,112.235 30.6664,112.084 "
         id="imagebot_38"
         style="fill:#030201" />
      <polygon
         points="28.1982,110.936 27.8225,110.706 27.4581,110.467 27.1053,110.217 37.6595,98.5713 38.0158,98.8231 38.3838,99.0651 38.7633,99.2969 39.1538,99.5178 39.5546,99.7286 28.9816,111.363 28.5847,111.154 "
         id="imagebot_37"
         style="fill:#030201" />
      <polygon
         points="26.4355,109.69 26.1192,109.413 25.8159,109.127 25.526,108.833 36.0645,97.1728 36.3572,97.4703 36.6635,97.7589 36.9831,98.0389 37.3151,98.3098 37.6595,98.5713 27.1053,110.217 26.7642,109.958 "
         id="imagebot_36"
         style="fill:#030201" />
      <polygon
         points="24.9873,108.219 24.7393,107.901 24.5059,107.575 24.2878,107.243 24.0849,106.903 34.6089,95.2242 34.8139,95.5671 35.0343,95.9029 35.2699,96.2319 35.5205,96.5535 35.7852,96.8669 36.0645,97.1728 25.526,108.833 25.2495,108.53 "
         id="imagebot_35"
         style="fill:#030201" />
      <polygon
         points="23.7271,106.205 23.5726,105.846 23.4351,105.482 23.3147,105.113 23.212,104.738 33.7274,93.037 33.8311,93.4157 33.9526,93.789 34.0916,94.1567 34.2475,94.5187 34.4202,94.8745 34.6089,95.2242 24.0849,106.903 23.898,106.557 "
         id="imagebot_34"
         style="fill:#030201" />
      <polygon
         points="23.0603,103.974 23.0121,103.585 22.9832,103.193 22.9733,102.796 22.9905,102.269 33.5037,90.5439 33.4862,91.0758 33.4963,91.4765 33.5255,91.8731 33.5742,92.2655 33.6414,92.6535 33.7274,93.037 23.212,104.738 23.127,104.358 "
         id="imagebot_33"
         style="fill:#030201" />
      <polygon
         points="23.126,101.238 23.2426,100.734 23.3905,100.239 33.9077,88.4936 33.7583,88.9935 33.6404,89.502 33.5554,90.0194 33.5037,90.5439 22.9905,102.269 23.0418,101.75 "
         id="imagebot_32"
         style="fill:#030201" />
      <polygon
         points="23.7775,99.2786 24.0147,98.814 24.28,98.3608 34.806,86.5963 34.5379,87.0541 34.2985,87.5233 34.088,88.0034 33.9077,88.4936 23.3905,100.239 23.5691,99.7539 "
         id="imagebot_31"
         style="fill:#030201" />
      <polygon
         points="24.8917,97.4914 25.2364,97.0764 35.7718,85.299 35.4238,85.7183 35.1015,86.1509 34.806,86.5963 24.28,98.3608 24.5726,97.9197 "
         id="imagebot_30"
         style="fill:#030201" />
      <polygon
         points="30.2312,111.921 29.8051,111.746 29.3884,111.56 28.9816,111.363 28.5847,111.154 28.1982,110.936 27.8225,110.706 27.4581,110.467 27.1053,110.217 26.7642,109.958 26.4355,109.69 26.1192,109.413 25.8159,109.127 25.526,108.833 25.2495,108.53 24.9873,108.219 24.7393,107.901 24.5059,107.575 24.2878,107.243 24.0849,106.903 23.898,106.557 23.7271,106.205 23.5726,105.846 23.4351,105.482 23.3147,105.113 23.212,104.738 23.127,104.358 23.0603,103.974 23.0121,103.585 22.9832,103.193 22.9733,102.796 22.9905,102.269 23.0418,101.75 23.126,101.238 23.2426,100.734 23.3905,100.239 23.5691,99.7539 23.7775,99.2786 24.0147,98.814 24.28,98.3608 24.5726,97.9197 24.8917,97.4914 25.2364,97.0764 35.7718,85.299 35.4238,85.7183 35.1015,86.1509 34.806,86.5963 34.5379,87.0541 34.2985,87.5233 34.088,88.0034 33.9077,88.4936 33.7583,88.9935 33.6404,89.502 33.5554,90.0194 33.5037,90.5439 33.4862,91.0758 33.4963,91.4765 33.5255,91.8731 33.5742,92.2655 33.6414,92.6535 33.7274,93.037 33.8311,93.4157 33.9526,93.789 34.0916,94.1567 34.2475,94.5187 34.4202,94.8745 34.6089,95.2242 34.8139,95.5671 35.0343,95.9029 35.2699,96.2319 35.5205,96.5535 35.7852,96.8669 36.0645,97.1728 36.3572,97.4703 36.6635,97.7589 36.9831,98.0389 37.3151,98.3098 37.6595,98.5713 38.0158,98.8231 38.3838,99.0651 38.7633,99.2969 39.1538,99.5178 39.5546,99.7286 39.9654,99.9277 40.3864,100.116 40.8166,100.292 41.2564,100.457 41.7045,100.609 31.1102,112.235 30.6664,112.084 "
         id="imagebot_29"
         style="fill:none;stroke:#373435;stroke-width:0.19326px;stroke-linejoin:bevel" />
      <polygon
         points="46.3308,109.413 46.0146,109.69 45.6859,109.958 45.3447,110.217 56.0813,98.5713 56.426,98.3098 56.758,98.0389 57.0773,97.7589 57.3837,97.4703 57.6766,97.1728 46.924,108.833 46.6342,109.127 "
         id="imagebot_28"
         style="fill:#030201" />
      <polygon
         points="44.6275,110.706 44.2519,110.936 43.8654,111.154 43.4685,111.363 54.1862,99.7286 54.5872,99.5178 54.9775,99.2969 55.357,99.0651 55.725,98.8231 56.0813,98.5713 45.3447,110.217 44.992,110.467 "
         id="imagebot_27"
         style="fill:#030201" />
      <polygon
         points="42.6449,111.746 42.2189,111.921 41.7836,112.084 41.3398,112.235 52.0363,100.609 52.4847,100.457 52.9242,100.292 53.3546,100.116 53.7754,99.9277 54.1862,99.7286 43.4685,111.363 43.0616,111.56 "
         id="imagebot_26"
         style="fill:#030201" />
      <polygon
         points="46.3308,109.413 46.0146,109.69 45.6859,109.958 45.3447,110.217 44.992,110.467 44.6275,110.706 44.2519,110.936 43.8654,111.154 43.4685,111.363 43.0616,111.56 42.6449,111.746 42.2189,111.921 41.7836,112.084 41.3398,112.235 52.0363,100.609 52.4847,100.457 52.9242,100.292 53.3546,100.116 53.7754,99.9277 54.1862,99.7286 54.5872,99.5178 54.9775,99.2969 55.357,99.0651 55.725,98.8231 56.0813,98.5713 56.426,98.3098 56.758,98.0389 57.0773,97.7589 57.3837,97.4703 57.6766,97.1728 46.924,108.833 46.6342,109.127 "
         id="imagebot_25"
         style="fill:none;stroke:#373435;stroke-width:0.19326px;stroke-linejoin:bevel" />
      <polygon
         points="80.1951,135.807 83.6188,135.807 72.6096,147.085 69.2197,147.085 "
         id="imagebot_24"
         style="fill:#030201" />
      <polygon
         points="80.1951,135.807 83.6188,135.807 72.6096,147.085 69.2197,147.085 "
         id="imagebot_23"
         style="fill:none;stroke:#373435;stroke-width:0.19326px;stroke-linejoin:bevel" />
      <polygon
         points="68.9057,146.206 68.7309,145.78 68.5448,145.363 68.3475,144.956 79.3141,133.658 79.5134,134.068 79.7013,134.489 79.8779,134.92 80.0427,135.359 80.1951,135.807 69.2197,147.085 69.0688,146.641 "
         id="imagebot_22"
         style="fill:#030201" />
      <polygon
         points="67.9201,144.173 67.6906,143.797 67.4512,143.433 67.2018,143.08 78.157,131.762 78.4089,132.119 78.6506,132.487 78.8824,132.866 79.1035,133.257 79.3141,133.658 68.3475,144.956 68.139,144.559 "
         id="imagebot_21"
         style="fill:#030201" />
      <polygon
         points="66.6746,142.41 66.3974,142.094 66.1115,141.79 65.8171,141.501 76.7586,130.167 77.0558,130.46 77.3444,130.767 77.6244,131.086 77.8955,131.418 78.157,131.762 67.2018,143.08 66.9429,142.739 "
         id="imagebot_20"
         style="fill:#030201" />
      <polygon
         points="65.2038,140.962 64.8855,140.714 64.5599,140.48 64.2274,140.262 63.8878,140.059 74.8097,128.712 75.1529,128.917 75.4887,129.137 75.8176,129.373 76.139,129.623 76.4527,129.888 76.7586,130.167 65.8171,141.501 65.5143,141.224 "
         id="imagebot_19"
         style="fill:#030201" />
      <polygon
         points="63.1893,139.702 62.8309,139.547 62.4667,139.41 62.0972,139.289 61.7224,139.186 72.6228,127.83 73.0014,127.934 73.3745,128.056 73.7425,128.195 74.1044,128.351 74.4602,128.523 74.8097,128.712 63.8878,140.059 63.5416,139.873 "
         id="imagebot_18"
         style="fill:#030201" />
      <polygon
         points="60.9584,139.035 60.5699,138.987 60.177,138.958 59.7804,138.948 59.2539,138.965 70.1297,127.607 70.6615,127.589 71.062,127.599 71.4589,127.628 71.8512,127.677 72.2393,127.744 72.6228,127.83 61.7224,139.186 61.3427,139.102 "
         id="imagebot_17"
         style="fill:#030201" />
      <polygon
         points="58.2224,139.101 57.7187,139.217 57.2239,139.365 68.0794,128.011 68.579,127.861 69.0878,127.743 69.6049,127.658 70.1297,127.607 59.2539,138.965 58.7344,139.016 "
         id="imagebot_16"
         style="fill:#030201" />
      <polygon
         points="56.2632,139.752 55.7985,139.989 55.3453,140.254 66.182,128.909 66.6398,128.641 67.109,128.401 67.5891,128.191 68.0794,128.011 57.2239,139.365 56.7384,139.544 "
         id="imagebot_15"
         style="fill:#030201" />
      <polygon
         points="54.4759,140.866 54.061,141.211 53.6597,141.58 64.4795,130.248 64.8848,129.875 65.3037,129.527 65.7364,129.204 66.182,128.909 55.3453,140.254 54.9042,140.547 "
         id="imagebot_14"
         style="fill:#030201" />
      <polygon
         points="64.0894,130.646 64.4795,130.248 53.6597,141.58 53.2735,141.974 "
         id="imagebot_13"
         style="fill:#030201" />
      <polygon
         points="66.6746,161.989 66.9429,161.66 67.2018,161.319 67.4512,160.966 78.4089,149.828 78.157,150.184 77.8955,150.529 77.6244,150.861 77.3444,151.18 77.0558,151.487 66.1115,162.609 66.3974,162.305 "
         id="imagebot_12"
         style="fill:#030201" />
      <polygon
         points="67.9201,160.226 68.139,159.84 68.3475,159.443 68.5448,159.036 79.5134,147.878 79.3141,148.289 79.1035,148.69 78.8824,149.081 78.6506,149.46 78.4089,149.828 67.4512,160.966 67.6906,160.602 "
         id="imagebot_11"
         style="fill:#030201" />
      <polygon
         points="68.9057,158.193 69.0688,157.758 69.2197,157.314 80.1951,146.14 80.0427,146.588 79.8779,147.027 79.7013,147.458 79.5134,147.878 68.5448,159.036 68.7309,158.619 "
         id="imagebot_10"
         style="fill:#030201" />
      <polygon
         points="66.6746,161.989 66.9429,161.66 67.2018,161.319 67.4512,160.966 67.6906,160.602 67.9201,160.226 68.139,159.84 68.3475,159.443 68.5448,159.036 68.7309,158.619 68.9057,158.193 69.0688,157.758 69.2197,157.314 80.1951,146.14 80.0427,146.588 79.8779,147.027 79.7013,147.458 79.5134,147.878 79.3141,148.289 79.1035,148.69 78.8824,149.081 78.6506,149.46 78.4089,149.828 78.157,150.184 77.8955,150.529 77.6244,150.861 77.3444,151.18 77.0558,151.487 66.1115,162.609 66.3974,162.305 "
         id="imagebot_9"
         style="fill:none;stroke:#373435;stroke-width:0.19326px;stroke-linejoin:bevel" />
      <polygon
         points="10.3569,177.546 83.6188,177.546 72.6096,188.41 0.073043,188.41 "
         id="imagebot_8"
         style="fill:#030201" />
      <polygon
         points="10.3569,104.284 10.3569,177.546 0.073043,188.41 0.073043,115.873 "
         id="imagebot_7"
         style="fill:#030201" />
      <g
         id="imagebot_181">
        <path
           d="m 10.3026,105.009 31.0372,0 0,-3.638 c -4.7792,-1.5453 -8.1369,-5.1896 -8.1369,-9.4395 0,-5.6497 5.9329,-10.2296 13.2517,-10.2296 7.3187,0 13.2517,4.5799 13.2517,10.2296 0,4.2499 -3.3577,7.8942 -8.137,9.4395 l 0,3.638 31.2698,0 0,31.211 -3.3899,0 c -1.545,-4.77901 -5.1893,-8.13701 -9.4393,-8.13701 -5.6496,0 -10.2296,5.93302 -10.2296,13.25202 0,7.319 4.5799,13.252 10.2296,13.252 4.25,0 7.8942,-3.35801 9.4393,-8.13701 l 3.3899,0 0,31.095 -72.5365,0 0,-72.536 0,0 z"
           id="imagebot_6"
           inkscape:connector-curvature="0"
           style="fill:#f58634;stroke:#373435;stroke-width:0.19326px" />
        <path
           d="m 82.8391,43.0287 0,31.266 -0.106,0 0,-0.2115 -31.1533,0 0,-3.5799 c 4.7792,-1.545 8.1369,-5.1893 8.1369,-9.4393 0,-5.6497 -5.9329,-10.2296 -13.2517,-10.2296 -7.3187,0 -13.2517,4.5799 -13.2517,10.2296 0,4.25 3.3577,7.8942 8.137,9.4393 l 0,3.5799 -30.9421,0 0,0.2115 -0.1055,0 0,-72.5365 72.5365,0 0,31.0372 3.504,0 c 1.5108,-4.6692 5.0255,-7.9797 9.1504,-8.127 l 0.0888,-0.0036 0.0101,-2e-4 c 0.0989,-0.0039 0.1984,-0.0061 0.2978,-0.0061 5.6497,0 10.2297,5.9329 10.2297,13.2517 0,7.2249 -4.464,13.0988 -10.0133,13.2482 -0.1083,0.0043 -0.2166,0.0073 -0.3254,0.0073 -4.25,0 -7.8942,-3.3577 -9.4393,-8.1369 l -3.5028,0 -1e-4,-10e-5 z"
           id="imagebot_5"
           inkscape:connector-curvature="0"
           style="fill:#ed3237;stroke:#373435;stroke-width:0.19326px" />
        <path
           d="m 142.93401,74.2946 -31.26601,0 0,-0.106 0.212,0 0,-31.1533 3.579,0 c 1.545,4.7792 5.19,8.1369 9.44,8.1369 5.649,0 10.22901,-5.9329 10.22901,-13.2517 0,-7.3187 -4.58001,-13.2517 -10.22901,-13.2517 -4.25,0 -7.895,3.3577 -9.44,8.137 l -3.579,0 0,-30.94213 -0.212,0 0,-0.10551 72.53599,0 0,72.53654 -31.03698,0 0,3.504 c 4.66899,1.5108 7.97999,5.0255 8.127,9.1504 l 0.004,0.0888 0,0.0101 c 0.004,0.0989 0.006,0.1984 0.006,0.2978 0,5.6496 -5.933,10.2296 -13.25101,10.2296 -7.22499,0 -13.099,-4.4635 -13.24899,-10.0132 -0.004,-0.1083 -0.007,-0.2166 -0.007,-0.3254 0,-4.25 3.358,-7.8942 8.13701,-9.4393 l 0,-3.5028 0,-1e-4 z"
           id="imagebot_4"
           inkscape:connector-curvature="0"
           style="fill:#00afef;stroke:#373435;stroke-width:0.19326px" />
        <path
           d="m 111.668,136.27499 0,-31.26599 0.106,0 0,0.212 31.153,0 0,3.579 c -4.77901,1.545 -8.13701,5.19 -8.13701,9.44 0,5.649 5.93302,10.22899 13.25202,10.22899 7.31898,0 13.252,-4.57999 13.252,-10.22899 0,-4.25 -3.35801,-7.895 -8.13701,-9.44 l 0,-3.579 30.942,0 0,-0.212 0.10499,0 0,72.536 -72.53599,0 0,-31.037 -3.504,0 c -1.511,4.669 -5.026,7.98001 -9.1505,8.12699 l -0.0888,0.004 -0.0101,0 c -0.0989,0.004 -0.1984,0.006 -0.2978,0.006 -5.6496,0 -10.2296,-5.93299 -10.2296,-13.251 0,-7.22499 4.4635,-13.099 10.0132,-13.249 0.1083,-0.004 0.2166,-0.007 0.3254,-0.007 4.2502,0 7.8942,3.358 9.4392,8.13699 l 3.503,0 0,0 z"
           id="imagebot_3"
           inkscape:connector-curvature="0"
           style="fill:#fff212;stroke:#373435;stroke-width:0.19326px" />
      </g>
    </g>
    <title
       id="title3679">imagebot_1</title>
  </g>
</svg>
