<svg width="727" height="955" xmlns="http://www.w3.org/2000/svg">

 <metadata id="imagebot_27">image/svg+xml</metadata>
 <g id="imagebot_2" label="Layer 1">
  <g label="Layer 1" transform="translate(-11.8624 -32.6805) matrix(3.97674 0 0 3.97674 -124.82 -2117.28)" id="imagebot_3">
   <path fill="#ffb200" fill-rule="evenodd" stroke="#aa8800" stroke-width="3" stroke-miterlimit="4" d="M34.37046,556.97479C34.37046,577.02319 41.05327,633.82709 41.05327,633.82709L161.34383,600.41302L117.90557,780.84888L194.75787,777.50751L189.74574,555.30408L34.37046,556.97479z" id="imagebot_26"/>
   <path fill="#ffeeaa" stroke="#aa8800" stroke-width="3" stroke-miterlimit="4" stroke-dashoffset="0" id="imagebot_25" d="M 217.143 585.934 C 217.142 598.953 206.589 609.505 193.571 609.505 C 180.553 609.505 170 598.951 170 585.933 C 170 572.915 180.554 562.362 193.572 562.362 C 206.59 562.363 217.143 572.916 217.143 585.934"/>
   <path fill="#ffeeaa" stroke="#aa8800" stroke-width="3" stroke-miterlimit="4" stroke-dashoffset="0" transform="matrix(0.8005698,0,0,0.8005698,32.773709,76.700234)" d="M170,603.07727C169.99957,616.0954 159.44592,626.64838 146.4278,626.64795C133.40965,626.64746 122.85671,616.09381 122.85715,603.07568C122.85758,590.05756 133.41122,579.50464 146.42937,579.50507C159.44749,579.50549 170.00044,590.05914 170,603.07727" id="imagebot_24"/>
   <path fill="#806600" id="imagebot_23" d="M49.28571,589.50525C49.28564,592.26666 47.5267,594.50519 45.35701,594.50507C43.18732,594.505 41.4285,592.26636 41.42857,589.50494C41.42864,586.74353 43.18758,584.505 45.35727,584.50507C47.52696,584.50519 49.28579,586.74384 49.28571,589.50525"/>
   <path fill="#806600" id="imagebot_22" d="M61.42857,586.29102C61.42849,590.43317 59.50965,593.79089 57.14271,593.79077C54.77578,593.79065 52.85706,590.43268 52.85714,586.29053C52.85722,582.14838 54.77606,578.79065 57.143,578.79077C59.50993,578.79089 61.42865,582.14886 61.42857,586.29102"/>
   <path fill="#806600" id="imagebot_21" d="M207.85715,588.7912C207.85692,595.89203 202.10039,601.64813 194.99957,601.64789C187.89877,601.64771 182.14262,595.89117 182.14287,588.79034C182.1431,581.68951 187.89964,575.93341 195.00044,575.93365C202.10124,575.9339 207.85739,581.69043 207.85715,588.7912"/>
   <path fill="#806600" id="imagebot_20" d="M161.42857,559.14819C161.42839,564.47382 157.11099,568.79089 151.78539,568.79071C146.45979,568.79053 142.14268,564.47314 142.14285,559.14752C142.14304,553.82196 146.46043,549.50482 151.78603,549.505C157.11163,549.50519 161.42876,553.82257 161.42857,559.14819"/>
   <path fill="#2b2200" id="imagebot_19" d="M200.71428,587.36237C200.71419,590.12378 198.47554,592.3623 195.71411,592.36218C192.95268,592.36212 190.71419,590.12347 190.71428,587.36206C190.71437,584.60059 192.95302,582.36212 195.71445,582.36218C198.47588,582.3623 200.71437,584.60095 200.71428,587.36237"/>
   <path fill="#2b2200" id="imagebot_18" d="M156.42857,558.79089C156.4285,561.15784 154.50964,563.07654 152.14272,563.07648C149.77579,563.07642 147.85706,561.15753 147.85715,558.79059C147.85722,556.42365 149.77606,554.50494 152.14301,554.50507C154.50993,554.50513 156.42865,556.42395 156.42857,558.79089"/>
   <path fill="#ffeeaa" id="imagebot_17" d="M199.64285,583.43365C199.64282,584.22266 199.0032,584.86218 198.21423,584.86218C197.42525,584.86212 196.78568,584.22253 196.78571,583.43353C196.78574,582.64459 197.42535,582.005 198.21432,582.005C199.00331,582.00507 199.64288,582.64465 199.64285,583.43365" transform="matrix(1.75,0,0,1.75,-147.58928,-436.50376)"/>
   <path fill="#ffeeaa" id="imagebot_16" d="M156.42857,555.21936C156.42853,556.40283 155.46912,557.36218 154.28564,557.36212C153.10217,557.36212 152.14281,556.40271 152.14285,555.21924C152.14288,554.03577 153.10233,553.07642 154.28578,553.07642C155.46925,553.07648 156.4286,554.03589 156.42857,555.21936"/>
   <path fill="none" stroke="#aa8800" stroke-width="2" stroke-miterlimit="4" d="M109.28571,597.7193L115,613.79077" id="imagebot_15"/>
   <path fill="none" stroke="#aa8800" stroke-width="2" stroke-miterlimit="4" d="M118.57143,599.14789L122.5,610.57648" id="imagebot_14"/>
   <path fill="none" stroke="#aa8800" stroke-width="2" stroke-miterlimit="4" d="M125,590.93359C125,592.7193 130,608.07648 130,608.07648" id="imagebot_13"/>
   <path fill="none" stroke="#aa8800" stroke-width="2" stroke-miterlimit="4" d="M134.64285,596.64789L138.57143,605.93359" id="imagebot_12"/>
   <path fill="none" stroke="#aa8800" stroke-width="2" stroke-miterlimit="4" d="M143.57143,593.43359L147.14285,602.7193" id="imagebot_11"/>
   <path fill="none" stroke="#aa8800" stroke-width="2" stroke-miterlimit="4" d="M97.5,602.7193C98.21429,604.14789 102.5,615.2193 102.5,615.2193" id="imagebot_10"/>
   <path fill="none" stroke="#806600" stroke-width="3" stroke-miterlimit="4" d="M81.82236,595.26813C81.82236,595.26813 95.96449,616.48132 74.75129,624.56256" id="imagebot_9"/>
   <path fill="#aa8800" fill-rule="evenodd" d="M184.35284,638.70471C184.35284,638.70471 184.85793,622.54224 178.29192,624.56256C171.72594,626.58289 173.74625,633.65393 167.68532,640.21991C161.6244,646.78595 166.67517,661.93823 175.26147,658.90778C183.84776,655.87732 177.78685,653.85699 180.31223,650.32147C182.83762,646.78595 184.85793,639.20978 184.35284,638.70471z" id="imagebot_8"/>
   <path fill="#aa8800" fill-rule="evenodd" d="M150.51273,676.08038C150.51273,676.08038 152.02795,667.99915 160.10918,675.57532C168.1904,683.15143 162.63457,687.19208 161.6244,695.27325C160.61424,703.35449 168.69547,706.89001 163.13963,715.98138C157.5838,725.07275 167.18024,731.63879 147.98735,726.58801C128.79445,721.53723 141.92644,705.87988 141.92644,705.87988L150.51273,676.08038z" id="imagebot_7"/>
   <path fill="#aa8800" fill-rule="evenodd" d="M184.35284,683.15143C184.35284,683.15143 186.37314,676.58545 185.36299,672.5448C184.35284,668.50421 187.3833,664.46362 176.7767,665.97882C166.17009,667.49408 163.64471,670.01947 167.18025,675.07019C170.71577,680.12097 168.1904,681.1311 168.1904,687.69708C168.1904,694.26312 172.231,708.40521 178.29192,703.85956C184.35284,699.31384 181.82745,698.80878 182.33253,694.26312C182.83762,689.71741 183.84776,683.15143 184.35284,683.15143z" id="imagebot_6"/>
   <path fill="#aa8800" fill-rule="evenodd" d="M180.81731,766.99408C182.33253,763.96362 189.40359,757.39764 188.89853,747.29608C188.39345,737.19458 184.85793,735.17426 183.3427,729.11334C181.82745,723.05243 189.40359,723.05243 184.35284,715.98138C179.30208,708.91034 170.71577,701.83923 170.21069,709.41541C169.70563,716.99152 175.26147,712.44586 169.20055,722.54736C163.13963,732.64886 163.13963,726.58795 159.09903,738.20471C155.05843,749.82147 158.08887,749.82147 159.6041,754.36719C161.11932,758.91284 153.03812,764.46869 159.09903,769.0144C165.15994,773.56006 181.32237,768.50934 180.81731,766.99408z" id="imagebot_5"/>
   <path fill="#aa8800" fill-rule="evenodd" d="M135.36044,731.13367C137.38075,731.13367 141.92644,724.56769 146.9772,730.6286C152.02795,736.68951 147.48227,740.22504 151.01781,745.27582C154.55334,750.3266 159.6041,751.8418 153.5432,758.40778C147.48227,764.97375 145.96704,764.46869 144.45181,769.51947C142.93658,774.57025 136.37059,776.59052 130.30968,776.08545C124.24876,775.58038 122.22846,766.99408 128.79445,762.95349C135.36044,758.91284 135.36044,755.88239 133.84521,748.81134C132.32999,741.7403 134.85538,731.13367 135.36044,731.13367z" id="imagebot_4"/>
  </g>
  <title>Layer 1</title>
 </g>
</svg>