<svg width="716" height="866" xmlns="http://www.w3.org/2000/svg" xmlns:undefined="http://www.inkscape.org/namespaces/inkscape">
 <defs>
  <filter id="imagebot_37" x="-0.07726" width="1.15451" y="-0.14957" height="1.29914" color-interpolation-filters="sRGB">
   <feGaussianBlur  stdDeviation="3.4827" id="imagebot_43"/>
  </filter>
  <filter id="imagebot_35" color-interpolation-filters="sRGB">
   <feGaussianBlur  stdDeviation="2.83208" id="imagebot_42"/>
  </filter>
  <filter id="imagebot_23" x="-0.2434" width="1.48679" y="-0.2434" height="1.48679" color-interpolation-filters="sRGB">
   <feGaussianBlur  stdDeviation="1.63912" id="imagebot_41"/>
  </filter>
  <filter id="imagebot_8" color-interpolation-filters="sRGB">
   <feGaussianBlur  stdDeviation="2.58782" id="imagebot_40"/>
  </filter>
 </defs>
 <metadata id="imagebot_39">image/svg+xml</metadata>
 <g id="imagebot_2" label="Layer 1">
  <g label="Layer 1" transform="translate(-18.7657 -108.842) matrix(4.21705 0 0 4.21705 -1684.16 -1148.62)" id="imagebot_3">
   <path fill="#aad400" fill-rule="evenodd" stroke="#668000" stroke-width="3.13615" stroke-miterlimit="4" d="M504.5275,298.34949C493.8121,298.44058 481.97406,300.34396 471.00986,306.25522C453.66766,315.60507 411.56711,336.60345 413.38303,407.85352C415.19894,479.10358 478.20096,503.49719 514.68732,494.32642C551.17365,485.15564 572.4187,464.94177 573.03284,433.00809C573.49109,408.12653 569.59711,379.31064 519.45691,375.21793C460.35782,370.39395 454.08768,422.29288 454.08771,422.29288C454.08771,422.29288 448.92032,356.46222 491.10083,342.2883C533.28137,328.11441 552.94183,366.4628 552.94189,366.46283L558.35132,309.14728C557.75366,310.03394 523.86682,298.18512 504.5275,298.34949zM525.14117,424.25299C537.08954,424.30978 546.27759,429.69995 546.27753,443.55994C546.27753,459.3999 519.88727,482.63681 499.82327,462.57285C479.75931,442.50891 505.62561,426.13098 519.88159,424.547C521.6828,424.34686 523.43427,424.24487 525.14117,424.25299z" id="imagebot_38"/>
   <path fill="#e5ff80" fill-rule="evenodd" filter="url(#imagebot_37)" d="M532.85547,383.6412C562.75012,391.41614 572.56238,415.85205 566.69556,437.17929C566.69556,437.17929 561.13977,406.36963 533.8656,396.2681C506.59149,386.16656 478.30722,400.81378 469.21585,412.43054C460.12448,424.0473 460.12448,429.60315 460.12448,429.60315C460.12448,429.60315 460.12448,413.4407 471.74124,400.30872C488.18069,380.63663 508.05206,378.59308 532.85547,383.6412z" id="imagebot_36"/>
   <path fill="#e5ff80" fill-rule="evenodd" filter="url(#imagebot_35)" d="M424.26407,376.57013C425.7793,374.54984 445.47726,316.97113 486.89352,311.92038C528.30975,306.8696 551.54327,315.96097 551.54327,315.96097C551.54327,315.96097 526.79456,299.29346 493.96457,304.8493C461.13464,310.40515 434.3656,330.10312 424.26407,376.57013z" id="imagebot_34"/>
   <path fill="#eeffaa" stroke="#445500" stroke-width="3" stroke-miterlimit="4" stroke-dashoffset="0" id="imagebot_33" d="M447.14285,337.71976C447.14261,345.01782 441.22617,350.93384 433.92813,350.93362C426.63007,350.93335 420.71405,345.01694 420.71429,337.71887C420.71454,330.42084 426.63095,324.50479 433.92902,324.50504C441.22705,324.50528 447.1431,330.42172 447.14285,337.71976" transform="matrix(1.1699029,0,0,1.1699029,-73.368582,-64.879497)"/>
   <path fill="#eeffaa" stroke="#445500" stroke-width="3" stroke-miterlimit="4" stroke-dashoffset="0" transform="matrix(1.5097087,0,0,1.5097087,-191.53432,-148.20992)" d="M447.14285,337.71976C447.14261,345.01782 441.22617,350.93384 433.92813,350.93362C426.63007,350.93335 420.71405,345.01694 420.71429,337.71887C420.71454,330.42084 426.63095,324.50479 433.92902,324.50504C441.22705,324.50528 447.1431,330.42172 447.14285,337.71976" id="imagebot_32"/>
   <g id="imagebot_28">
    <path fill="#445500" transform="matrix(0.8548937,0,0,0.8548937,94.751467,73.64805)" d="M447.14285,337.71976C447.14261,345.01782 441.22617,350.93384 433.92813,350.93362C426.63007,350.93335 420.71405,345.01694 420.71429,337.71887C420.71454,330.42084 426.63095,324.50479 433.92902,324.50504C441.22705,324.50528 447.1431,330.42172 447.14285,337.71976" id="imagebot_31"/>
    <path fill="#222b00" id="imagebot_30" d="M447.14285,337.71976C447.14261,345.01782 441.22617,350.93384 433.92813,350.93362C426.63007,350.93335 420.71405,345.01694 420.71429,337.71887C420.71454,330.42084 426.63095,324.50479 433.92902,324.50504C441.22705,324.50528 447.1431,330.42172 447.14285,337.71976" transform="matrix(0.4917848,0,0,0.4917848,253.0724,196.0244)"/>
    <path fill="#eeffaa" transform="matrix(0.2242309,0,0,0.2242309,372.70722,282.84699)" d="M447.14285,337.71976C447.14261,345.01782 441.22617,350.93384 433.92813,350.93362C426.63007,350.93335 420.71405,345.01694 420.71429,337.71887C420.71454,330.42084 426.63095,324.50479 433.92902,324.50504C441.22705,324.50528 447.1431,330.42172 447.14285,337.71976" id="imagebot_29"/>
   </g>
   <g id="imagebot_24" transform="matrix(0.7093874,0,0,0.7093874,106.30057,74.749921)">
    <path fill="#445500" id="imagebot_27" d="M447.14285,337.71976C447.14261,345.01782 441.22617,350.93384 433.92813,350.93362C426.63007,350.93335 420.71405,345.01694 420.71429,337.71887C420.71454,330.42084 426.63095,324.50479 433.92902,324.50504C441.22705,324.50528 447.1431,330.42172 447.14285,337.71976" transform="matrix(0.8548937,0,0,0.8548937,94.751467,73.64805)"/>
    <path fill="#222b00" transform="matrix(0.4917848,0,0,0.4917848,253.0724,196.0244)" d="M447.14285,337.71976C447.14261,345.01782 441.22617,350.93384 433.92813,350.93362C426.63007,350.93335 420.71405,345.01694 420.71429,337.71887C420.71454,330.42084 426.63095,324.50479 433.92902,324.50504C441.22705,324.50528 447.1431,330.42172 447.14285,337.71976" id="imagebot_26"/>
    <path fill="#eeffaa" id="imagebot_25" d="M447.14285,337.71976C447.14261,345.01782 441.22617,350.93384 433.92813,350.93362C426.63007,350.93335 420.71405,345.01694 420.71429,337.71887C420.71454,330.42084 426.63095,324.50479 433.92902,324.50504C441.22705,324.50528 447.1431,330.42172 447.14285,337.71976" transform="matrix(0.2242309,0,0,0.2242309,372.70722,282.84699)"/>
   </g>
   <path fill="#668000" filter="url(#imagebot_23)" id="imagebot_22" d="M 449.013 386.672 C 449.013 391.135 445.394 394.753 440.931 394.753 C 436.468 394.753 432.85 391.135 432.85 386.671 C 432.851 382.208 436.469 378.59 440.932 378.59 C 445.395 378.591 449.013 382.209 449.013 386.672"/>
   <path fill="#eeffaa" fill-rule="evenodd" stroke="#445500" stroke-width="2.52494" stroke-miterlimit="4" d="M403.81842,364.71838L440.16406,383.84766C440.16406,383.84766 429.96176,397.23816 417.20892,396.60052C404.45609,395.96286 403.81842,363.44312 403.81842,364.71838z" id="imagebot_21"/>
   <path fill="none" stroke="#668000" stroke-width="2" stroke-miterlimit="4" d="M475,432.36218L492.85715,440.93362" id="imagebot_20"/>
   <path fill="none" stroke="#668000" stroke-width="2" stroke-miterlimit="4" d="M482.85715,422.36218L498.57144,433.07648" id="imagebot_19"/>
   <path fill="none" stroke="#668000" stroke-width="2" stroke-miterlimit="4" d="M497.14285,410.93362L507.14285,426.64792" id="imagebot_18"/>
   <path fill="none" stroke="#668000" stroke-width="2" stroke-miterlimit="4" d="M512.85712,406.64789L515.71429,423.07645" id="imagebot_17"/>
   <path fill="none" stroke="#668000" stroke-width="2" stroke-miterlimit="4" d="M527.14288,405.21933L524.28571,421.64792" id="imagebot_16"/>
   <path fill="none" stroke="#668000" stroke-width="2" stroke-miterlimit="4" d="M537.85712,408.07648L532.14282,423.07648" id="imagebot_15"/>
   <path fill="none" stroke="#668000" stroke-width="2" stroke-miterlimit="4" d="M548.57141,415.93362L538.57141,427.36218" id="imagebot_14"/>
   <path fill="none" stroke="#668000" stroke-width="2" stroke-miterlimit="4" d="M554.28571,426.64789L542.14288,433.07645" id="imagebot_13"/>
   <path fill="none" stroke="#668000" stroke-width="2" stroke-miterlimit="4" d="M556.42859,437.36218L545,438.07648" id="imagebot_12"/>
   <path fill="none" stroke="#668000" stroke-width="2" stroke-miterlimit="4" d="M553.57141,446.64789L546.42853,443.79074" id="imagebot_11"/>
   <path fill="none" stroke="#668000" stroke-width="2" stroke-miterlimit="4" d="M477.14285,445.93362L490.71429,446.64792" id="imagebot_10"/>
   <path fill="none" stroke="#668000" stroke-width="2" stroke-miterlimit="4" d="M479.28571,453.79074L492.85715,452.36218" id="imagebot_9"/>
   <path fill="#e5ff80" fill-rule="evenodd" filter="url(#imagebot_8)" d="M421.42856,420.93362C421.42856,420.93362 432.85712,475.93362 471.42856,485.93362C510,495.93362 535.71429,481.64792 535.71429,481.64792C535.71429,481.64792 510,493.07648 469.28571,478.07648C428.57141,463.07648 421.42856,419.50504 421.42856,420.93362z" id="imagebot_7"/>
   <path fill="none" stroke="#668000" stroke-width="3" stroke-miterlimit="4" d="M415.71429,370.93362L410.71429,378.07648" id="imagebot_6"/>
   <path fill="none" stroke="#668000" stroke-width="3" stroke-miterlimit="4" d="M429.28571,377.36218L422.14285,383.79074L422.14285,383.79074L422.14285,383.07648" id="imagebot_5"/>
   <path fill="none" stroke="#668000" stroke-width="3" stroke-miterlimit="4" d="M410.71429,391.64789L416.42856,379.50504" id="imagebot_4"/>
  </g>
  <title>Layer 1</title>
 </g>
</svg>