<svg width="735" height="982" xmlns="http://www.w3.org/2000/svg">

 <metadata id="imagebot_38">image/svg+xml</metadata>
 <g id="imagebot_2" label="Layer 1">
  <g label="Layer 1" transform="translate(-11.9399 -21.6851) matrix(4.20851 0 0 4.20851 -1671.55 -160.206)" id="imagebot_3">
   <path fill="#f4d7d7" fill-rule="evenodd" stroke="#d35f5f" stroke-width="1px" d="M450.75244,119.99916L460.03815,131.42773L488.60959,120.3563C488.60959,120.3563 484.681,111.07059 468.25244,111.42773C451.82385,111.78488 450.75244,119.64202 450.75244,119.99916z" id="imagebot_37"/>
   <path fill="#f4d7d7" fill-rule="evenodd" stroke="#d35f5f" stroke-width="1px" d="M468.25244,148.92773L468.96671,139.64201L496.10959,141.07059L496.46671,141.42773C496.46671,141.42773 498.60959,152.85629 487.89529,153.21346C477.181,153.57059 468.25244,148.92773 468.25244,148.92773z" id="imagebot_36"/>
   <path fill="#c83737" fill-rule="evenodd" stroke="#a02c2c" stroke-width="3" stroke-miterlimit="4" d="M410.12201,89.6868L423.254,133.123C423.254,133.123 475.28601,100.678 489.92401,122.012C520.12701,166.03101 444.37399,145.368 444.37399,145.368L446.81299,180.94701C446.81299,180.94701 513.74902,158.407 517.198,194.743C519.02197,213.955 493.772,228.535 475.78201,224.037C447.49799,216.966 437.396,196.763 437.396,196.763L400.01999,229.088C400.01999,229.088 412.142,276.565 491.944,274.54501C571.74597,272.52399 574.77698,182.621 568.716,165.448C562.65503,148.276 542.45203,144.235 542.45203,144.235C542.45203,144.235 552.55298,133.123 552.55298,109.89C552.55298,86.6563 537.401,61.4025 494.97501,52.3112C452.548,43.2198 410.12201,90.697 410.12201,89.6868L410.12201,89.6868z" id="imagebot_35"/>
   <path fill="#f4d7d7" stroke="#a02c2c" stroke-width="3" stroke-miterlimit="4" stroke-dashoffset="0" id="imagebot_34" d="M 523.259 97.7686 C 523.259 106.695 516.022 113.931 507.096 113.93 C 498.17 113.93 490.934 106.694 490.934 97.7675 C 490.934 88.8412 498.171 81.6053 507.097 81.6056 C 516.023 81.6059 523.259 88.8423 523.259 97.7686"/>
   <path fill="#f4d7d7" stroke="#a02c2c" stroke-width="3" stroke-miterlimit="4" stroke-dashoffset="0" id="imagebot_33" d="M 487.904 78.576 C 487.903 93.6391 475.692 105.85 460.629 105.849 C 445.566 105.849 433.355 93.6373 433.355 78.5742 C 433.356 63.5111 445.567 51.3005 460.63 51.301 C 475.694 51.3015 487.904 63.513 487.904 78.576"/>
   <path fill="#501616" id="imagebot_32" d="M 478.812 80.0908 C 478.812 87.0645 473.159 92.7175 466.185 92.7173 C 459.211 92.717 453.558 87.0636 453.559 80.09 C 453.559 73.1163 459.212 67.4632 466.186 67.4635 C 473.159 67.4637 478.813 73.1172 478.812 80.0908"/>
   <path fill="#501616" d="M226.27417,364.9538C226.27394,371.92746 220.62048,377.58051 213.64684,377.58029C206.67319,377.58005 201.02013,371.92661 201.02036,364.95297C201.02058,357.97931 206.67404,352.32623 213.64767,352.32648C220.62132,352.32672 226.2744,357.98016 226.27417,364.9538" id="imagebot_31" transform="matrix(0.76,0,0,0.76,341.6942,-181.11177)"/>
   <path fill="#280b0b" id="imagebot_30" d="M219.46429,364.50516C219.4642,366.77347 217.62532,368.61224 215.35701,368.61218C213.0887,368.61209 211.24992,366.77319 211.25,364.50488C211.25008,362.23657 213.08897,360.3978 215.35728,360.39789C217.6256,360.39795 219.46437,362.23685 219.46429,364.50516" transform="matrix(1.4130435,0,0,1.4130435,163.13985,-434.43731)"/>
   <path fill="#280b0b" transform="matrix(1.4130435,0,0,1.4130435,197.96128,-419.08017)" d="M219.46429,364.50516C219.4642,366.77347 217.62532,368.61224 215.35701,368.61218C213.0887,368.61209 211.24992,366.77319 211.25,364.50488C211.25008,362.23657 213.08897,360.3978 215.35728,360.39789C217.6256,360.39795 219.46437,362.23685 219.46429,364.50516" id="imagebot_29"/>
   <path fill="#e9afaf" id="imagebot_28" d="M 474.324 78.0349 C 474.324 79.2184 473.364 80.1778 472.181 80.1777 C 470.997 80.1777 470.038 79.2183 470.038 78.0348 C 470.038 76.8513 470.998 75.892 472.181 75.892 C 473.365 75.8921 474.324 76.8515 474.324 78.0349"/>
   <path fill="#ffd5d5" d="M 509.681 94.4635 C 509.681 95.647 508.722 96.6063 507.538 96.6063 C 506.355 96.6063 505.395 95.6468 505.395 94.4633 C 505.395 93.2799 506.355 92.3205 507.538 92.3206 C 508.722 92.3206 509.681 93.28 509.681 94.4635" id="imagebot_27"/>
   <path fill="#a02c2c" id="imagebot_26" d="M 457.538 240.714 C 457.538 250.379 449.703 258.214 440.038 258.213 C 430.373 258.213 422.538 250.378 422.538 240.713 C 422.538 231.048 430.374 223.213 440.039 223.213 C 449.704 223.214 457.538 231.049 457.538 240.714"/>
   <path fill="#a02c2c" d="M205,522.71991C204.99968,532.38489 197.1644,540.21967 187.49942,540.21936C177.83443,540.21899 169.99968,532.38373 170,522.71875C170.00032,513.05377 177.8356,505.21902 187.50058,505.21933C197.16557,505.21964 205.00032,513.05493 205,522.71991" id="imagebot_25" transform="matrix(0.5510204,0,0,0.5510204,371.00752,-50.88701)"/>
   <path fill="#a02c2c" transform="matrix(0.7959184,0,0,0.7959184,347.9463,-160.32847)" id="imagebot_24" d="M205,522.71991C204.99968,532.38489 197.1644,540.21967 187.49942,540.21936C177.83443,540.21899 169.99968,532.38373 170,522.71875C170.00032,513.05377 177.8356,505.21902 187.50058,505.21933C197.16557,505.21964 205.00032,513.05493 205,522.71991"/>
   <path fill="#a02c2c" d="M205,522.71991C204.99968,532.38489 197.1644,540.21967 187.49942,540.21936C177.83443,540.21899 169.99968,532.38373 170,522.71875C170.00032,513.05377 177.8356,505.21902 187.50058,505.21933C197.16557,505.21964 205.00032,513.05493 205,522.71991" id="imagebot_23" transform="matrix(0.7959184,0,0,0.7959184,366.51773,-185.32847)"/>
   <path fill="#a02c2c" transform="matrix(0.4489796,0,0,0.4489796,382.64018,23.52312)" id="imagebot_22" d="M205,522.71991C204.99968,532.38489 197.1644,540.21967 187.49942,540.21936C177.83443,540.21899 169.99968,532.38373 170,522.71875C170.00032,513.05377 177.8356,505.21902 187.50058,505.21933C197.16557,505.21964 205.00032,513.05493 205,522.71991"/>
   <path fill="#a02c2c" d="M205,522.71991C204.99968,532.38489 197.1644,540.21967 187.49942,540.21936C177.83443,540.21899 169.99968,532.38373 170,522.71875C170.00032,513.05377 177.8356,505.21902 187.50058,505.21933C197.16557,505.21964 205.00032,513.05493 205,522.71991" id="imagebot_21" transform="matrix(0.4489796,0,0,0.4489796,352.64018,-22.19117)"/>
   <path fill="#a02c2c" transform="matrix(0.4285715,0,0,0.4285715,442.53814,29.54801)" id="imagebot_20" d="M205,522.71991C204.99968,532.38489 197.1644,540.21967 187.49942,540.21936C177.83443,540.21899 169.99968,532.38373 170,522.71875C170.00032,513.05377 177.8356,505.21902 187.50058,505.21933C197.16557,505.21964 205.00032,513.05493 205,522.71991"/>
   <path fill="#a02c2c" d="M205,522.71991C204.99968,532.38489 197.1644,540.21967 187.49942,540.21936C177.83443,540.21899 169.99968,532.38373 170,522.71875C170.00032,513.05377 177.8356,505.21902 187.50058,505.21933C197.16557,505.21964 205.00032,513.05493 205,522.71991" id="imagebot_19" transform="matrix(0.7551021,0,0,0.7551021,403.4565,-176.13584)"/>
   <path fill="#a02c2c" transform="matrix(0.367347,0,0,0.367347,460.08916,4.05123)" id="imagebot_18" d="M205,522.71991C204.99968,532.38489 197.1644,540.21967 187.49942,540.21936C177.83443,540.21899 169.99968,532.38373 170,522.71875C170.00032,513.05377 177.8356,505.21902 187.50058,505.21933C197.16557,505.21964 205.00032,513.05493 205,522.71991"/>
   <path fill="#a02c2c" d="M205,522.71991C204.99968,532.38489 197.1644,540.21967 187.49942,540.21936C177.83443,540.21899 169.99968,532.38373 170,522.71875C170.00032,513.05377 177.8356,505.21902 187.50058,505.21933C197.16557,505.21964 205.00032,513.05493 205,522.71991" id="imagebot_17" transform="matrix(0.7959184,0,0,0.7959184,402.94631,-231.04276)"/>
   <path fill="#a02c2c" transform="matrix(0.7959184,0,0,0.7959184,375.08917,-250.32847)" id="imagebot_16" d="M205,522.71991C204.99968,532.38489 197.1644,540.21967 187.49942,540.21936C177.83443,540.21899 169.99968,532.38373 170,522.71875C170.00032,513.05377 177.8356,505.21902 187.50058,505.21933C197.16557,505.21964 205.00032,513.05493 205,522.71991"/>
   <path fill="#a02c2c" d="M205,522.71991C204.99968,532.38489 197.1644,540.21967 187.49942,540.21936C177.83443,540.21899 169.99968,532.38373 170,522.71875C170.00032,513.05377 177.8356,505.21902 187.50058,505.21933C197.16557,505.21964 205.00032,513.05493 205,522.71991" id="imagebot_15" transform="matrix(0.367347,0,0,0.367347,480.08916,-33.09163)"/>
   <path fill="#a02c2c" d="M205,522.71991C204.99968,532.38489 197.1644,540.21967 187.49942,540.21936C177.83443,540.21899 169.99968,532.38373 170,522.71875C170.00032,513.05377 177.8356,505.21902 187.50058,505.21933C197.16557,505.21964 205.00032,513.05493 205,522.71991" id="imagebot_14" transform="matrix(0.8979592,0,0,0.8979592,348.45652,-336.88146)"/>
   <path fill="#a02c2c" transform="matrix(0.367347,0,0,0.367347,470.80345,-73.09163)" id="imagebot_13" d="M205,522.71991C204.99968,532.38489 197.1644,540.21967 187.49942,540.21936C177.83443,540.21899 169.99968,532.38373 170,522.71875C170.00032,513.05377 177.8356,505.21902 187.50058,505.21933C197.16557,505.21964 205.00032,513.05493 205,522.71991"/>
   <path fill="#a02c2c" d="M205,522.71991C204.99968,532.38489 197.1644,540.21967 187.49942,540.21936C177.83443,540.21899 169.99968,532.38373 170,522.71875C170.00032,513.05377 177.8356,505.21902 187.50058,505.21933C197.16557,505.21964 205.00032,513.05493 205,522.71991" id="imagebot_12" transform="matrix(0.5306123,0,0,0.5306123,438.04835,-177.71927)"/>
   <path fill="#a02c2c" transform="matrix(0.5306123,0,0,0.5306123,402.33406,-209.86213)" id="imagebot_11" d="M205,522.71991C204.99968,532.38489 197.1644,540.21967 187.49942,540.21936C177.83443,540.21899 169.99968,532.38373 170,522.71875C170.00032,513.05377 177.8356,505.21902 187.50058,505.21933C197.16557,505.21964 205.00032,513.05493 205,522.71991"/>
   <path fill="#a02c2c" d="M205,522.71991C204.99968,532.38489 197.1644,540.21967 187.49942,540.21936C177.83443,540.21899 169.99968,532.38373 170,522.71875C170.00032,513.05377 177.8356,505.21902 187.50058,505.21933C197.16557,505.21964 205.00032,513.05493 205,522.71991" id="imagebot_10" transform="matrix(0.367347,0,0,0.367347,455.08916,-114.5202)"/>
   <path fill="#a02c2c" transform="matrix(0.7142857,0,0,0.7142857,298.96673,-263.37179)" id="imagebot_9" d="M205,522.71991C204.99968,532.38489 197.1644,540.21967 187.49942,540.21936C177.83443,540.21899 169.99968,532.38373 170,522.71875C170.00032,513.05377 177.8356,505.21902 187.50058,505.21933C197.16557,505.21964 205.00032,513.05493 205,522.71991"/>
   <path fill="#a02c2c" d="M205,522.71991C204.99968,532.38489 197.1644,540.21967 187.49942,540.21936C177.83443,540.21899 169.99968,532.38373 170,522.71875C170.00032,513.05377 177.8356,505.21902 187.50058,505.21933C197.16557,505.21964 205.00032,513.05493 205,522.71991" id="imagebot_8" transform="matrix(0.3061224,0,0,0.3061224,368.35448,-71.44554)"/>
   <path fill="#a02c2c" d="M205,522.71991C204.99968,532.38489 197.1644,540.21967 187.49942,540.21936C177.83443,540.21899 169.99968,532.38373 170,522.71875C170.00032,513.05377 177.8356,505.21902 187.50058,505.21933C197.16557,505.21964 205.00032,513.05493 205,522.71991" id="imagebot_7" transform="matrix(0.5102041,0,0,0.5102041,364.37488,-104.55152)"/>
   <path fill="#a02c2c" transform="matrix(0.367347,0,0,0.367347,410.80345,-29.5202)" id="imagebot_6" d="M205,522.71991C204.99968,532.38489 197.1644,540.21967 187.49942,540.21936C177.83443,540.21899 169.99968,532.38373 170,522.71875C170.00032,513.05377 177.8356,505.21902 187.50058,505.21933C197.16557,505.21964 205.00032,513.05493 205,522.71991"/>
   <path fill="#a02c2c" d="M205,522.71991C204.99968,532.38489 197.1644,540.21967 187.49942,540.21936C177.83443,540.21899 169.99968,532.38373 170,522.71875C170.00032,513.05377 177.8356,505.21902 187.50058,505.21933C197.16557,505.21964 205.00032,513.05493 205,522.71991" id="imagebot_5" transform="matrix(0.244898,0,0,0.244898,455.1912,23.77196)"/>
   <path fill="#a02c2c" transform="matrix(0.3877551,0,0,0.3877551,425.90549,-39.8308)" id="imagebot_4" d="M205,522.71991C204.99968,532.38489 197.1644,540.21967 187.49942,540.21936C177.83443,540.21899 169.99968,532.38373 170,522.71875C170.00032,513.05377 177.8356,505.21902 187.50058,505.21933C197.16557,505.21964 205.00032,513.05493 205,522.71991"/>
  </g>
  <title>Layer 1</title>
 </g>
</svg>