<svg width="749" height="896" xmlns="http://www.w3.org/2000/svg" xmlns:undefined="http://www.inkscape.org/namespaces/inkscape">
 <defs>
  <filter id="imagebot_12" x="-0.16854" width="1.33707" y="-0.10606" height="1.21211" color-interpolation-filters="sRGB">
   <feGaussianBlur  stdDeviation="4.98722" id="imagebot_21"/>
  </filter>
  <filter id="imagebot_10" x="-0.09658" width="1.19316" y="-0.22892" height="1.45784" color-interpolation-filters="sRGB">
   <feGaussianBlur  stdDeviation="5.52059" id="imagebot_20"/>
  </filter>
 </defs>
 <metadata id="imagebot_19">image/svg+xml</metadata>
 <g id="imagebot_2" label="Layer 1">
  <g label="Layer 1" transform="translate(10.0467 -52.9595) matrix(3.92066 0 0 3.92066 -659.562 -1063.04)" id="imagebot_3">
   <path fill="#ffcc00" fill-rule="evenodd" stroke="#aa8800" stroke-width="3" stroke-miterlimit="4" d="M170.71577,371.51935L188.89853,390.71225C188.89853,390.71225 230.1088,328.88696 263.64981,362.42798C297.995,396.77316 200.01019,420.00668 192.93913,449.30109C185.86807,478.59552 192.93913,501.82904 192.93913,501.82904L356.58386,500.81888L353.55338,423.03714L248.49753,451.32141C248.49753,451.32141 316.17773,425.05746 324.25897,381.62088C330.17432,349.82581 288.90363,284.64624 227.28432,306.8696C165.66501,329.09296 229.30463,347.2757 170.71577,371.51935z" id="imagebot_18"/>
   <g id="imagebot_13">
    <path fill="#ffeeaa" stroke="#aa8800" stroke-width="3" stroke-miterlimit="4" stroke-dashoffset="0" d="M221.2234,333.13425C221.22302,344.29208 212.17751,353.33701 201.01967,353.33664C189.86183,353.33624 180.81693,344.29074 180.81731,333.1329C180.81767,321.97507 189.86317,312.93015 201.02103,312.93051C212.17886,312.93091 221.22377,321.97641 221.2234,333.13425" id="imagebot_17"/>
    <path fill="#554400" d="M216.17265,332.62881C216.17247,337.92877 211.87585,342.2251 206.57588,342.22495C201.27591,342.22476 196.97958,337.92813 196.97975,332.62817C196.97993,327.32819 201.27655,323.03186 206.57652,323.03204C211.8765,323.03223 216.17284,327.32883 216.17265,332.62881" id="imagebot_16"/>
    <path fill="#2b2200" d="M214.40488,333.51251C214.40482,335.67435 212.65224,337.42679 210.49042,337.42673C208.32858,337.42664 206.57613,335.67407 206.5762,333.51224C206.57626,331.35043 208.32884,329.59796 210.49068,329.59805C212.6525,329.59811 214.40495,331.35068 214.40488,333.51251" id="imagebot_15"/>
    <path fill="#ffeeaa" d="M210.11172,330.35571C210.11169,331.33203 209.32021,332.12344 208.34389,332.12341C207.36758,332.12338 206.57616,331.33191 206.57619,330.35559C206.57622,329.37927 207.36771,328.58786 208.34402,328.58789C209.32033,328.58792 210.11176,329.37939 210.11172,330.35571" id="imagebot_14"/>
   </g>
   <path fill="#ffeeaa" fill-rule="evenodd" filter="url(#imagebot_12)" d="M242.85715,314.50504C245.71429,315.93362 276.42859,317.36218 295.00003,338.79074C313.57144,360.2193 300.71429,388.07648 292.85715,400.2193C285,412.36218 272.85715,425.93362 272.85715,425.93362C272.85715,425.93362 310,405.93362 313.57144,371.64789C317.14288,337.36218 283.57144,313.07645 267.14288,313.07645C250.71429,313.07645 242.14287,315.21933 242.85715,314.50504z" id="imagebot_11"/>
   <path fill="#ffe680" fill-rule="evenodd" filter="url(#imagebot_10)" d="M212.85715,491.64789C212.85715,491.64789 336.42856,497.36218 345,490.21933C353.57144,483.07648 348.57144,435.93362 348.57144,435.93362C348.57144,435.93362 343.57144,464.50504 317.85715,474.50504C292.14285,484.50504 211.42857,492.36218 212.85715,491.64789z" id="imagebot_9"/>
   <path fill="none" stroke="#806600" stroke-width="2" stroke-miterlimit="4" d="M196.42857,365.93362L180.71429,380.21933" id="imagebot_8"/>
   <path fill="none" stroke="#aa8800" stroke-width="3" stroke-miterlimit="4" d="M242.85715,454.50504C242.85715,454.50504 237.85715,513.07648 291.42859,482.36218C335.28491,457.21786 352.85715,423.79074 352.85715,423.79074" id="imagebot_7"/>
   <path fill="none" stroke="#aa8800" stroke-width="2" stroke-miterlimit="4" d="M254.05338,461.42294L318.19806,441.72498" id="imagebot_6"/>
   <path fill="none" stroke="#aa8800" stroke-width="2" stroke-miterlimit="4" d="M267.18536,467.48386L319.20819,449.80618" id="imagebot_5"/>
   <path fill="none" stroke="#aa8800" stroke-width="2" stroke-miterlimit="4" d="M282.33765,471.52448L318.19806,458.39249" id="imagebot_4"/>
  </g>
  <title>Layer 1</title>
 </g>
</svg>